<?xml version="1.0" encoding="UTF-8" standalone="no"?>
<!-- Created with Inkscape (http://www.inkscape.org/) -->

<svg
   width="10.16mm"
   height="128.5mm"
   viewBox="0 0 10.16 128.5"
   version="1.1"
   id="svg4352"
   inkscape:version="1.2.2 (b0a8486541, 2022-12-01)"
   sodipodi:docname="AG.svg"
   xml:space="preserve"
   xmlns:inkscape="http://www.inkscape.org/namespaces/inkscape"
   xmlns:sodipodi="http://sodipodi.sourceforge.net/DTD/sodipodi-0.dtd"
   xmlns="http://www.w3.org/2000/svg"
   xmlns:svg="http://www.w3.org/2000/svg"
   xmlns:rdf="http://www.w3.org/1999/02/22-rdf-syntax-ns#"
   xmlns:cc="http://creativecommons.org/ns#"
   xmlns:dc="http://purl.org/dc/elements/1.1/"><defs
     id="defs4346"><clipPath
       id="clip89"><rect
         y="0"
         x="0"
         width="18"
         height="19"
         id="rect4864" /></clipPath><clipPath
       id="clip90"><path
         inkscape:connector-curvature="0"
         d="m 0.898438,0.128906 h 16.25 v 17.882813 h -16.25 z m 0,0"
         id="path4861" /></clipPath><mask
       id="mask44"><g
         style="filter:url(#alpha)"
         id="g4858"
         transform="matrix(0.26458333,0,0,0.26458333,89.358789,128.57765)"><rect
           x="0"
           y="0"
           width="3052.8701"
           height="3351.5"
           style="fill:#000000;fill-opacity:0.14999402;stroke:none"
           id="rect4856" /></g></mask><filter
       id="alpha"
       filterUnits="objectBoundingBox"
       x="0"
       y="0"
       width="1"
       height="1"><feColorMatrix
         type="matrix"
         in="SourceGraphic"
         values="0 0 0 0 1 0 0 0 0 1 0 0 0 0 1 0 0 0 1 0"
         id="feColorMatrix4149" /></filter><clipPath
       id="clipPath17821"><rect
         y="0"
         x="0"
         width="18"
         height="19"
         id="rect17819" /></clipPath><clipPath
       id="clipPath17825"><path
         inkscape:connector-curvature="0"
         d="m 0.898438,0.128906 h 16.25 v 17.882813 h -16.25 z m 0,0"
         id="path17823" /></clipPath><clipPath
       id="clip87"><rect
         y="0"
         x="0"
         width="24"
         height="26"
         id="rect4848" /></clipPath><clipPath
       id="clip88"><path
         inkscape:connector-curvature="0"
         d="m 0.683594,0.921875 h 22.679687 v 24.9375 H 0.683594 Z m 0,0"
         id="path4845" /></clipPath><mask
       id="mask43"><g
         style="filter:url(#alpha)"
         id="g4842"
         transform="matrix(0.26458333,0,0,0.26458333,89.358789,128.57765)"><rect
           x="0"
           y="0"
           width="3052.8701"
           height="3351.5"
           style="fill:#000000;fill-opacity:0.14999402;stroke:none"
           id="rect4840" /></g></mask><filter
       id="filter17836"
       filterUnits="objectBoundingBox"
       x="0"
       y="0"
       width="1"
       height="1"><feColorMatrix
         type="matrix"
         in="SourceGraphic"
         values="0 0 0 0 1 0 0 0 0 1 0 0 0 0 1 0 0 0 1 0"
         id="feColorMatrix17834" /></filter><clipPath
       id="clipPath17840"><rect
         y="0"
         x="0"
         width="24"
         height="26"
         id="rect17838" /></clipPath><clipPath
       id="clipPath17844"><path
         inkscape:connector-curvature="0"
         d="m 0.683594,0.921875 h 22.679687 v 24.9375 H 0.683594 Z m 0,0"
         id="path17842" /></clipPath></defs><sodipodi:namedview
     id="base"
     pagecolor="#ffffff"
     bordercolor="#666666"
     borderopacity="1.0"
     inkscape:pageopacity="0.0"
     inkscape:pageshadow="2"
     inkscape:zoom="1.4142136"
     inkscape:cx="47.0226"
     inkscape:cy="220.26376"
     inkscape:document-units="mm"
     inkscape:current-layer="layer1"
     showgrid="false"
     inkscape:snap-bbox="false"
     inkscape:snap-nodes="false"
     inkscape:snap-bbox-midpoints="true"
     inkscape:snap-others="false"
     inkscape:snap-page="true"
     inkscape:window-width="1920"
     inkscape:window-height="1011"
     inkscape:window-x="0"
     inkscape:window-y="32"
     inkscape:window-maximized="1"
     inkscape:bbox-nodes="false"
     inkscape:snap-grids="false"
     inkscape:snap-global="false"
     inkscape:showpageshadow="2"
     inkscape:pagecheckerboard="0"
     inkscape:deskcolor="#d1d1d1" /><metadata
     id="metadata4349"><rdf:RDF><cc:Work
         rdf:about=""><dc:format>image/svg+xml</dc:format><dc:type
           rdf:resource="http://purl.org/dc/dcmitype/StillImage" /><dc:title /></cc:Work></rdf:RDF></metadata><g
     inkscape:label="Layer 1"
     inkscape:groupmode="layer"
     id="layer1"
     transform="translate(0,-168.5)"><path
       inkscape:connector-curvature="0"
       style="fill:#000000;fill-opacity:1;fill-rule:nonzero;stroke:none;stroke-width:0.28965792"
       d="M 10.173126,168.59302 H 0.0253395 V 296.90629 H 10.173126 Z m 0,0"
       id="path30841"
       sodipodi:insensitive="true" /><path
       inkscape:connector-curvature="0"
       style="fill:#ababab;fill-opacity:1;fill-rule:nonzero;stroke:none;stroke-width:0.28858876"
       d="M 10.198466,168.5 H 0 V 296.99931 H 10.198466 Z M 10.073954,296.81328 H 0.12451149 V 168.68741 H 10.073954 Z m 0,0"
       id="path30843"
       sodipodi:insensitive="true" /><g
       aria-label="docB"
       inkscape:transform-center-x="-0.18898811"
       inkscape:transform-center-y="1.3229168"
       style="font-style:normal;font-variant:normal;font-weight:normal;font-stretch:normal;font-size:2.82222px;line-height:1.25;font-family:Chalkduster;-inkscape-font-specification:'Chalkduster, Normal';font-variant-ligatures:normal;font-variant-caps:normal;font-variant-numeric:normal;font-feature-settings:normal;text-align:start;letter-spacing:0px;word-spacing:0px;writing-mode:lr-tb;text-anchor:start;fill:#000000;fill-opacity:1;stroke:none;stroke-width:0.264583"
       id="text1992"
       transform="translate(-2.1774356,4.7681835)"><path
         d="m 5.4781167,289.65322 q 0,0.003 0.00312,0.009 0.00624,0.003 0.00936,0.006 h 0.00624 q 0.018711,0 0.021829,-0.0218 0.00624,-0.0218 0.00624,-0.0374 0.00936,0.0312 0.00936,0.053 0,0.0218 0,0.0468 0,0.0218 0.00312,0.0561 0.00312,0.0312 0.018711,0.0873 -0.018711,-0.006 -0.021829,0.0156 0,0.0187 0.00624,0.0468 0.00624,0.0281 0.012474,0.0561 0.00936,0.0281 0.00936,0.0374 v 0.0125 q 0.00312,0.0125 0.00936,0.0374 0.00936,0.0218 0.018711,0.0468 0.00936,0.025 0.015592,0.0468 0.00936,0.0218 0.012474,0.0281 0.00936,0.0187 0.04054,0.0686 0.034303,0.0499 0.074844,0.10603 0.04054,0.053 0.08108,0.0967 0.04054,0.0405 0.065488,0.0405 h 0.00624 q 0.00624,-0.003 0.021829,-0.0156 0.015592,-0.0125 0.021829,-0.0125 h 0.00624 q 0.00312,0 0.00312,0 0.00312,-0.003 0.00936,-0.003 0,0 0.00624,0.003 h 0.00624 q 0.00312,0 0.00624,0.0125 0.00312,0.0125 0.00624,0.0156 0.012474,0.006 0.021829,0 0.012474,-0.009 0.018711,0.0125 v 0.0218 0.0187 q 0.00312,0.006 0.018711,0.009 0.018711,0.003 0.024948,0.006 v 0.0125 q -0.00312,0.003 -0.015592,0.0156 -0.012474,0.0125 -0.012474,0.0156 -0.00312,0.006 0,0.0437 0.00312,0.0343 0,0.0405 -0.00312,0.006 -0.021829,0.0218 -0.018711,0.0156 -0.018711,0.0218 -0.00312,0.006 -0.00936,0.0249 -0.00312,0.0156 -0.00312,0.0218 -0.018711,0 -0.034303,-0.0156 -0.015592,-0.0187 -0.034303,-0.0187 -0.00312,0 -0.00624,0.003 -0.00312,0.003 -0.00936,0.0187 -0.00312,0.0187 -0.00624,0.0218 h -0.012512 q -0.00312,-0.003 -0.021829,-0.0218 -0.015592,-0.0187 -0.018711,-0.0187 -0.024948,-0.009 -0.053014,-0.006 -0.024948,0 -0.049896,-0.003 -0.021829,-0.006 -0.037422,-0.0249 -0.012474,-0.0187 -0.015592,-0.0655 -0.00624,0 -0.018711,0.006 -0.00936,0.006 -0.012474,0.006 -0.00312,0 -0.00312,0.003 0,-0.0686 -0.018711,-0.0811 -0.018711,-0.0156 -0.04054,-0.0156 -0.021829,0 -0.04054,-0.003 -0.018711,-0.003 -0.018711,-0.0561 -0.024948,0 -0.024948,-0.003 0.00312,-0.003 -0.021829,0.0156 v -0.0748 q 0,-0.003 -0.00624,-0.006 -0.00624,-0.006 -0.00936,-0.006 l -0.028066,0.0593 q -0.00312,-0.006 -0.00936,-0.0281 -0.00312,-0.0249 -0.00312,-0.0312 v -0.0125 q -0.00312,0 -0.00936,0 -0.00312,-0.003 -0.00624,-0.003 l -0.043659,0.0156 v -0.0156 q 0,-0.0156 0.00624,-0.0218 0.00624,-0.009 0.00624,-0.0249 0,-0.0218 -0.028066,-0.053 -0.024948,-0.0312 -0.04054,-0.0405 -0.00624,0.0187 -0.024948,0.0437 -0.018711,0.0218 -0.034303,0.0281 -0.00312,0 -0.021829,0.006 -0.015592,0.003 -0.037422,0.009 -0.021829,0.003 -0.043659,0.009 -0.018711,0.003 -0.024948,0.003 -0.015592,0.003 -0.021829,0.0156 -0.00312,0.009 -0.00936,0.0218 -0.00624,0.0125 -0.015592,0.0218 -0.00936,0.009 -0.034303,0.009 -0.015592,0 -0.015592,-0.0125 -0.015592,0.0249 -0.012474,0.0312 0.00312,0.003 0.00312,0.0281 h 0.015592 q 0,0.0125 -0.028066,0.0312 -0.024948,0.0187 -0.059251,0.0374 -0.034303,0.0187 -0.068606,0.0312 -0.034303,0.0125 -0.049896,0.0125 -0.00624,0 -0.015592,-0.003 -0.00936,-0.006 -0.012474,-0.009 0,0.006 -0.00624,0.0218 -0.00312,0.0125 -0.00624,0.0187 l -0.00624,0.003 -0.00936,-0.003 q -0.00312,0 -0.015592,-0.003 -0.012474,-0.006 -0.018711,-0.009 v 0.0561 h -0.00624 q -0.012474,0 -0.015592,-0.003 -0.018711,-0.003 -0.04054,-0.009 -0.018711,-0.006 -0.018711,-0.0312 0,-0.0156 0.00936,-0.0218 0.00936,-0.006 0.00936,-0.0249 0,-0.0156 -0.00312,-0.0281 -0.00312,-0.0125 -0.018711,-0.0125 -0.018711,0 -0.028066,0.0218 -0.00624,0.0187 -0.00936,0.0437 -0.00312,0.0218 -0.00312,0.0468 0,0.0218 0,0.0249 -0.00936,0 -0.028066,0 -0.018711,0 -0.04054,0.003 -0.021829,0 -0.04054,0.003 -0.018711,0 -0.028066,0 -0.00624,0 -0.018711,0.006 -0.00936,0.003 -0.012474,0.006 0.012474,-0.0343 -0.012474,-0.078 -0.021829,-0.0437 -0.053014,-0.0437 0,0.0468 0.018711,0.0811 0.021829,0.0343 0.021829,0.078 0,0.003 -0.00312,0.0125 0,0.006 0,0.009 -0.034303,-0.0437 -0.053014,-0.0561 -0.018711,-0.0125 -0.043659,-0.0561 0,-0.003 -0.00624,-0.006 -0.00624,-0.006 -0.00936,-0.009 h -0.00936 q -0.00936,0 -0.015592,0.0125 -0.00312,0.009 -0.00624,0.0218 -0.00312,0.0125 -0.00312,0.0249 0,0.0125 0,0.0156 -0.031185,0 -0.04054,-0.0187 -0.00624,-0.0187 -0.012474,-0.0374 -0.00312,-0.0218 -0.015592,-0.0343 -0.00936,-0.0125 -0.04054,0.003 -0.00936,0.0218 -0.015592,0.0468 -0.00624,0.0249 -0.012474,0.0499 h -0.012474 q -0.00624,-0.006 -0.021829,-0.0312 -0.012474,-0.025 -0.028066,-0.025 h -0.00624 q -0.00312,0.006 -0.00936,0.0218 -0.00312,0.0125 -0.00312,0.0187 -0.034303,-0.003 -0.068606,-0.0437 -0.034303,-0.0437 -0.034303,-0.078 0.015592,0 0.028066,-0.006 0.015592,-0.006 0.015592,-0.0249 0,-0.0343 -0.021829,-0.0624 -0.018711,-0.0312 -0.018711,-0.0593 0,-0.0156 0.00624,-0.0249 0.00624,-0.009 0.00624,-0.0249 0,-0.0281 -0.028066,-0.0281 -0.018711,0 -0.024948,0.0156 -0.00624,0.0156 -0.024948,0.0156 -0.00312,0 -0.00624,0 0,-0.003 -0.00312,-0.003 -0.021829,-0.053 -0.031185,-0.0967 -0.00936,-0.0437 -0.00936,-0.0967 0,-0.0561 0.00312,-0.0904 0.00312,-0.0374 0.024948,-0.0998 0.00312,-0.0125 0.012474,-0.0125 0.00936,-0.003 0.018711,-0.003 0.00936,0 0.015592,-0.003 0.00936,-0.003 0.00936,-0.0218 h -0.031185 q 0,-0.0374 0.012474,-0.0468 0.015592,-0.0125 0.031185,-0.0187 0.015592,-0.006 0.028066,-0.0156 0.015592,-0.009 0.015592,-0.0405 v -0.006 q 0,-0.003 -0.00624,-0.006 -0.00312,-0.006 -0.00624,-0.009 0.012474,-0.0249 0.021829,-0.053 0.012474,-0.0281 0.024948,-0.053 0.012474,-0.0249 0.031185,-0.0468 0.018711,-0.0218 0.049896,-0.0312 0.00312,-0.003 0.018711,0 0.018711,0 0.021829,0 0.012474,-0.009 0.015592,-0.0218 0.00312,-0.0156 0.00624,-0.0281 0.00624,-0.0156 0.021829,-0.0249 0.015592,-0.0125 0.049896,-0.0125 0.00312,0 0.00624,0.003 0.00312,0 0.00624,0.006 0.00624,0.006 0.00936,0.006 l 0.00624,0.003 q 0.00312,0 0.00624,-0.003 0.00312,0 0.00624,-0.006 0.00624,-0.006 0.00936,-0.006 l 0.00624,-0.003 q 0.015592,0 0.021829,0.009 0.00624,0.009 0.031185,0.009 0.031185,0 0.043659,-0.0281 0.015592,-0.0312 0.031185,-0.0312 l 0.00624,0.003 q 0.00312,0 0.012474,0.006 0.012474,0.006 0.015592,0.006 0.00312,0 0.015592,-0.006 0.012474,-0.006 0.015592,-0.006 h 0.00312 q 0.00312,0 0.00312,0 0,-0.003 0.00312,-0.003 l 0.00312,0.003 0.028066,0.0686 q 0.031185,0 0.031185,-0.0281 0,-0.0249 -0.018711,-0.0374 -0.018711,-0.0125 -0.018711,-0.0468 0.024948,0 0.04054,-0.009 0.015592,-0.009 0.04054,-0.009 0.034303,0 0.071725,0.0218 0.04054,0.0218 0.074843,0.0218 h 0.00624 q -0.012474,-0.0249 0,-0.0374 0.015592,-0.0156 0.037422,-0.0218 0.024948,-0.006 0.049896,-0.006 0.028066,-0.003 0.04054,-0.003 0.00624,0 0.015592,0.006 0.00936,0.003 0.012474,0.006 -0.00936,-0.0312 0.00312,-0.0343 0.015592,-0.006 0.031185,-0.006 0.034303,0 0.049896,0.0187 0.018711,0.0187 0.049896,0.0187 0,-0.0374 -0.00624,-0.0624 -0.00312,-0.0281 0.015592,-0.0624 0,-0.003 0.012474,-0.0125 0.012474,-0.009 0.015592,-0.0156 v -0.0125 q 0,-0.0405 -0.00936,-0.0717 -0.00624,-0.0343 -0.00624,-0.078 v -0.0936 l 0.015592,-0.0249 v -0.0156 l -0.015592,-0.0312 v -0.006 q 0,-0.0218 0.00624,-0.0499 0.00936,-0.0312 0.018711,-0.0593 0.00936,-0.0312 0.018711,-0.0593 0.00936,-0.0312 0.012474,-0.0499 0,-0.003 -0.00624,-0.0125 -0.00624,-0.0125 -0.00624,-0.0156 -0.00312,-0.009 -0.00312,-0.0187 v -0.0249 q 0,-0.0811 0.028066,-0.14657 0.031185,-0.0655 0.059251,-0.13721 0.024948,0.0312 0.056133,0.0437 0.00624,-0.0249 0.018711,-0.0468 0.015592,-0.025 0.046777,-0.025 h 0.00624 q 0.046777,0.0437 0.087317,0.0998 0.043659,0.053 0.068607,0.11539 l 0.015592,0.0561 q 0.00624,0.006 0.012474,0.0405 0.00936,0.0343 0.015592,0.0405 0.00312,0.003 -0.00936,0.0218 -0.00936,0.0187 -0.018711,0.0218 -0.034303,0.006 -0.031185,0.0312 0.00624,0.0218 0.021829,0.0593 0.015592,0.0343 0.028066,0.078 0.015592,0.0405 0.00624,0.0873 -0.00624,-0.006 -0.024948,-0.0125 -0.00624,-0.006 -0.012474,-0.0156 -0.00312,-0.0125 -0.00312,-0.0156 0,-0.003 0.00624,-0.0187 0.00624,-0.0187 0.00936,-0.0218 v -0.0156 q 0,-0.0156 -0.00624,-0.0281 -0.00624,-0.0156 -0.021829,-0.0156 -0.00936,0 -0.018711,0.0156 -0.00936,0.0156 -0.018711,0.0343 -0.00936,0.0187 -0.015592,0.0374 -0.00624,0.0187 -0.00624,0.0218 0,0.0218 0.021829,0.025 0.024948,0 0.037422,-0.003 l 0.012474,0.0842 -0.028066,0.0125 q 0.00624,0.006 0.015592,0.0249 0.00936,0.0156 0.012474,0.0218 0,0.003 0.00312,0.006 0.00312,0.003 0.00624,0.009 0.00312,0.006 0.00624,0.009 0,0.003 -0.00624,0.009 -0.00624,0.003 -0.00936,0.006 0,0 -0.00312,0.003 0,0.0281 -0.00624,0.0499 -0.00624,0.0187 -0.015592,0.0374 -0.00936,0.0156 -0.015592,0.0343 -0.00624,0.0156 -0.00624,0.0405 -0.021829,0 -0.043659,-0.009 -0.021829,-0.009 -0.021829,0.0281 0,0.0281 0.012474,0.0437 0.012474,0.0125 0.028066,0.0218 0.018711,0.009 0.034303,0.0187 0.018711,0.009 0.024948,0.0281 0,0.006 0.00312,0.0218 0.00624,0.0156 0.00936,0.0374 0.00624,0.0187 0.00936,0.0374 0.00312,0.0156 0.00624,0.0187 0,0.0125 0.012474,0.0125 0.012474,-0.003 0.021829,-0.0125 l 0.00936,0.0312 q -0.043659,0.003 -0.043659,0.053 z m -1.3503008,0.54885 q 0,0.0281 0.034303,0.0499 0.037422,0.0218 0.053014,0.0374 l 0.056133,0.0748 q 0.018711,0.0187 0.059251,0.0312 0.043659,0.009 0.068606,0.0218 0.00936,0 0.04054,0.003 0.034303,0 0.043659,0 0.056133,0 0.096673,-0.006 0.04054,-0.006 0.077962,-0.0187 0.04054,-0.0125 0.08108,-0.0312 0.043659,-0.0187 0.099791,-0.0437 0.012474,-0.006 0.034303,-0.0218 0.024948,-0.0156 0.049896,-0.0281 0.024948,-0.0156 0.043659,-0.025 0.021829,-0.0125 0.028066,-0.009 l 0.099791,-0.0998 h 0.037422 v 0.0717 h 0.037422 q 0,-0.003 -0.00312,-0.006 0,-0.006 0,-0.009 l -0.015592,-0.0312 v -0.006 q 0,-0.0125 0.00936,-0.0312 0.00936,-0.0187 0.024948,-0.0187 0,0 0.00624,0.003 h 0.00312 l 0.012474,0.0125 0.04054,0.0281 q 0.034303,-0.0156 0.034303,-0.0499 0,-0.0156 -0.024948,-0.0281 -0.021829,-0.0125 -0.034303,-0.0187 0.00312,-0.006 0.012474,-0.0218 0.012474,-0.0156 0.012474,-0.0218 v -0.009 q 0,-0.006 -0.00312,-0.0249 0,-0.0187 -0.00624,-0.0374 -0.00312,-0.0187 -0.012474,-0.0312 -0.00624,-0.0156 -0.018711,-0.0125 -0.00312,0 -0.012474,0.0156 -0.00936,0.0125 -0.015592,0.0156 h -0.028066 q -0.00312,-0.0218 -0.012474,-0.0624 -0.00936,-0.0405 -0.043659,-0.0405 -0.028066,0 -0.043659,0.0312 l -0.04054,-0.0561 q 0,-0.003 0.00312,-0.006 0.00624,-0.006 0.00936,-0.009 0.015592,-0.009 0.024948,-0.0125 0.00936,-0.006 0.012474,-0.0125 0.00624,-0.006 0.00624,-0.0156 0.00312,-0.0125 0.00312,-0.0374 -0.034303,0 -0.046777,0.0281 -0.00936,0.0249 -0.028066,0.0499 -0.00312,-0.0405 -0.021829,-0.0592 -0.015592,-0.0218 -0.034303,-0.0312 -0.018711,-0.0125 -0.034303,-0.0187 -0.012474,-0.006 -0.00936,-0.0218 -0.012474,0.0249 -0.012474,0.0312 0,0.003 0.00624,0.0156 0.00624,0.009 0.00624,0.0125 v 0.006 q 0,0.003 -0.00312,0.006 -0.018711,0 -0.04054,-0.006 -0.018711,-0.006 -0.04054,-0.006 h -0.015592 q -0.00312,0.003 -0.015592,0.009 -0.00936,0.006 -0.012474,0.006 l -0.028066,-0.0281 q 0,0 -0.00624,-0.003 l -0.00624,0.003 -0.059251,0.0281 q -0.053014,0.009 -0.1216206,0.0125 -0.065488,0.003 -0.1340945,0.0156 -0.068607,0.009 -0.1247392,0.0405 -0.056132,0.0281 -0.084199,0.0873 -0.00312,0.003 -0.00312,0.0218 0.00312,0.0187 0.00312,0.0218 -0.015592,0.0343 -0.046777,0.0624 -0.028066,0.0281 -0.028066,0.0717 0,0.0218 0.00624,0.0405 0.00936,0.0156 0.00936,0.0374 0,0.0187 -0.00936,0.0343 -0.00624,0.0125 -0.00624,0.0312 z m 1.5779497,0.43971 q 0,0.0281 0.021829,0.0405 0.024948,0.009 0.046777,0.009 0.021829,0 0.031185,-0.006 0.012474,-0.006 0.012474,-0.0312 0,-0.0218 -0.012474,-0.0343 -0.012474,-0.0125 -0.028066,-0.0187 -0.015592,-0.006 -0.034303,-0.0125 -0.015592,-0.009 -0.024948,-0.0281 -0.00312,0.006 -0.00936,0.0374 -0.00312,0.0281 -0.00312,0.0343 z M 5.291008,288.95156 q 0,0.0156 0.015592,0.0405 0.018711,0.0249 0.034303,0.0249 h 0.00624 q 0.00312,0 0.00312,-0.003 l 0.00624,-0.0125 q 0.00624,-0.0125 0.00624,-0.0125 v -0.0156 q 0,-0.006 -0.00624,-0.0343 -0.00624,-0.0312 -0.00624,-0.0374 -0.00312,0 -0.00624,0 0,-0.003 -0.00312,-0.003 l -0.00624,0.003 -0.04054,0.0405 z m -0.1434499,0.31497 q 0,0.009 0,0.0249 0.00312,0.0156 0.018711,0.0218 l 0.028066,-0.0281 q -0.00624,-0.0156 -0.021829,-0.0156 -0.015592,-0.003 -0.024948,-0.003 z m -0.4833641,0.3555 q 0,0.0343 0.034303,0.0343 0,-0.0343 -0.034303,-0.0343 z m 0.090436,0.0187 q 0.012474,-0.006 0.015592,-0.0187 0.00312,-0.0156 0.00312,-0.0249 H 4.754631 Z m 0.6954205,-0.0998 q -0.015592,0.006 -0.018711,0.0187 0,0.0125 0,0.0218 h 0.018711 z m -0.015592,0.76403 q -0.00936,0 -0.00936,0.0156 0,0.0156 0.00936,0.0156 0.012474,0 0.012474,-0.0156 0,-0.0156 -0.012474,-0.0156 z m 0.015592,-0.69542 q -0.012474,0 -0.012474,0.0156 0,0.0156 0.012474,0.0156 0.00936,0 0.00936,-0.0156 0,-0.0156 -0.00936,-0.0156 z m -0.5394966,-0.1684 q -0.012474,0 -0.012474,0.0156 0,0.0125 0.012474,0.0125 0.00936,0 0.00936,-0.0125 0,-0.0156 -0.00936,-0.0156 z m 0.04054,1.05093 q -0.00936,0 -0.00936,0.0156 0,0.0125 0.00936,0.0125 0.012474,0 0.012474,-0.0125 0,-0.0156 -0.012474,-0.0156 z m 0.2276488,-0.17152 q -0.00936,0 -0.00936,0.0156 0,0.0125 0.00936,0.0125 0.012474,0 0.012474,-0.0125 0,-0.0156 -0.012474,-0.0156 z m -1.2068508,-0.33991 h 0.015592 v -0.0281 h -0.015592 z m 0.9511357,-0.38357 q 0.018711,-0.009 0.018711,-0.0281 h -0.018711 z m -0.2120565,-0.0437 h 0.015592 v -0.0125 h -0.015592 z m 0.4677716,-0.14033 v -0.0281 l -0.012474,0.0125 z m 0.3118478,0.48024 h 0.012474 v -0.0125 h -0.012474 z m -1.5717127,0.35551 h 0.012474 v -0.0125 h -0.012474 z m 0.1559239,-0.49584 q 0,-0.006 -0.00936,-0.006 -0.00624,0 -0.00624,0.006 0.00624,0.0156 0.015592,0 z m 1.247391,-1.31912 q -0.00624,-0.003 -0.00624,0.006 0,0.009 0.00624,0.009 0.015592,-0.006 0,-0.0156 z m -0.2432412,1.80248 h 0.015592 l -0.015592,-0.0156 z m -0.2681891,0.28379 q -0.00624,-0.003 -0.00624,0.006 0,0.006 0.00624,0.006 0.00624,-0.003 0.00624,-0.006 0,-0.006 -0.00624,-0.006 z m 0.8669368,0.0842 v -0.0125 h -0.018711 z m -0.3835728,-1.19125 0.012474,-0.0156 h -0.012474 z m -1.2785758,1.23491 h 0.012474 l -0.012474,-0.0156 z m 0.7234868,-0.0748 v -0.0125 h -0.012474 z m 0.7858564,-0.97296 v 0.009 q -0.00312,-0.003 -0.00312,-0.009 z"
         style="font-style:normal;font-variant:normal;font-weight:normal;font-stretch:normal;font-size:2.82222px;font-family:Chalkduster;-inkscape-font-specification:'Chalkduster, Normal';font-variant-ligatures:normal;font-variant-caps:normal;font-variant-numeric:normal;font-feature-settings:normal;text-align:start;writing-mode:lr-tb;text-anchor:start;fill:#13ba65;fill-opacity:1;stroke-width:0.264583"
         id="path1994"
         inkscape:connector-curvature="0" /><path
         d="m 6.3779424,290.73845 q -0.00624,0 -0.024948,0.003 -0.015592,0 -0.021829,0 0,0.003 -0.00624,0.009 -0.00624,0.006 -0.00936,0.006 h -0.068607 l -0.012474,0.0281 q 0,-0.0499 -0.049896,-0.0624 -0.046777,-0.0125 -0.084199,-0.0125 -0.012474,0 -0.024948,0.003 -0.00936,0 -0.021829,0.0125 v -0.0936 l -0.00624,-0.006 q -0.00624,-0.006 -0.00624,-0.009 -0.00624,0 -0.021829,-0.006 -0.015592,-0.009 -0.034303,-0.0187 -0.018711,-0.009 -0.034303,-0.0187 -0.015592,-0.009 -0.018711,-0.0125 -0.021829,-0.009 -0.021829,-0.0312 0,-0.0249 -0.021829,-0.0374 -0.015592,0.003 -0.015592,0.0156 0,0.0125 0.00312,0.0281 0.00312,0.0156 0,0.0281 0,0.0125 -0.015592,0.0125 -0.00936,0 -0.04054,-0.009 -0.031185,-0.009 -0.031185,-0.0249 v -0.006 q 0.00624,-0.0125 0.018711,-0.0156 -0.00624,-0.006 -0.021829,-0.0156 -0.012474,-0.0125 -0.021829,-0.0125 -0.018711,0 -0.024948,0.009 -0.00312,0.009 -0.00624,0.0187 0,0.009 -0.00312,0.0187 -0.00312,0.009 -0.012474,0.009 -0.012474,0 -0.028066,-0.006 -0.012474,-0.006 -0.018711,-0.0218 0.015592,-0.003 0.015592,-0.0187 0,-0.0156 0,-0.0218 0,-0.0405 -0.024948,-0.0686 -0.024948,-0.0281 -0.049896,-0.0561 -0.00312,0 -0.00312,-0.003 -0.00312,-0.003 -0.00312,-0.009 0.034303,0 0.046777,-0.0281 0.012474,-0.0312 0.018711,-0.0593 0,-0.003 0,-0.0249 0,-0.0249 0,-0.053 0,-0.0281 0,-0.053 0,-0.0249 0,-0.0312 0,-0.0312 0.012474,-0.0561 0.015592,-0.0249 0.015592,-0.053 0,-0.003 -0.00312,-0.003 0,-0.003 0,-0.006 v -0.006 q 0,-0.003 -0.012474,-0.0187 -0.012474,-0.0187 -0.012474,-0.0218 l -0.00312,-0.003 v -0.006 l 0.00312,-0.003 q 0.012474,-0.0249 0.024948,-0.0624 0.012474,-0.0405 0.031185,-0.0655 0,-0.003 0.00312,-0.006 0,-0.003 0,-0.003 0.00312,0 0.00312,-0.003 0.04054,-0.0249 0.056133,-0.0592 0.015592,-0.0343 0.031185,-0.078 0.00312,0.0125 0.012474,0.0156 0.00936,0 0.015592,0 h 0.012474 l -0.034303,-0.0655 0.1465684,-0.0374 q 0,-0.0468 0.018711,-0.0624 0.021829,-0.0187 0.049896,-0.0249 0.028066,-0.006 0.059251,-0.0125 0.031185,-0.006 0.053014,-0.0343 h 0.1216369 v -0.0436 l -0.015592,0.003 q -0.00312,0 -0.012474,-0.006 -0.00936,-0.006 -0.012474,-0.009 l 0.012474,-0.0125 h 0.137213 l 0.015592,-0.0281 q -0.00624,0.0468 0,0.078 0.00624,0.0312 0.015592,0.0593 0.00936,0.0281 0.015592,0.0561 0.00936,0.0249 0.00936,0.0624 v 0.0218 l -0.096673,0.0842 -0.00624,0.003 q -0.015592,0 -0.015592,-0.0156 0,-0.0156 -0.024948,-0.0156 -0.037422,0 -0.04054,0.0218 -0.00312,0.0187 -0.00312,0.0499 -0.021829,0 -0.034303,0.009 -0.00936,0.006 -0.015592,0.0187 -0.00624,0.0125 -0.015592,0.0281 -0.00624,0.0125 -0.024948,0.0249 l -0.037422,0.009 q -0.00312,0.003 -0.018711,0.0312 -0.015592,0.0249 -0.021829,0.0374 -0.00936,0.0187 -0.024948,0.0218 -0.015592,0.003 -0.031185,0.006 -0.012474,0.003 -0.021829,0.009 -0.00936,0.003 -0.00936,0.0218 0,0.0187 0.00624,0.0374 0.00936,0.0187 0.00936,0.0437 0,0.0499 -0.015592,0.0655 -0.012474,0.0156 -0.04054,0.0437 v 0.009 q 0,0.0499 0.00624,0.0717 0.00936,0.0218 0.021829,0.0343 0.012474,0.009 0.028066,0.0187 0.015592,0.009 0.028066,0.0312 0.00936,0.0249 0.018711,0.0655 0.00936,0.0405 0.037422,0.0468 0.049896,0.0156 0.099791,0.0343 0.053014,0.0187 0.1060283,0.0343 0.077962,0.0218 0.1715162,0.0249 0.093554,0.003 0.1746348,0.003 0.04054,0 0.065488,-0.006 0.024948,-0.006 0.04054,-0.0187 0.015592,-0.0156 0.028066,-0.0374 0.012474,-0.0218 0.028066,-0.0499 0.021829,0.0343 0.024948,0.0312 0.00312,-0.003 0.028066,-0.003 0,-0.0156 0.00312,-0.0405 0.00312,-0.0281 0.00936,-0.053 0.00936,-0.0281 0.024948,-0.0468 0.018711,-0.0187 0.046777,-0.0187 0,0.025 0.012474,0.0312 0.012474,0.003 0.028066,0.003 0,-0.0405 0.00312,-0.0499 0.00312,-0.0125 -0.00936,-0.0468 h 0.00624 q 0.034303,0 0.049896,0.0156 0.015592,0.0156 0.021829,0.0343 0.00936,0.0187 0.015592,0.0343 0.00624,0.0156 0.021829,0.0156 l 0.00624,-0.003 q 0.00624,-0.0343 0.00936,-0.0561 0.00624,-0.0218 0.00624,-0.053 0,-0.0187 -0.00936,-0.0281 -0.00936,-0.0125 -0.018711,-0.0218 -0.00936,-0.009 -0.018711,-0.0187 -0.00936,-0.0125 -0.00936,-0.0281 0,-0.0125 0.015592,-0.0405 0.015592,-0.0281 0.015592,-0.053 0,-0.0343 -0.015592,-0.053 -0.015592,-0.0187 -0.043659,-0.0624 -0.00936,0.006 -0.028066,-0.006 -0.015592,-0.0156 -0.037422,-0.0343 -0.018711,-0.0218 -0.04054,-0.0405 -0.021829,-0.0218 -0.043659,-0.0281 -0.015592,-0.003 -0.059251,-0.006 -0.04054,-0.006 -0.087317,-0.0156 -0.046777,-0.009 -0.084199,-0.0218 -0.034303,-0.0156 -0.034303,-0.0374 v -0.11227 q 0,-0.006 -0.012474,-0.0156 -0.012474,-0.009 -0.018711,-0.0156 l -0.00624,0.006 q -0.00312,0.003 -0.00624,0.003 -0.00312,0 -0.00312,0.003 0,0.003 -0.00624,0.0156 -0.00624,0.0125 -0.00312,0.0187 0,0.003 0.012474,0.0187 0.012474,0.0156 0.012474,0.0218 0,0.003 -0.00936,0.0187 -0.00936,0.0156 -0.015592,0.0249 l -0.012474,0.0125 q 0.00312,-0.009 0,-0.0218 -0.00312,-0.0156 -0.018711,-0.0187 0,0.009 -0.00624,0.0281 -0.00624,0.0156 -0.015592,0.0249 -0.018711,-0.009 -0.031185,-0.0468 -0.012474,-0.0405 -0.018711,-0.0842 -0.00312,-0.0437 -0.00624,-0.0811 0,-0.0405 0,-0.0468 0.049896,0 0.059251,-0.0125 0.012474,-0.0125 0.037422,-0.0593 0.012474,0.006 0.012474,0.0218 0,0.0218 -0.00936,0.0405 -0.00624,0.0156 -0.00624,0.0343 0,0.0125 0.00312,0.0218 0.00624,0.009 0.024948,0.0156 0.021829,-0.0125 0.028066,-0.0312 0.00936,-0.0218 0.024948,-0.0374 0.00936,0.0156 0.012474,0.0249 0.00624,0.006 0.00624,0.0156 0,0.006 -0.00312,0.0156 0,0.006 0,0.0218 0.024948,0 0.034303,0 0.00936,-0.003 0.053014,-0.003 0,-0.0218 -0.00624,-0.0468 -0.00312,-0.0249 -0.037422,-0.0249 v -0.003 q 0.00936,0 0.021829,-0.003 0.00936,0 0.015592,0 0.00936,-0.003 0.015592,-0.003 h 0.012474 0.00312 q 0.00312,0.003 0.015592,0.0343 0.012474,0.0312 0.034303,0.0312 0.015592,0 0.018711,-0.0187 0.00624,-0.0187 0.012474,-0.0281 l 0.00936,-0.003 q 0.024948,0 0.04054,0.0218 0.015592,0.0187 0.021829,0.0374 l 0.04054,-0.0405 q 0.024948,0.0156 0.034303,0.0468 0.00936,0.0281 0.034303,0.0343 0.021829,0.009 0.059251,0.0249 0.04054,0.0125 0.077962,0.0343 0.04054,0.0218 0.068607,0.0499 0.031185,0.0249 0.031185,0.0592 v 0.22453 h 0.00936 l 0.087317,-0.0811 q -0.015592,-0.0125 -0.037422,-0.0437 -0.018711,-0.0343 -0.018711,-0.0499 v -0.009 q 0.00312,-0.006 0.00624,-0.0125 0.00624,-0.009 0.00936,-0.0156 0,0 0.00624,-0.003 0.00936,0 0.015592,0.0156 0.00936,0.0125 0.015592,0.0312 0.00936,0.0187 0.012474,0.0374 0.00312,0.0156 0.00312,0.0187 0,0.003 0.00312,0.003 h 0.00624 q 0.015592,0 0.018711,-0.0156 0.00312,-0.0156 0.00312,-0.0312 h 0.04054 q 0.012474,0.0624 0.024948,0.10603 0.015592,0.0405 0.015592,0.0967 0,0.0343 -0.00312,0.0561 -0.00312,0.0187 -0.012474,0.0343 -0.00624,0.0156 -0.018711,0.0343 -0.012474,0.0187 -0.034303,0.0468 0.00936,0.0156 0.024948,0.0187 0.018711,0.003 0.018711,0.0218 0,0.0187 -0.018711,0.0218 -0.018711,0.003 -0.043659,0.009 -0.021829,0.003 -0.04054,0.0187 -0.018711,0.0156 -0.018711,0.0561 0,0.0125 0.00624,0.0156 0.00936,0.003 0.018711,0.006 0.012474,0 0.018711,0.003 0.00936,0.003 0.00936,0.0156 0,0.003 -0.00312,0.006 -0.031185,0.009 -0.046777,0.0125 -0.012474,0.003 -0.024948,0.003 -0.00936,0 -0.021829,0 -0.012474,-0.003 -0.04054,-0.003 0,0.009 0.00312,0.0468 0.00624,0.0374 0.00624,0.0499 0,0.003 -0.00936,0.0156 -0.00624,0.009 -0.00624,0.0125 -0.00312,0.003 -0.00624,0.0218 -0.00312,0.0156 -0.00624,0.0218 0,-0.0156 -0.012474,-0.0405 -0.012474,-0.0249 -0.028066,-0.0312 -0.018711,-0.006 -0.024948,0.006 -0.00312,0.009 -0.00312,0.0218 0,0.0218 0.015592,0.0374 0.015592,0.0125 0.015592,0.0312 0,0.0218 -0.012474,0.0343 -0.012474,0.0125 -0.028066,0.0218 -0.015592,0.006 -0.031185,0.0156 -0.012474,0.009 -0.015592,0.0281 l -0.028066,-0.0561 v 0.0873 q -0.00624,0 -0.012474,0.003 -0.012474,0.006 -0.015592,0.006 H 7.026587 v -0.0842 H 7.004758 q 0,0.009 -0.00936,0.0312 -0.00936,0.0218 -0.024948,0.0468 -0.012474,0.0249 -0.028066,0.0437 -0.015592,0.0187 -0.031185,0.0187 -0.021829,0 -0.031185,-0.0156 -0.00624,-0.0156 -0.012474,-0.0405 H 6.86442 q -0.028066,0 -0.04054,0.009 -0.012474,0.009 -0.021829,0.0218 -0.00936,0.0125 -0.018711,0.0281 -0.00936,0.0125 -0.024948,0.0249 h -0.00312 q -0.015592,0 -0.018711,-0.0218 -0.00312,-0.0218 -0.00936,-0.0468 -0.00312,-0.0249 -0.015592,-0.0468 -0.00936,-0.0218 -0.04054,-0.0218 0,0.0125 0.00312,0.0343 0.00312,0.0218 0.00312,0.0499 0.00312,0.0249 0,0.0499 -0.00312,0.0249 -0.015592,0.0437 -0.012474,0 -0.012474,-0.0125 0,-0.006 0.00312,-0.0249 0.00624,-0.0156 0.00936,-0.0218 v -0.003 -0.006 q -0.00624,-0.0187 -0.015592,-0.0499 -0.00936,-0.0343 -0.015592,-0.0343 h -0.00936 q -0.00312,0 -0.037422,0.0343 -0.031185,0.0312 -0.049896,0.0499 -0.00936,0.0218 -0.018711,0.0343 -0.018711,0.0343 -0.024948,0.0343 -0.018711,0 -0.024948,-0.0156 -0.00312,-0.0125 -0.00936,-0.0281 -0.00312,-0.0156 -0.018711,-0.0281 -0.015592,-0.0156 -0.059251,-0.0156 z m 0.3929282,-0.0125 q -0.00936,0 -0.00936,0.0156 0,0.0156 0.00936,0.0156 0.012474,0 0.012474,-0.0156 0,-0.0156 -0.012474,-0.0156 z m -0.3586249,-0.106 q -0.031185,0 -0.037422,0.0249 -0.00312,0.0249 -0.00312,0.0499 v 0.0156 q 0.031185,0 0.034303,-0.0343 0.00624,-0.0343 0.00624,-0.0561 z m 0.1091467,0.053 q 0,0.006 0.00624,0.009 0.00624,0.003 0.00624,0.009 h 0.012474 q 0.04054,0 0.065488,-0.0312 0.024948,-0.0343 0.024948,-0.0717 -0.034303,0 -0.074843,0.0187 -0.04054,0.0156 -0.04054,0.0624 z m -0.2463597,0 0.012474,-0.0125 -0.012474,-0.0125 q 0,0 -0.00624,-0.003 -0.00312,0 -0.00312,0.003 0,0 -0.00312,0 h -0.00312 z m -0.2214119,-0.0967 h 0.012474 l -0.012474,-0.0156 z m 1.1600736,-0.14969 q -0.00624,0 -0.00624,0.0125 0,0.009 0.00624,0.009 0.012474,0 0.012474,-0.009 0,-0.0125 -0.012474,-0.0125 z m -0.053014,0 h 0.043659 q -0.00624,-0.0156 -0.015592,-0.0156 -0.00936,-0.003 -0.015592,-0.003 -0.00312,0 -0.00312,0.003 0,0 -0.00312,0 h -0.00624 z m 0.077962,-0.29937 q 0,0.003 0.00312,0.006 0.00312,0.006 0.00624,0.009 0.00624,0.006 0.00936,0.006 v -0.006 -0.009 q -0.00312,0 -0.00624,-0.006 -0.00312,-0.006 -0.00936,-0.006 0,0 -0.00312,0.006 z m -0.1060283,-0.0343 0.012474,-0.0125 h -0.012474 z m 0.012474,-0.10914 q -0.00312,0.003 -0.00624,0.0187 -0.00312,0.0156 -0.00624,0.0218 l -0.00312,0.0218 q 0.015592,0 0.021829,-0.0187 0.00936,-0.0218 0.00936,-0.0312 0,-0.0125 -0.015592,-0.0125 z m -0.012474,-0.0281 q -0.012474,0 -0.012474,0.0156 0,0.0125 0.012474,0.0125 0.00936,0 0.00936,-0.0125 0,-0.0156 -0.00936,-0.0156 z m 0.096673,0 q -0.012474,0 -0.012474,0.0156 0,0.0125 0.012474,0.0125 0.00936,0 0.00936,-0.0125 0,-0.0156 -0.00936,-0.0156 z m 0.137213,0.0125 h 0.015592 v -0.0125 h -0.015592 z m -0.2494782,-0.0405 q -0.00936,0 -0.00936,0.0156 0,0.0125 0.00936,0.0125 0.012474,0 0.012474,-0.0125 0,-0.0156 -0.012474,-0.0156 z m 0.087317,-0.0125 h 0.00936 v -0.0125 h -0.00936 z m -1.4937508,-0.0437 q -0.00624,0 -0.00624,0.009 0,0.006 0.00624,0.003 0.00624,0 0.00624,-0.003 0,-0.006 -0.00624,-0.009 z m 1.4344997,-0.009 h 0.015592 v -0.0156 h -0.015592 z m -1.3658932,-0.053 q 0,0.0374 0.028066,0.0374 h 0.012474 q 0.021829,-0.0312 0.04054,-0.0655 0.018711,-0.0343 0.018711,-0.0717 -0.00624,0 -0.021829,0.0156 -0.015592,0.0156 -0.034303,0.0343 -0.015592,0.0187 -0.031185,0.0343 -0.012474,0.0156 -0.012474,0.0156 z m 1.4095519,-0.0624 q -0.012474,0 -0.012474,0.0156 0,0.0125 0.012474,0.0125 0.012474,0 0.012474,-0.0125 0,-0.0156 -0.012474,-0.0156 z m 0,-0.0405 q -0.012474,0 -0.012474,0.0125 0,0.0125 0.012474,0.0125 0.012474,0 0.012474,-0.0125 0,-0.0125 -0.012474,-0.0125 z m -0.6673542,-0.0811 h 0.021829 q 0,-0.0125 -0.00624,-0.0249 -0.00312,-0.0125 -0.015592,-0.0187 z m -0.028066,-0.0842 q 0,0.003 0.00624,0.0125 0.00624,0.009 0.012474,0.0156 v -0.0405 h -0.018711 z m -0.00936,-0.0312 0.00936,-0.0125 h -0.00936 z m -0.3305586,-0.0125 h 0.00936 v -0.0561 h -0.00936 z m 0.056133,0 h 0.024948 q 0,-0.009 -0.00624,-0.0187 -0.00312,-0.009 -0.012474,-0.009 h -0.00624 z"
         style="font-style:normal;font-variant:normal;font-weight:normal;font-stretch:normal;font-size:2.82222px;font-family:Chalkduster;-inkscape-font-specification:'Chalkduster, Normal';font-variant-ligatures:normal;font-variant-caps:normal;font-variant-numeric:normal;font-feature-settings:normal;text-align:start;writing-mode:lr-tb;text-anchor:start;fill:#fcde3f;fill-opacity:1;stroke-width:0.264583"
         id="path1996"
         inkscape:connector-curvature="0" /><path
         d="m 8.3102203,290.81641 q -0.00312,-0.006 -0.00624,-0.0312 -0.00312,-0.0218 -0.00624,-0.0281 -0.00312,-0.0125 -0.015592,-0.0125 -0.012474,-0.003 -0.024948,-0.006 -0.012474,-0.003 -0.021829,-0.006 -0.00936,-0.006 -0.00624,-0.0218 -0.015592,0.0156 -0.034303,0.0312 -0.018711,0.0125 -0.034303,0.0249 v -0.0405 q -0.015592,0 -0.028066,0.0125 -0.00936,0.0125 -0.015592,0.0281 -0.00624,0.0156 -0.012474,0.0281 -0.00312,0.0125 -0.00624,0.0125 -0.018711,0 -0.018711,-0.0281 0,-0.0218 0.00936,-0.0374 0.012474,-0.0156 0.012474,-0.0405 0,-0.0499 -0.04054,-0.0499 -0.00312,0 -0.00624,0.003 -0.00312,0 -0.012474,0.009 -0.00624,0.009 -0.00936,0.0125 -0.00624,0 -0.037422,0 -0.028066,-0.003 -0.034303,0 -0.00312,0 -0.012474,0.0125 -0.00624,0.009 -0.00936,0.0125 l -0.043659,0.0218 -0.015592,-0.0218 h -0.00936 q -0.00624,0 -0.012474,0 -0.00312,-0.003 -0.00624,-0.003 -0.021829,0 -0.037422,0.009 -0.015592,0.006 -0.037422,0.006 -0.015592,0 -0.021829,-0.006 -0.00312,-0.006 -0.021829,-0.006 h -0.012474 q -0.00624,0.003 -0.021829,0.0218 -0.012474,0.0156 -0.015592,0.0218 -0.00312,-0.003 -0.00936,-0.0156 -0.00312,-0.0125 -0.00312,-0.0187 0.00312,-0.003 0.012474,-0.0218 0.00936,-0.0187 0.00936,-0.0249 l 0.00312,-0.009 q 0,-0.0249 -0.018711,-0.0249 -0.015592,0 -0.018711,0.0156 0,0.0125 0,0.0249 -0.021829,0 -0.018711,-0.0281 0.00624,-0.0281 0,-0.0343 -0.00312,-0.003 -0.012474,-0.003 -0.00936,-0.003 -0.021829,-0.003 -0.00936,-0.003 -0.018711,-0.006 -0.00624,-0.006 -0.00624,-0.0187 0,-0.0156 0.00312,-0.0249 0.00624,-0.0125 0.00624,-0.0249 v -0.0156 q 0,-0.003 -0.00936,-0.006 -0.00936,-0.003 -0.012474,-0.003 -0.021829,0 -0.028066,0.009 -0.00624,0.006 -0.00936,0.0156 -0.00312,0.009 -0.00936,0.0187 -0.00312,0.006 -0.021829,0.006 v -0.0249 q 0,-0.003 -0.00624,-0.0125 -0.00624,-0.009 -0.00624,-0.0125 0,-0.0125 0.012474,-0.0249 l 0.00936,-0.009 q 0.00312,-0.006 0,-0.0187 -0.00312,-0.0156 -0.00312,-0.0218 -0.00624,0 -0.015592,0.006 -0.00936,0.003 -0.015592,0.003 0,-0.003 -0.00936,-0.0156 -0.00936,-0.0125 -0.012474,-0.0125 h -0.012474 -0.012474 q -0.00312,0.003 -0.00936,0.0125 -0.00312,0.009 0,0.0156 0.00312,0.0156 0.012474,0.0187 0.00936,0.003 0.018711,0.003 0.012474,0 0.018711,0.003 0.00624,0 0.00624,0.0156 h -0.077917 q 0,-0.0343 -0.00936,-0.0499 -0.00936,-0.0187 -0.021829,-0.0281 -0.012474,-0.009 -0.021829,-0.0156 -0.00936,-0.009 -0.00936,-0.0249 v -0.006 q 0.00312,0 0.00624,-0.003 0.00624,-0.006 0.00936,-0.006 v -0.009 q 0,-0.0156 -0.015592,-0.0218 -0.012474,-0.006 -0.012474,-0.0218 0,-0.006 0,-0.009 0.00312,-0.006 0.00312,-0.009 0,-0.003 0.00312,-0.009 0.00624,-0.009 0.00624,-0.0125 0,-0.006 -0.015592,-0.0125 -0.015592,-0.009 -0.015592,-0.0156 -0.00312,0 -0.00312,-0.003 v -0.006 q 0,-0.0218 0.015592,-0.0281 0.015592,-0.009 0.034303,-0.0125 0.021829,-0.003 0.04054,-0.006 0.021829,-0.006 0.028066,-0.0218 -0.00624,-0.0156 -0.021829,-0.0156 -0.00312,0 -0.00624,0.003 0,0 -0.00312,0 h -0.00312 q -0.00312,0 -0.018711,0.0125 -0.012474,0.009 -0.015592,0.009 h -0.00936 -0.00624 l -0.00936,-0.009 q -0.00312,0 -0.012474,0.003 -0.00936,0.003 -0.00936,0.006 -0.00312,-0.003 -0.00312,-0.0125 0,-0.0125 0,-0.0156 0,-0.0187 0.012474,-0.0374 0.012474,-0.0218 0.028066,-0.0405 0.018711,-0.0187 0.031185,-0.0343 0.012474,-0.0156 0.012474,-0.0249 0,-0.0249 -0.012474,-0.0405 -0.012474,-0.0187 -0.012474,-0.0405 0,-0.0249 0.018711,-0.0437 0.021829,-0.0218 0.028066,-0.0561 v -0.0468 q 0.00312,-0.009 0.00936,-0.009 0.00624,0 0.012474,-0.003 0.00936,-0.003 0.012474,-0.0125 0.00624,-0.009 0.00624,-0.0343 h 0.021829 v 0.0593 q 0.00624,-0.006 0.018711,-0.0187 0.015592,-0.0125 0.021829,-0.0125 0,0 0.012474,0.003 0.012474,0.003 0.024948,0.009 0.015592,0.006 0.028066,0.0125 0.012474,0.006 0.015592,0.006 0.00312,0 0.00624,-0.003 l 0.00312,-0.003 q 0.00312,-0.003 0.00312,-0.006 -0.012474,-0.009 -0.037422,-0.0281 -0.021829,-0.0218 -0.043659,-0.0218 v -0.0405 q 0.00624,0.003 0.012474,0.006 0.00936,0.003 0.012474,0.006 h 0.00624 0.00624 q 0,-0.003 0.00312,-0.0125 0.00624,-0.009 0.00624,-0.0125 h 0.00624 0.00624 q 0,0.0187 0.00624,0.0405 0.00936,0.0187 0.031185,0.0312 0.00312,0 0.00936,-0.003 0.00936,-0.003 0.012474,-0.003 v -0.10291 q -0.00936,-0.003 -0.04054,-0.0218 -0.031185,-0.0218 -0.031185,-0.0281 v -0.006 q 0.015592,-0.0312 0.028066,-0.0499 0.015592,-0.0187 0.056133,-0.0187 h 0.018711 q 0.00624,0.003 0.00936,0.0125 0.00312,0.006 0.00312,0.009 0.00624,-0.003 0.015592,-0.0218 0.012474,-0.0218 0.024948,-0.0437 0.012474,-0.0249 0.024948,-0.0405 0.012474,-0.0187 0.021829,-0.0187 0,0.003 -0.00312,0.0312 0,0.0249 -0.00312,0.0561 0,0.0281 -0.00312,0.0561 0,0.0249 0,0.0281 0,0.006 -0.015592,0 -0.012474,-0.009 -0.015592,-0.009 -0.00624,0.006 -0.012474,0.0187 -0.00624,0.0125 -0.00936,0.0156 -0.00624,0.006 0,0.009 0,0.003 0.00312,0.006 h 0.065488 q 0,0.003 -0.00624,0.009 -0.00312,0.006 -0.00624,0.006 -0.00624,0.006 0.00312,0.0125 0.00936,0.003 -0.00312,0.003 l 0.04054,0.009 v -0.0187 -0.0748 h 0.04054 l 0.031185,0.0187 q 0.012474,0.006 0.021829,0.0156 0.00936,0.006 0.00936,0.003 -0.00312,-0.003 -0.012474,-0.0125 -0.00936,-0.0125 -0.021829,-0.0249 -0.00936,-0.0156 -0.018711,-0.0249 -0.00936,-0.0125 -0.012474,-0.0125 0.00312,-0.0125 0.012474,-0.006 0.00936,0.006 0.015592,0.0125 0.00936,0.003 0.015592,-0.003 0.00624,-0.006 0.00624,-0.0405 0,-0.0218 -0.00936,-0.0374 -0.00624,-0.0156 -0.00624,-0.0468 0,-0.003 0.018711,0.006 0.021829,0.006 0.021829,0.003 0.00312,0.003 0.00936,0.006 0.00936,0.003 0.012474,0.006 h 0.00624 0.00312 q 0.00624,-0.003 0.00624,-0.0125 0.00312,-0.009 0.00624,-0.009 0.00312,-0.003 0.024948,-0.0218 0.024948,-0.0218 0.037422,-0.0249 0.015592,-0.003 0.028066,-0.009 0.012474,-0.003 0.018711,-0.006 0.00936,-0.003 0.012474,-0.003 0.00312,0 0.012474,0.003 0.018711,0.006 0.031185,0.006 0.018711,0.006 0.043659,0.009 0.00312,0 -0.00312,0.009 -0.00624,0.006 -0.015592,0.0156 -0.00624,0.009 -0.012474,0.0156 -0.00624,0.006 -0.00312,0.006 0.021829,0 0.037422,-0.0125 0.018711,-0.0125 0.028066,-0.0281 0.012474,-0.0156 0.021829,-0.0281 0.012474,-0.0125 0.028066,-0.0125 0.00936,0 0.018711,0.0125 0.012474,0.009 0.024948,0.0249 0.012474,0.0125 0.024948,0.0249 0.012474,0.009 0.021829,0.009 0.00312,0 0.00624,-0.003 0.00312,-0.006 0.00624,-0.0187 0.00624,-0.0125 0.00624,-0.0187 0,-0.006 -0.00624,-0.006 -0.00624,-0.003 -0.015592,-0.003 -0.00624,-0.003 -0.012474,-0.006 -0.00624,-0.006 -0.00624,-0.0218 0,-0.009 0.012474,-0.009 0.015592,0 0.028066,0.003 0.015592,0.003 0.021829,0.006 0.00624,0.003 -0.00936,-0.003 l 0.065488,0.0655 q 0.00312,0.006 0.00936,0 0.00936,-0.006 0.012474,-0.0125 0.00312,-0.006 0.00624,-0.0187 0.00312,-0.0125 0.00312,-0.0156 h 0.015592 q 0.00624,0.003 0.028066,0.006 0.024948,0.003 0.031185,0.006 0,0.006 0.00312,0.0343 0.00312,0.0281 0.00624,0.0343 0,0.003 0.00312,0.006 0.00624,0.003 0.00936,0.006 0.00312,-0.003 0.00624,-0.009 0.00624,-0.009 0.00624,-0.0125 v -0.1185 l 0.00936,0.0125 0.037422,0.16217 0.068606,-0.0561 0.00312,-0.006 q 0,-0.0156 -0.021829,-0.0156 -0.021829,0 -0.028066,-0.0156 0.00312,-0.0156 0.024948,-0.0125 0.024948,0 0.028066,0 h 0.028066 q 0.00312,0.003 0.00936,0.0218 0.00936,0.0156 0.012474,0.0281 v 0.003 q 0,0.0156 -0.012474,0.0312 -0.00936,0.0125 -0.021829,0.0218 0.012474,-0.009 0.018711,-0.003 0.00624,0.003 0.00936,0.0125 0.00624,0.009 0.00936,0.0187 0.00312,0.009 0.00936,0.009 0.00312,0 0.012474,-0.003 0.012474,-0.006 0.012474,-0.009 -0.00624,0.006 -0.00312,0.0125 0.00624,0.003 0.015592,0.009 0.012474,0.006 0.021829,0.0125 0.00936,0.003 0.012474,0.009 0,0.006 0.00312,0.0312 0.00624,0.0218 0.00624,0.0281 v 0.0936 q 0,0.0156 0.00624,0.0187 0.00936,0.003 0.018711,0.006 0.00936,0.003 0.018711,0.006 0.00936,0.003 0.015592,0.0125 0,0.003 -0.00624,0.009 -0.00312,0.003 -0.00624,0.006 h -0.00312 -0.00624 q -0.015592,-0.006 -0.049896,-0.0218 -0.034303,-0.0187 -0.043659,-0.0249 -0.015592,0.003 -0.018711,0.0187 0,0.0125 0,0.0218 -0.021829,0 -0.046777,-0.0125 -0.024948,-0.0125 -0.04054,-0.0281 0.015592,-0.006 0.015592,-0.0187 0,-0.0125 0,-0.0187 0,-0.006 -0.00312,-0.0125 0,-0.009 0,-0.0125 0,-0.003 -0.015592,-0.0125 -0.015592,-0.0125 -0.021829,-0.0187 h -0.00312 q -0.024948,0 -0.04054,0.0156 -0.015592,0.0156 -0.034303,0.0312 l -0.00624,0.003 q -0.00312,0 -0.00624,-0.003 -0.00312,-0.003 -0.012474,-0.0125 -0.00624,-0.0125 -0.00936,-0.0125 -0.00624,-0.003 -0.031185,0 -0.021829,0 -0.028066,0 -0.00312,-0.003 -0.012474,-0.0125 -0.00936,-0.009 -0.012474,-0.009 h -0.00312 q -0.00936,0 -0.018711,0.0125 -0.00936,0.009 -0.021829,0.0249 -0.00936,0.0125 -0.021829,0.0281 -0.00936,0.0125 -0.024948,0.0156 -0.00624,0 -0.028066,0.006 -0.021829,0.003 -0.049896,0.006 -0.024948,0.003 -0.046777,0.006 -0.021829,0.003 -0.028066,0.003 -0.00312,0 -0.021829,0.006 -0.018711,0.006 -0.021829,0.006 h -0.08108 q -0.00624,0.0156 -0.015592,0.0218 -0.00624,0.003 -0.021829,0.003 -0.024948,0 -0.024948,-0.0187 0,-0.0187 -0.024948,-0.0187 -0.015592,0 -0.021829,0.006 -0.00624,0.006 -0.021829,0.006 -0.015592,0 -0.021829,-0.009 -0.00624,-0.009 -0.021829,-0.009 0,0.0312 0.00624,0.0468 0.00936,0.0156 0.024948,0.0405 0.00312,0.003 0.00312,0.006 0.00312,0.003 0.00624,0.006 0.00312,0.006 0.00312,0.009 0,0.0156 -0.012474,0.0249 -0.00936,0.009 -0.024948,0.0156 -0.015592,0.003 -0.031185,0.006 -0.012474,0.003 -0.021829,0.003 l -0.00312,0.009 q 0,0.009 0.00312,0.0187 0.00624,0.006 0.024948,0.003 -0.015592,0.0343 -0.031185,0.053 -0.012474,0.0187 -0.018711,0.053 v 0.0686 q 0,0.009 -0.00624,0.0343 -0.00624,0.0218 -0.012474,0.0468 -0.00312,0.0249 -0.00936,0.0437 -0.00624,0.0156 -0.00624,0.0156 l -0.08108,-0.0593 q -0.00312,-0.003 -0.00624,0.003 -0.00312,0.006 -0.00312,0.009 0,0.003 0.00312,0.0187 0.00624,0.0156 0.00624,0.0187 v 0.006 0.006 q 0,0.003 -0.00624,0.0218 -0.00312,0.0156 -0.00312,0.0187 0,0.006 0.00936,0.0218 0.00936,0.0156 0.012474,0.0156 v 0.006 q 0,0.003 -0.00312,0.003 0.021829,0 0.037422,-0.009 0.015592,-0.009 0.04054,-0.009 h 0.018711 l -0.021829,0.0561 h 0.021829 v 0.0624 q 0.034303,0 0.031185,0.003 -0.00312,0.003 -0.00312,0.0374 h 0.015592 q 0.00624,0 0.028066,0.0249 0.021829,0.0218 0.031185,0.0343 0.00312,0.003 0.00936,0.0187 0.00936,0.0156 0.012474,0.0156 0.00624,0.003 0.028066,0.003 0.024948,-0.003 0.031185,-0.003 0.00312,0 0.015592,0.0125 0.015592,0.0125 0.018711,0.0125 0.00312,0.003 0.021829,0.003 0.021829,-0.003 0.024948,-0.003 0.00624,0.003 0.031185,0.009 0.024948,0.003 0.028066,0.003 0.012474,0 0.046777,0 0.034303,0 0.071725,0.003 0.037422,0 0.071725,0 0.034303,0 0.046777,0 v 0.0405 q 0.024948,-0.006 0.024948,-0.0312 0.00312,-0.0249 0.028066,-0.0405 0.053014,-0.0249 0.1029098,-0.0312 0.049896,-0.006 0.1029097,-0.0218 0.00624,-0.003 0.024948,-0.0125 0.021829,-0.009 0.024948,-0.009 h 0.00624 q 0.00312,0 0.00312,0 0.00312,-0.003 0.00624,-0.003 0,0.003 0.00312,0.003 h 0.00624 0.00936 q 0.00312,0.003 0.00936,0.006 0.00624,0.003 0.012474,0.003 h 0.046777 q 0.012474,0.003 0.037422,0.0156 0.028066,0.0125 0.034303,0.0156 0.00624,0.006 0.012474,0.0312 0.00936,0.0249 0.00936,0.0312 h 0.015592 q -0.00312,0.003 -0.00312,0.006 0,0.003 -0.00312,0.003 0,0.003 -0.00936,0.0125 -0.00936,0.006 -0.012474,0.009 0,0.003 0,0.0125 0.00312,0.009 0,0.0125 -0.00624,0.0156 -0.024948,0.0249 -0.015592,0.009 -0.031185,0.009 l -0.00312,-0.003 q 0,-0.003 0.00312,-0.006 0.00312,-0.003 0.015592,-0.0187 0.012474,-0.0156 0.018711,-0.0187 v -0.0125 q 0,-0.0187 -0.024948,-0.0312 -0.012474,0.006 -0.015592,0.0218 -0.00312,0.0125 -0.00624,0.0218 -0.00936,0.003 -0.046777,0.006 -0.037422,0.003 -0.046777,0.006 -0.00624,0 -0.018711,0.006 -0.012474,0.006 -0.015592,0.006 v 0.0218 q 0,0.0156 0.00312,0.0281 0.00312,0.0125 0.018711,0.0187 -0.00624,-0.003 -0.024948,0.003 -0.015592,0.003 -0.021829,0.009 -0.00312,0 0,0.0218 0.00312,0.0187 0,0.0218 -0.00624,0.0156 -0.028066,0.0218 -0.021829,0.006 -0.021829,0.0405 h -0.00312 q 0,-0.009 -0.00624,-0.0312 -0.00312,-0.0249 -0.00624,-0.0312 -0.015592,0 -0.024948,-0.009 -0.00312,0 -0.00936,0.003 -0.00312,0 -0.00624,0 l 0.00312,0.006 q -0.00312,0.006 -0.00624,0.0249 -0.00312,0.0156 -0.00624,0.0218 h -0.00936 q -0.00312,0.003 -0.024948,0.0125 -0.018711,0.0125 -0.024948,0.0125 -0.00312,0.003 -0.015592,0 -0.012474,0 -0.018711,0 -0.00312,0.003 -0.028066,0.0125 -0.024948,0.009 -0.031185,0.009 -0.00312,0.003 -0.00624,0.003 h -0.00624 q -0.021829,0 -0.04054,-0.009 -0.015592,-0.006 -0.037422,-0.003 z m 0.024948,-0.0218 q 0.024948,0 0.046777,-0.009 0.021829,-0.009 0.046777,-0.009 0,-0.003 -0.00312,-0.0156 -0.00312,-0.0156 -0.00936,-0.0312 -0.00312,-0.0156 -0.00936,-0.0281 -0.00624,-0.0156 -0.00936,-0.0156 l -0.00624,0.003 q 0,0 -0.00624,0.0125 -0.00312,0.006 -0.00312,0.009 -0.00312,0.003 -0.00624,0.009 -0.00312,0.003 -0.00624,0.003 -0.00624,0.003 -0.018711,0.006 -0.00936,0.003 -0.015592,0.003 z m 0.1590423,-0.0499 q -0.00312,-0.003 -0.00312,0.0125 0,0.0156 0.00312,0.009 0.00624,-0.003 0.00624,-0.009 0,-0.009 -0.00624,-0.0125 z m 0.1746348,-0.2183 q -0.00312,0 -0.00936,0.0187 -0.00624,0.0156 -0.012474,0.0249 0,0.006 -0.00312,0.0156 0,0.006 0,0.009 0.024948,0 0.021829,-0.0125 -0.00312,-0.0156 0.00312,-0.0343 l 0.012474,-0.009 q 0,-0.003 0,-0.006 0.00312,-0.003 0.00312,-0.006 z m -0.985439,0.0343 q -0.00312,0 -0.00624,0.006 -0.00312,0.003 -0.00624,0.003 v 0.006 0.006 q 0.00312,-0.003 0.00624,-0.006 0.00624,-0.003 0.00624,-0.006 v -0.003 z m 1.116415,-0.0842 q -0.00936,0 -0.00936,0.0125 0,0.0125 0.00936,0.0125 0.00624,0 0.00624,-0.0125 0,-0.0125 -0.00624,-0.0125 z m -1.2193247,-0.0187 q -0.00936,0 -0.00936,0.009 0,0.009 0.00936,0.009 0.00624,0 0.00624,-0.009 0,-0.009 -0.00624,-0.009 z m -0.046777,-0.14345 q 0.00312,-0.003 -0.00624,-0.003 -0.00624,0 -0.00624,0.003 0,0.006 0.00624,0.006 0.00624,0 0.00624,-0.006 z m -0.046777,-0.0936 q -0.018711,0 -0.021829,0.0125 h 0.00312 0.00624 q 0.012474,0 0.024948,-0.0125 z m -0.137213,-0.0312 q -0.012474,0 -0.012474,0.0125 0,0.009 0.012474,0.009 0.00936,0 0.00936,-0.009 0,-0.0125 -0.00936,-0.0125 z m 0.068606,0.003 q 0.015592,0 0.021829,-0.0125 h -0.021829 z m 0.1621609,-0.0842 q -0.015592,0 -0.034303,0.0187 -0.015592,0.0156 -0.015592,0.0312 0.015592,0 0.043659,-0.006 0.028066,-0.006 0.028066,-0.0281 v -0.006 q -0.00936,-0.009 -0.021829,-0.009 z m -0.2307674,-0.0218 q -0.00624,-0.003 -0.00624,0.006 0,0.006 0.00624,0.003 0.00624,0 0.00624,-0.003 0,-0.006 -0.00624,-0.006 z m 0.3087293,-0.13722 q 0,0.003 0,0.009 0.00312,0.006 0.00312,0.009 0,0.003 0.00936,0.0125 0.00936,0.009 0.012474,0.0125 0.00312,0.003 0.00936,0.0218 0.00936,0.0187 0.015592,0.0218 0.00312,0.003 0.012474,0.006 0.00936,0.003 0.00936,0.006 0.00312,0 0.00624,0.0125 0.00624,0.009 0.00624,0.0125 0.018711,-0.003 0.024948,-0.0156 0.00936,-0.0156 0.00936,-0.0312 0,-0.0281 -0.012474,-0.0655 -0.00936,-0.0405 -0.046777,-0.0405 -0.021829,0 -0.04054,0.003 -0.018711,0.003 -0.018711,0.0249 z m -0.056133,0.078 h 0.015592 v -0.0125 h -0.015592 z m -0.056133,-0.0249 q 0.00312,0 0.00624,-0.006 0.00624,-0.009 0.00624,-0.0156 0,-0.0125 -0.012474,-0.0125 z m 0.056133,-0.0343 q -0.00936,0 -0.00936,0.0125 0,0.0125 0.00936,0.0125 0.012474,0 0.012474,-0.0125 0,-0.0125 -0.012474,-0.0125 z m 0.1590424,-0.10603 q 0,0.006 0.00312,0.0187 0.00312,0.0125 0.012474,0.0187 0.00936,-0.006 0.012474,-0.0187 0.00624,-0.0125 0.00624,-0.0187 z m -0.2619521,0.0125 h 0.00936 v -0.0218 h -0.00936 z m 0.1528054,-0.0343 q 0,0.006 -0.00624,0.0187 -0.00312,0.0125 -0.00624,0.0156 h 0.00624 0.00624 q 0,-0.003 0.00312,-0.006 0.00624,-0.003 0.00624,-0.006 0,-0.006 0,-0.0281 0.00312,-0.0218 0.00312,-0.0281 -0.00936,0 -0.018711,0.003 -0.00936,0.003 -0.00936,0.0156 l 0.00312,0.006 z m -0.1590424,-0.078 q 0,0.0156 0.00312,0.0312 0.00624,0.0156 0.024948,0.0156 0.00624,0 0.015592,0 0.00936,-0.003 0.00936,-0.0156 0,-0.0218 -0.018711,-0.0249 -0.018711,-0.006 -0.034303,-0.006 z m 0.1683978,-0.003 q -0.00312,-0.006 -0.00936,0.003 -0.00624,0.006 0,0.006 0.00312,0.006 0.00624,0.003 0.00624,-0.006 0.00312,-0.0125 z m 0.068606,-0.0904 -0.00936,0.009 h 0.034303 q -0.00312,0 -0.00624,-0.003 l -0.00624,-0.006 q 0,0 -0.00624,-0.003 z m 0.4740086,0 v -0.0125 h -0.00936 z m 0.5363781,-0.0249 q 0,-0.006 -0.00624,-0.006 -0.00624,0 -0.00624,0.006 0.00312,0.006 0.00624,0.006 0.00624,0 0.00624,-0.006 z m -0.4864825,-0.009 q 0.012474,-0.009 0.012474,-0.0281 h -0.012474 z m -0.093554,-0.0125 0.012474,-0.0156 h -0.012473 z m -0.059251,-0.17463 q 0,0.003 -0.00624,0.0125 -0.00312,0.006 -0.00312,0.0125 -0.00312,0.0156 -0.00936,0.0686 -0.00312,0.0499 -0.00312,0.0655 h 0.012474 q 0.012474,-0.0281 0.021829,-0.053 0.012474,-0.0249 0.012474,-0.0593 0,-0.0156 -0.00312,-0.0281 0,-0.0125 -0.021829,-0.0187 z m 0.2681891,0.10291 q 0,0.0187 0.00624,0.0312 0.00624,0.009 0.015592,0.025 0.00936,0 0.00936,-0.009 0.00312,-0.006 0.00312,-0.0343 0.00312,-0.0281 0.00312,-0.0374 -0.012474,0 -0.024948,0.006 -0.012474,0.003 -0.012474,0.0187 z m -0.021829,0.0343 q -0.00936,0 -0.00936,0.0125 0,0.009 0.00936,0.009 0.00936,0 0.00936,-0.009 0,-0.0125 -0.00936,-0.0125 z m -0.2120565,-0.0218 q 0,0.003 0.00312,0.006 0.00624,0.003 0.00936,0.006 h 0.00936 0.00312 q 0.00312,-0.006 0.00624,-0.0187 0.00312,-0.0156 0.00624,-0.0156 0.00624,-0.006 0.028066,-0.0156 0.021829,-0.009 0.028066,-0.0125 v -0.003 -0.006 q -0.00624,-0.006 -0.018711,-0.0156 -0.00936,-0.0125 -0.015592,-0.0156 -0.00936,0.0218 -0.034303,0.0437 -0.024948,0.0218 -0.024948,0.0468 z m 0.5956292,-0.0249 q -0.024948,0 -0.024948,0.0312 v 0.006 q 0.024948,-0.0156 0.024948,-0.0374 z m -0.5363781,0.0125 q -0.00936,0 -0.00936,0.0125 0,0.0125 0.00936,0.0125 0.00624,0 0.00624,-0.0125 0,-0.0125 -0.00624,-0.0125 z m -0.567563,-0.009 h 0.012474 v -0.0156 z m 0.3492695,-0.009 q 0.024948,0 0.024948,-0.0281 H 7.976543 Z m 0.4365869,-0.14345 q -0.00312,0.003 -0.00624,0.0125 -0.00312,0.009 -0.00624,0.0125 -0.00624,0.003 -0.00936,0.009 -0.00624,0.006 -0.00624,0.009 l -0.00312,0.003 q -0.00312,0.009 -0.00936,0.0374 -0.00312,0.0249 -0.00312,0.0312 h 0.00624 0.00624 l 0.00312,-0.003 q 0,-0.003 0.00624,-0.009 0.00312,-0.006 0.00936,-0.009 0.00624,-0.003 0.024948,-0.006 0.021829,-0.003 0.024948,-0.003 0.00624,-0.003 0.018711,-0.006 0.012474,-0.003 0.015592,-0.006 -0.015592,-0.0156 -0.031185,-0.0343 -0.015592,-0.0218 -0.024948,-0.0374 h -0.00936 z m -0.2775445,0.0281 q 0,0.0343 0.024948,0.0561 0.015592,-0.0125 0.021829,-0.0374 l 0.046777,0.0249 q 0.00936,0 0.00936,-0.0125 0,-0.0187 -0.00936,-0.0374 -0.00936,-0.0218 -0.024948,-0.0218 -0.021829,0 -0.046777,0.003 -0.021829,0 -0.021829,0.0249 z m 0.1340945,0.0125 q -0.00312,0.003 -0.00312,0.006 -0.00312,0 -0.00312,0.003 v 0.006 l 0.00312,0.003 0.00936,-0.0125 0.00312,-0.006 q 0,-0.003 -0.00312,-0.006 z m -0.2370043,-0.006 q 0,0.0125 0.00936,0.0125 0.00624,0 0.015592,-0.003 0.00936,-0.006 0.012474,-0.009 z m 0.3149663,-0.009 q -0.012474,0.003 -0.012474,0.0218 h 0.012474 z m 0.1465684,0.0218 h 0.012474 l -0.012474,-0.0125 z m 0.2120565,-0.0218 q -0.00936,0 -0.00936,0.0125 0,0.009 0.00936,0.009 0.00624,0 0.00624,-0.009 0,-0.0125 -0.00624,-0.0125 z m -0.4303499,-0.0343 q 0.00312,-0.006 -0.00624,-0.006 -0.00624,0 -0.00312,0.006 0,0.006 0.00312,0.006 0.00624,0 0.00624,-0.006 z m 0.2307673,-0.0249 h 0.015592 v -0.025 z"
         style="font-style:normal;font-variant:normal;font-weight:normal;font-stretch:normal;font-size:2.82222px;font-family:Chalkduster;-inkscape-font-specification:'Chalkduster, Normal';font-variant-ligatures:normal;font-variant-caps:normal;font-variant-numeric:normal;font-feature-settings:normal;text-align:start;writing-mode:lr-tb;text-anchor:start;fill:#3f5afc;fill-opacity:1;stroke-width:0.264583"
         id="path1998"
         inkscape:connector-curvature="0" /><path
         d="m 9.2525352,290.77275 q -0.0031,0.006 -0.01247,0.0156 -0.0094,0.009 -0.01559,0.0125 -0.0031,0 -0.0062,0.003 -0.0031,0.003 -0.0062,0.003 0,-0.006 -0.0031,-0.0312 -0.0031,-0.0249 -0.0062,-0.0312 -0.0031,0 -0.01559,-0.006 -0.0094,-0.006 -0.01247,-0.006 0,-0.006 0.0031,-0.0156 0.0031,-0.009 0,-0.0125 0,-0.003 -0.01247,-0.009 -0.01247,-0.006 -0.01247,-0.009 -0.0031,-0.003 0,-0.0249 0.0031,-0.0218 0.0031,-0.0281 0,-0.003 -0.0062,-0.009 -0.0062,-0.009 -0.0062,-0.0156 0,-0.003 -0.01247,-0.0125 -0.01247,-0.009 -0.01247,-0.0125 v -0.0218 -0.009 q 0,-0.006 0,-0.006 0.0031,-0.003 0.0031,-0.006 0.0062,0.006 0.01871,0.0156 0.01247,0.009 0.01871,0.0125 l 0.0062,0.003 h 0.0094 l 0.01247,-0.006 q 0.0062,-0.003 0.0094,-0.003 0.0031,0 0.0062,-0.003 h 0.0094 q 0.0031,-0.003 0.01247,-0.006 0.01247,-0.003 0.01559,-0.006 0.0031,0.006 0.0062,0.0156 0.0031,0.009 0.0062,0.0125 h 0.0062 0.0031 q 0.0062,0 0.01559,0 0.01247,-0.003 0.01559,-0.009 0,0.006 0.0031,0.0156 0.0062,0.006 0.0094,0.0125 0.0031,0.006 0.0031,0.0468 0,0.0374 0.0031,0.0436 0.0031,0.003 0.0062,0.0156 0.0031,0.009 0.0062,0.0156 0.0094,0.009 0.01559,0.009 0,-0.006 0,-0.0343 0.0031,-0.0312 0.0031,-0.0437 0,-0.003 0.0031,-0.0125 0.0062,-0.009 0.0094,-0.0125 0,-0.003 0.0062,-0.0187 0.0094,-0.0187 0.0094,-0.0218 h 0.0062 q 0.0031,0.003 0.0062,0.003 0.0062,0 0.03118,0.009 0.02807,0.006 0.0343,0.009 h 0.01247 0.0031 q 0,-0.003 0.0031,-0.009 0.0062,-0.006 0.0094,-0.006 h 0.0062 q 0.0031,0 0.0062,0.003 0.0062,0 0.01559,0.0156 0,0.003 0.0031,0.0125 0.0062,0.009 0.0062,0.0125 0.0031,-0.003 0.01247,-0.0125 0.01247,-0.0125 0.01559,-0.0125 h 0.0094 l 0.0062,0.003 q 0.0031,0 0.01247,0.006 0.0094,0.003 0.01559,0.003 h 0.0031 0.0062 l 0.03119,-0.0499 q -0.0031,0.003 0,0.009 0.0062,0.003 0.0094,0.006 l 0.0062,0.003 h 0.0062 q 0.0031,0 0.0031,-0.003 0.01247,-0.003 0.05301,-0.0187 0.04366,-0.0187 0.05613,-0.0249 0.0062,0.003 0.01871,0.009 0.01559,0.003 0.02183,0.003 l 0.0062,0.006 q 0.0062,0.006 0.0062,0.006 0.0031,0 0.0062,-0.003 0.0062,-0.006 0.0062,-0.006 l 0.0062,-0.0125 q 0.0031,-0.006 0.0031,-0.009 0,-0.003 0.0031,-0.006 0.0031,0 0.0094,-0.003 0.0062,-0.006 0.0094,-0.009 0.0062,0 0.02495,-0.003 0.01871,-0.006 0.02495,-0.006 0.0031,-0.003 0.01247,-0.006 0.012469,-0.003 0.015589,-0.006 0.0031,0 0.01871,-0.003 0.01871,-0.006 0.02183,-0.006 0.0094,0 0.01559,-0.003 0.0062,-0.003 0.0094,-0.006 0.0062,-0.006 0.01559,-0.0218 0.01247,-0.0156 0.01559,-0.0187 0.0094,-0.009 0.04054,-0.0374 0.0343,-0.0312 0.04678,-0.0405 l 0.02183,-0.009 q 0.0031,0 0.0062,-0.003 0.0062,-0.006 0.0094,-0.006 0.0062,-0.009 0.02183,-0.0281 0.01871,-0.0218 0.02495,-0.0281 0,-0.006 0.0031,-0.009 0.0062,-0.006 0.0062,-0.009 0.0062,-0.006 0.0094,-0.0187 0.0031,-0.0125 0.0094,-0.025 0.0062,-0.0125 0.01247,-0.0249 0.0031,-0.006 0,-0.0187 -0.0031,-0.0156 -0.0031,-0.0218 -0.0031,0 -0.0031,0 0.0031,-0.003 0,-0.003 -0.0062,0.003 -0.01871,0.0125 -0.0094,0.006 -0.0094,0.003 -0.0094,-0.006 -0.02183,-0.0218 -0.01247,-0.0156 -0.01871,-0.0218 l -0.02495,0.0218 q -0.0062,0 -0.02183,-0.0156 -0.01247,-0.0156 -0.01871,-0.0187 -0.0031,-0.006 -0.0062,-0.0156 -0.0031,-0.0125 -0.0031,-0.0156 0.0031,0 0.01247,-0.003 0.0094,-0.003 0.01247,-0.009 l 0.0031,-0.009 q -0.0031,0 -0.0031,-0.003 v -0.006 -0.006 q 0,-0.006 -0.0062,-0.0312 -0.0031,-0.0125 -0.0031,-0.0218 l -0.02495,-0.003 q 0.0031,-0.006 0,-0.0249 0,-0.0218 0,-0.0281 0.0031,-0.009 -0.0031,-0.0405 -0.0031,-0.0312 -0.0031,-0.0405 0,0 -0.0062,-0.003 l -0.0062,0.003 q -0.0094,0.009 -0.01559,0.009 -0.0062,0.009 -0.0094,0.0343 -0.0031,0.025 -0.0094,0.0343 0,0.009 -0.0031,0.0468 0,0.0343 0,0.0468 l -0.01247,0.0125 q -0.0062,-0.006 -0.01559,-0.0281 -0.0094,-0.0218 -0.0094,-0.0281 0,-0.003 -0.0062,-0.009 -0.0031,-0.006 -0.0062,-0.006 0,0.003 -0.0062,0.0156 -0.0062,0.009 -0.0094,0.0125 -0.0031,0.006 -0.0094,0.0281 -0.0062,0.0187 -0.0062,0.0249 -0.0062,-0.003 -0.02183,-0.0187 -0.01247,-0.0187 -0.01247,-0.0249 -0.0062,-0.009 0.0031,-0.0374 0.0094,-0.0281 0.0094,-0.0374 -0.0031,0 -0.01247,-0.003 -0.0062,-0.003 -0.01247,0 -0.0062,0.003 -0.02183,0.0187 -0.01559,0.0125 -0.01871,0.0156 l -0.01247,0.006 q -0.0031,0.003 -0.0062,0.003 0,0 -0.0031,0.003 l -0.0031,0.003 q -0.0062,0.003 -0.01871,0.0218 -0.0094,0.0187 -0.01559,0.0281 v 0.006 l -0.0031,0.006 q 0.0031,0.003 0.0094,0.0281 0.0062,0.0218 0.0031,0.0281 0.0031,0 0.0031,0.009 0.0031,0.009 0.0031,0.0125 h -0.03742 q 0,-0.003 -0.0031,-0.0125 -0.0031,-0.0125 -0.0062,-0.0125 0,-0.006 -0.0062,-0.0125 -0.0062,-0.006 -0.0094,-0.006 l -0.0031,0.0405 q -0.0062,0 -0.01871,-0.003 -0.0094,-0.006 -0.01559,-0.0125 -0.0031,0 -0.0062,-0.003 -0.0031,-0.006 -0.0062,-0.006 0.0031,-0.006 -0.0031,-0.0218 -0.0031,-0.0156 -0.0062,-0.0218 -0.0031,-0.003 -0.01871,-0.0249 -0.01247,-0.0218 -0.01871,-0.0312 l -0.01247,-0.0125 h -0.0062 -0.0094 q -0.0062,0 -0.02183,0.006 -0.01247,0.003 -0.01559,0.003 -0.0062,0.006 -0.01559,0.0156 -0.0094,0.006 -0.01247,0.0125 0,0.003 -0.0094,0.0187 -0.0062,0.0125 -0.0062,0.0187 0,0.003 -0.0062,0.0125 -0.0062,0.009 -0.0062,0.0156 -0.0031,0 -0.0094,0.006 -0.0031,0.003 -0.0094,0.003 v -0.009 q 0,-0.003 0,-0.003 0.0031,-0.003 0.0031,-0.006 v -0.0187 q 0,-0.003 0.0062,-0.0125 0.0094,-0.0125 0.01247,-0.0156 -0.0031,-0.006 -0.01247,-0.0187 -0.0094,-0.0156 -0.01559,-0.0218 -0.0062,0.003 -0.02183,0.0187 -0.01247,0.0125 -0.01559,0.0187 -0.0031,0.003 -0.0094,0.0156 -0.0062,0.009 -0.0062,0.0125 -0.0062,0 -0.02183,0.009 -0.01559,0.009 -0.02183,0.0156 -0.0031,0 -0.0062,0.003 -0.0031,0.003 -0.0094,0.006 -0.0062,0.006 -0.01247,0.009 0,0 -0.0062,0 h -0.0062 q -0.0062,0.003 -0.02807,0.006 -0.02183,0.003 -0.02495,0.003 h -0.0062 -0.0062 q -0.0062,0 -0.02807,-0.0125 -0.02183,-0.0125 -0.02807,-0.0156 -0.0031,0 -0.01871,-0.006 -0.01247,-0.006 -0.01871,-0.006 -0.0031,-0.006 -0.0062,-0.0218 -0.0031,-0.0156 -0.0031,-0.0218 0,-0.003 -0.01871,-0.025 -0.01559,-0.0249 -0.01871,-0.0312 -0.0031,-0.003 -0.0094,-0.009 -0.0031,-0.009 -0.0031,-0.0156 -0.0031,-0.006 -0.0062,-0.0249 0,-0.0218 -0.0031,-0.0281 v -0.0281 q -0.0031,0 -0.0062,-0.0125 -0.0031,-0.0125 -0.0062,-0.0125 -0.0031,-0.006 -0.0062,-0.0343 0,-0.0281 0,-0.0343 v -0.0249 -0.009 q 0,-0.003 0.0031,-0.006 0.0031,-0.003 0.01871,-0.0125 0.01559,-0.009 0.01871,-0.0125 0.0062,-0.006 0.01559,-0.0125 0.01247,-0.006 0.01247,-0.009 0.0031,-0.006 0.01559,-0.0343 0.01559,-0.0281 0.01871,-0.0312 0,-0.009 0.0094,-0.0187 l 0.0062,0.003 h 0.01247 q 0,0.003 0.0094,0.009 0.01247,0.006 0.01247,0.009 h 0.01247 q 0.0031,0 0.0031,0.003 0.0031,0 0.0062,0 h 0.0062 q 0.0062,-0.003 0.02495,-0.0125 0.02183,-0.009 0.02807,-0.0125 0.0031,-0.003 0.01247,0 0.0094,0.003 0.01247,0 0.0062,-0.003 0.02183,-0.0125 0.01559,-0.009 0.02183,-0.0125 0.0031,0 0.01247,0.006 0.01247,0.003 0.01559,0.006 h 0.0062 q 0.0031,0.003 0.0062,0.003 0.0031,-0.003 0.0062,-0.0187 0.0031,-0.0156 0.0094,-0.0156 0,-0.006 0.02183,0 0.02183,0.003 0.02807,0.003 0,-0.003 0.0031,-0.006 0.0031,-0.003 0.0031,-0.003 0,-0.003 0.0031,-0.006 l 0.0062,-0.0125 0.02807,-0.0281 q 0.0031,0 0.01871,-0.003 0.01559,-0.006 0.02183,-0.006 h 0.0062 l 0.0062,0.003 q 0.0031,0 0.0062,0.0125 0.0031,0.009 0.0094,0.0125 0,0.009 0.0094,0 0.0031,-0.003 0.0094,-0.006 l 0.0031,-0.0405 q 0.0031,0 0.01247,0.003 0.01247,0 0.01871,-0.006 0.0062,-0.003 0.01559,-0.0125 0.0094,-0.0125 0.01247,-0.0156 0.0031,0 0.01871,-0.003 0.01871,-0.003 0.02495,-0.006 0.0031,0 0.02495,-0.0156 0.02183,-0.0187 0.02807,-0.0218 0.0062,-0.003 0.02807,-0.0125 0.02183,-0.009 0.02807,-0.0125 0.0031,0 0.01871,0.003 0.01871,0.003 0.02183,0 0.0031,0 0.012469,-0.0218 0.01247,-0.0218 0.01871,-0.0281 0,-0.006 0.0031,-0.009 0.0031,-0.003 0.0062,0 h 0.01247 q 0,0 0.0094,-0.009 l 0.0062,-0.006 0.0062,-0.10603 -0.0062,-0.006 q -0.0031,-0.003 -0.0062,-0.003 0,0 -0.0031,-0.003 0,-0.003 -0.01247,0 -0.0094,0 -0.0094,-0.003 -0.0062,-0.003 -0.01559,-0.0125 -0.0094,-0.009 -0.0094,-0.0156 -0.0062,0.006 -0.024949,0.0187 -0.01559,0.0125 -0.01871,0.0187 -0.0062,0.003 -0.01559,0.0187 -0.0062,0.0156 -0.01247,0.0187 -0.0062,0.006 -0.01559,0.009 -0.0094,0.003 -0.01247,0.003 0,-0.003 -0.0062,-0.0125 -0.0031,-0.009 -0.0062,-0.0125 h -0.0031 -0.0062 q -0.0062,0.003 -0.01247,0.0125 -0.0031,0.009 -0.0094,0.009 -0.0031,0.003 -0.0062,0.003 h -0.0094 q -0.0062,0 -0.01247,0 -0.0062,-0.003 -0.0094,-0.003 -0.0062,-0.003 -0.01871,-0.0125 -0.01247,-0.009 -0.01871,-0.0156 -0.0031,0 -0.0094,-0.0125 -0.0031,-0.0125 -0.0031,-0.0156 h -0.0031 -0.0062 q -0.0031,0 -0.0031,-0.003 -0.0062,0.006 -0.01247,0.009 l -0.01247,0.006 h -0.02807 q -0.0031,0 -0.0062,0 -0.0031,-0.003 -0.0094,-0.003 h -0.01247 q -0.0031,0 -0.01871,-0.009 -0.01559,-0.009 -0.02183,-0.009 -0.01247,0 -0.05302,0 -0.04054,-0.003 -0.05301,-0.006 0,-0.003 -0.0031,-0.0125 -0.0031,-0.009 -0.0062,-0.0125 -0.0031,0 -0.0031,-0.003 0,-0.003 -0.0031,-0.003 0,0 0,-0.003 l -0.0062,-0.006 h -0.01247 -0.0094 q -0.0031,0 -0.0062,-0.003 -0.0062,0.006 -0.02183,0.0218 -0.01559,0.0125 -0.01871,0.0187 0.0031,-0.006 -0.0094,-0.0156 -0.01247,-0.0125 -0.01871,-0.0125 0,0 -0.0031,-0.003 l -0.0062,0.003 q -0.0062,0 -0.01559,0.009 -0.0094,0.006 -0.01247,0.0125 l -0.09043,-0.003 q 0,0.003 -0.0094,0.009 -0.0062,0.006 -0.0094,0.003 h -0.0343 -0.01559 q -0.0062,0 -0.01247,-0.003 -0.0031,0 -0.0094,-0.006 -0.0031,-0.006 -0.0062,-0.009 -0.0031,0 -0.01247,-0.003 -0.0062,-0.006 -0.01247,-0.009 -0.0031,-0.003 -0.01247,-0.003 -0.0062,0 -0.0094,0.003 0,0.003 0.0031,0.0187 0.0062,0.0125 0,0.0187 0,0.003 -0.01559,0.0125 -0.01559,0.009 -0.02183,0.0125 -0.0062,0.006 -0.01871,0.0218 -0.0094,0.0125 -0.0094,0.0156 -0.0031,0.003 -0.0031,0.009 v 0.0156 q 0,0 0,0.0156 v 0.0125 q 0,0.006 0,0.0249 0.0031,0.0187 0.0094,0.0281 0,0.006 0.0031,0.0218 0.0062,0.0156 0.0062,0.0218 l 0.0031,0.009 q 0,0.003 -0.0031,0.003 0,0 0,0.003 v 0.006 q -0.0031,0.006 -0.01559,0.0218 -0.0094,0.0156 -0.01247,0.0187 l 0.02807,0.21517 q 0,0.006 0.0031,0.0156 0.0062,0.006 0.0094,0.0125 v 0.14657 q 0,0.006 -0.0031,0.0249 -0.0031,0.0187 -0.0062,0.0405 0,0.0218 -0.0031,0.0437 -0.0031,0.0187 -0.0031,0.0218 -0.0031,0 -0.0031,0.003 v 0.006 0.006 q 0,0.009 0.0031,0.0187 l 0.0062,0.0187 q 0,0.006 -0.0031,0.0281 0,0.0218 0,0.0249 0,0.006 0,0.0343 0,0.0281 0,0.0624 0,0.0312 0,0.0592 0.0031,0.0249 0.0031,0.0312 0,0.003 -0.0031,0.0187 0,0.0125 0,0.0281 0,0.0156 -0.0031,0.0312 0,0.0125 0,0.0156 0,0.003 0.0031,0.0187 0.0062,0.0125 0.0094,0.0218 0.0031,0.003 0.0062,0.0125 0.0031,0.009 0.0031,0.0125 0.0062,0.009 0.0094,0.0312 0.0062,0.0218 0.0062,0.0249 0,0.003 -0.0094,0.0125 -0.0062,0.009 -0.0094,0.009 0,0.006 -0.01247,0.0343 -0.0094,0.0281 -0.01559,0.0343 -0.0062,0.006 -0.02807,0.0249 -0.02183,0.0187 -0.02807,0.0249 -0.0062,0.006 -0.01247,0.0281 -0.0031,0.0187 -0.0031,0.0249 l -0.02807,-0.003 q 0,-0.0125 -0.0031,-0.053 -0.0031,-0.0405 -0.0031,-0.053 0,-0.003 -0.01871,-0.0187 -0.01559,-0.0156 -0.03742,-0.0312 -0.02183,-0.0187 -0.04054,-0.0312 -0.01559,-0.0156 -0.01559,-0.0187 -0.0031,-0.006 -0.0062,-0.0249 -0.0031,-0.0218 -0.0031,-0.0281 0,-0.006 0,-0.0281 0.0031,-0.0218 0.0031,-0.0249 0,-0.006 -0.0062,-0.0343 -0.0031,-0.0281 0,-0.0343 0,-0.003 0,-0.0218 0,-0.0187 0,-0.0374 0.0031,-0.0218 0.0031,-0.0374 0.0031,-0.0187 0.0031,-0.0218 0,-0.003 -0.0031,-0.0156 0,-0.0156 -0.0031,-0.0312 0,-0.0156 -0.0031,-0.0281 -0.0031,-0.0156 -0.0031,-0.0218 l 0.0031,-0.0125 v -0.009 q 0.0031,-0.006 0.01559,-0.0125 0.01247,-0.009 0.01247,-0.0125 v -0.0156 l -0.02183,-0.003 q 0,-0.006 0,-0.0374 0.0031,-0.0343 0,-0.0405 0,-0.003 -0.0062,-0.006 -0.0031,-0.006 -0.0062,-0.009 -0.0031,0 -0.01247,-0.003 -0.0094,-0.006 -0.01247,-0.006 v -0.009 -0.006 q 0.0031,-0.003 0.0094,-0.0156 0.0062,-0.0125 0.01247,-0.0249 0.0094,-0.0125 0.01559,-0.025 0.0062,-0.0125 0.0062,-0.0156 0,-0.003 0.0031,-0.006 0,-0.003 0,-0.003 0.0031,0 0.0031,-0.003 0,0 -0.0031,-0.006 v -0.006 q -0.0031,0.003 -0.01247,0.006 -0.0094,0.003 -0.01247,0.006 -0.0031,0.003 -0.0062,0.003 h -0.0094 l -0.01247,-0.006 q 0.0062,-0.006 0.01559,-0.0343 0.01247,-0.0312 0.01559,-0.0405 0,-0.006 -0.0031,-0.0156 0,-0.009 0.0031,-0.0125 l -0.02807,-0.003 v -0.006 q 0,-0.006 0.0031,-0.006 0.0031,-0.006 0.01871,-0.0374 0.01871,-0.0312 0.02495,-0.0374 0.0031,-0.006 0,-0.009 -0.0031,-0.006 0,-0.009 h -0.03119 q 0,-0.006 0,-0.025 0.0031,-0.0218 0.0062,-0.0436 0.0031,-0.0249 0.0031,-0.0437 0.0031,-0.0218 0.0031,-0.0312 0,-0.003 0.0094,-0.0187 0.0094,-0.0156 0.0094,-0.0218 v -0.025 q 0.0031,-0.006 0.0031,-0.0156 0,-0.009 0,-0.0125 -0.0031,-0.003 -0.01559,-0.0312 -0.0094,-0.0281 -0.0094,-0.0343 -0.0031,-0.003 -0.0031,-0.009 0,-0.009 0.0031,-0.0125 0.0031,0 0.01559,0 0.01247,-0.003 0.01559,-0.003 0,-0.003 0.0031,-0.006 0.0062,-0.006 0.0094,-0.009 v -0.006 q 0,-0.003 0,-0.003 0.0031,0 0.0031,-0.003 0,0 -0.0031,-0.006 v -0.006 q 0,-0.003 -0.0031,-0.0156 -0.0031,-0.0125 -0.0094,-0.0249 -0.0031,-0.0156 -0.0062,-0.0249 -0.0031,-0.0125 -0.0031,-0.0156 0,-0.006 0.0031,-0.0249 0.0062,-0.0218 0.0062,-0.0281 h -0.02807 q -0.0031,-0.006 -0.0062,-0.0281 -0.0031,-0.0218 -0.0094,-0.0281 l -0.0062,-0.0187 q -0.0031,-0.009 -0.0031,-0.0187 v -0.0312 -0.0156 q 0,-0.006 0.0031,-0.009 0.0031,-0.003 0.03742,-0.003 0.0343,-0.003 0.03742,-0.003 0.0031,0 0.01559,0.003 0.01247,0 0.02495,0 0.01559,0 0.02495,0.003 0.01247,0 0.01559,0 0.0031,-0.006 0.01559,-0.0281 0.01247,-0.0249 0.01559,-0.0249 0.0031,-0.003 0.0094,-0.006 0.01247,-0.006 0.01559,-0.006 l 0.0094,-0.003 0.0031,0.003 q 0.0062,0.006 0.01871,0.0218 0.01247,0.0156 0.01871,0.0218 l 0.09979,-0.0873 q 0.0062,0.003 0.01247,0.006 0.0094,0.003 0.0094,0.006 0.0062,0 0.02183,0 0.01871,0 0.02183,0.003 0,0.003 0.0031,0.006 0.0062,0.006 0.0062,0.006 0.0031,0.006 0.0062,0.0156 0.0062,0.009 0.0094,0.0125 0.0031,0.003 0.0062,0.003 h 0.01247 0.01871 q 0.0031,-0.003 0.0062,-0.006 0.0062,-0.006 0.0094,-0.006 0,-0.006 0,-0.0187 0,-0.0156 0.0031,-0.0218 0.0031,-0.009 0.0094,-0.0218 0.0094,-0.0125 0.01559,-0.0156 0.0062,-0.006 0.02807,-0.006 0.02183,0 0.02807,0 l -0.0062,0.0624 q 0.0062,-0.006 0.02807,-0.0187 0.02183,-0.0125 0.03119,-0.0156 0.0062,-0.006 0.03119,-0.0125 0.02495,-0.009 0.03742,-0.0125 0,-0.003 0.0094,-0.003 -0.0031,0.006 -0.0031,0.0218 0.0031,0.0125 0.0031,0.0187 0,0.006 0.0031,0.0156 0.0031,0.009 0.0062,0.0125 l 0.0062,0.003 h 0.0094 q 0.0031,-0.003 0.01871,-0.0125 0.01871,-0.009 0.02495,-0.0125 l 0.0094,-0.009 q 0.0031,-0.006 0.0031,-0.0218 0.0031,-0.0156 0,-0.0218 0.0062,0.003 0.01247,0.009 0.0062,0.003 0.01247,0.006 0,0.003 0.0031,0.003 h 0.0062 l 0.0031,-0.003 q 0.0062,-0.003 0.01247,-0.0125 0.0062,-0.009 0.0062,-0.0125 0.0031,0.003 0.01247,0.0187 0.0094,0.0156 0.0094,0.0218 0.0031,0.006 -0.0031,0.0249 -0.0062,0.0187 -0.0062,0.025 0,0.003 0.0031,0.003 h 0.0062 0.0094 q 0.0031,-0.003 0.0062,-0.003 0.0062,-0.003 0.0094,-0.006 0.0062,-0.006 0.01559,-0.0249 0.0094,-0.0218 0.01559,-0.0281 h 0.0094 q 0,0.006 0,0.0281 0,0.0187 -0.0031,0.0249 0,0.006 0.0062,0.0281 0.0062,0.0218 0.0062,0.0281 0.0062,-0.006 0.02183,-0.0125 0.01559,-0.009 0.02183,-0.0156 0.0062,0.003 0.01247,0.003 0.01247,0 0.01247,0 0.0031,0 0.0062,-0.003 0.0031,-0.006 0.0062,-0.009 0.0031,-0.003 0.0094,-0.0125 0.0062,-0.0125 0.0094,-0.0156 0.0031,-0.003 0.01559,-0.009 0.01559,-0.009 0.02183,-0.0125 h 0.0094 0.0062 q 0.0031,0.003 0.0094,0.0156 0.0094,0.0125 0.01559,0.0125 h 0.02807 q 0.0031,0 0.0094,0.0156 0.0094,0.0125 0.012469,0.0156 0.0062,0 0.02495,0.006 0.02183,0.003 0.02807,0.003 l -0.0031,0.0281 q 0.0062,0 0.02183,-0.003 0.01559,-0.006 0.01871,-0.003 0.0031,0.003 0.01247,0.0156 0.0094,0.0125 0.01559,0.0125 0,0.003 0.0094,0.006 0.01247,0.003 0.01559,0.006 0,0.006 0.0031,0.009 0,0.003 0,0.003 0.0031,0 0.0031,0.003 0,0.003 0.0031,0.003 0.0031,0.006 0.0094,0.0125 0.0094,0.006 0.01559,0.0156 0.0094,0.0125 0.01559,0.0218 l -0.0031,0.0125 v 0.0156 q 0,0.006 -0.0094,0.0218 -0.0062,0.0156 -0.0062,0.0187 v 0.0125 0.0156 l 0.0062,0.006 q 0.0031,0.003 0.0062,0.003 l 0.01247,0.003 q 0.0062,0.006 0.02495,0.0281 0.02183,0.0218 0.02807,0.0312 0.0031,-0.003 0.01559,-0.006 0.01559,-0.006 0.02183,-0.009 h 0.0094 0.0031 q 0.0062,0.006 0.01559,0.0125 0.01247,0.003 0.01247,0.006 0,0.003 0.0094,0.0187 0.01247,0.0156 0.01559,0.0218 l 0.0062,0.0156 q 0.0031,0.006 0,0.0281 0,0.0187 0,0.0249 -0.0031,0.003 0.0031,0.0218 0.0062,0.0156 0.0094,0.0187 v 0.003 q 0,0.003 0,0.006 0.0031,0 0.0031,0.003 -0.0031,0.003 -0.0031,0.006 0,0.003 -0.0031,0.006 -0.0031,0.006 -0.0094,0.0156 -0.0031,0.006 -0.0062,0.0125 l -0.0094,0.006 q -0.0031,0.006 -0.01247,0.0156 -0.0062,0.009 -0.0062,0.0125 0,0.006 -0.0062,0.0281 -0.0062,0.0218 -0.0062,0.0249 -0.0062,0.009 -0.0343,0.0343 -0.02495,0.0218 -0.03118,0.0281 l 0.0031,-0.0437 q -0.0062,-0.003 -0.0094,-0.006 -0.0031,0 -0.0031,0 0,-0.003 -0.0031,-0.003 -0.0031,0 -0.0031,-0.003 -0.0062,0.003 -0.0094,0.0156 -0.0031,0.0125 -0.0094,0.0125 -0.0031,0.003 -0.02183,0.006 -0.01559,0.003 -0.01871,0.006 -0.0031,0 -0.0094,0.006 l -0.0031,0.003 0.02495,0.0437 q -0.0031,0 -0.01871,0 -0.01559,-0.003 -0.02183,-0.003 -0.0062,0.003 -0.02183,0.006 -0.01559,0.003 -0.01871,0.009 -0.0062,0 -0.01559,0.009 -0.0094,0.006 -0.0094,0.0125 -0.0031,0 -0.0031,0.003 -0.0031,0.003 -0.0031,0.006 l 0.0031,0.003 0.0062,0.006 q 0,0.003 0,0.003 0.0031,0 0.0031,0.003 0,0.003 0.0031,0.003 v 0.006 0.003 q 0,0.003 -0.0031,0.009 -0.0031,0.003 -0.0062,0.009 l -0.0062,0.0125 q -0.0031,0 -0.0031,0.0125 0.0031,0.0125 0.0031,0.0156 0.0062,0 0.01247,0 0.0062,-0.003 0.01247,-0.003 0.0062,0.003 0.0343,0.0156 0.03119,0.009 0.04366,0.0187 0.0031,0 0.01247,0.003 0.0094,0.003 0.01247,0.009 0.0062,0 0.02183,0.0125 0.01559,0.0125 0.01559,0.0156 0.0062,0.003 0.02807,0.0156 0.02183,0.0125 0.02807,0.0156 0,0.003 0.01247,0.0281 0.01559,0.0218 0.01871,0.025 0.0062,0.006 0.03118,0.0343 0.02495,0.0281 0.0343,0.0374 h 0.01559 q 0,0.003 0.0094,0.0156 0.0094,0.009 0.01559,0.0125 0,0.003 0.01559,0.009 0.01559,0.003 0.01871,0.006 0.0031,0.003 0.0062,0.009 0.0062,0.0125 0.0094,0.0156 0.0062,0.0156 0.01247,0.0437 0.0094,0.0249 0.0094,0.0281 v 0.025 q 0,0.006 -0.0031,0.009 0,0 0,0.006 v 0.009 q -0.0031,0.006 -0.01559,0.0156 -0.0094,0.009 -0.01247,0.009 -0.0031,0.003 -0.0062,0.006 -0.0031,0 -0.0062,0.006 l -0.0062,0.0125 q 0,0.003 -0.0031,0.0156 0,0.009 0,0.0156 v 0.0249 q 0,0.003 0.0062,0.009 0.0062,0.003 0.0094,0.003 0.0031,0 0.01247,-0.003 0.0094,-0.006 0.01559,-0.006 h 0.0343 q 0,0.006 -0.01247,0.0437 -0.0094,0.0374 -0.01247,0.0499 0,0.003 -0.01247,0.0125 -0.01247,0.006 -0.02807,0.0156 -0.01559,0.009 -0.02807,0.0187 -0.01247,0.009 -0.01559,0.009 l -0.0094,0.009 q -0.0031,0.003 -0.0031,0.006 -0.0031,0.006 -0.0094,0.0343 -0.0031,0.0281 -0.0031,0.0374 -0.0031,0 -0.0031,0 0,-0.003 -0.0062,-0.003 -0.0031,-0.003 -0.01247,-0.009 -0.0094,-0.009 -0.01247,-0.009 h -0.0094 -0.0062 q -0.0031,0.003 -0.0062,0.009 -0.0031,0.006 -0.0031,0.0187 -0.0031,0.006 -0.0094,0.0281 -0.0062,0.0218 -0.0094,0.0187 -0.0031,0.006 -0.01871,0.0156 -0.01559,0.009 -0.02183,0.0125 -0.0062,0.003 -0.01559,0.003 -0.0094,-0.003 -0.0094,-0.006 -0.0031,0.006 -0.0094,0.0281 -0.0062,0.0187 -0.01247,0.025 0,0.0125 -0.01247,0.0125 l -0.0062,-0.006 q -0.0062,-0.006 -0.0062,-0.009 -0.0031,0 -0.0062,-0.009 -0.0031,-0.0125 -0.0062,-0.0125 0,-0.006 -0.01247,-0.0156 -0.0094,-0.0125 -0.0094,-0.0156 -0.0062,0.003 -0.0094,0.009 -0.0031,0.003 -0.0062,0.003 0,0 -0.0062,0.0125 l -0.0062,0.0125 q 0,0.003 0.0031,0.0218 0.0031,0.0156 0.0062,0.0218 0.0062,0.0125 0.01559,0.0125 0.0031,0.003 0.0062,0.003 h 0.0062 l -0.0031,0.0218 q -0.0062,0 -0.02183,0 -0.01247,-0.003 -0.01871,-0.003 -0.0031,0 -0.01559,0.009 -0.0094,0.006 -0.01247,0.006 -0.0062,-0.003 -0.01247,-0.009 -0.0031,0 -0.0094,-0.006 l -0.0031,-0.003 q -0.0062,0 -0.01247,0.006 -0.0031,0.006 -0.0031,0.009 l -0.0062,0.0935 q -0.0031,-0.003 -0.0062,-0.009 0,-0.006 -0.0031,-0.006 -0.0031,-0.003 -0.0062,-0.003 -0.0062,0 -0.0062,-0.003 -0.0031,0 -0.0062,0 0,0.003 -0.0031,0.003 h -0.0031 q -0.0031,0 -0.0094,0.006 -0.0062,0.006 -0.0062,0.009 0,0.003 0.0062,0.0125 0.0062,0.009 0.0062,0.0156 v 0.0281 q -0.0031,0 -0.01559,-0.003 -0.01247,0 -0.01559,-0.003 0,-0.003 -0.0031,-0.006 -0.0062,-0.006 -0.0062,-0.006 -0.0031,0 -0.0094,-0.0156 -0.0031,-0.0125 -0.0031,-0.0156 h -0.01247 -0.01559 q -0.0094,0.009 -0.0094,0.0187 0,0.003 0.0031,0.006 0.0062,0.006 0.0062,0.006 v 0.006 l -0.0031,0.003 q -0.0031,0.006 -0.01871,0.0187 -0.01247,0.0156 -0.01871,0.0218 -0.0031,-0.006 -0.01559,-0.0218 -0.0094,-0.0156 -0.0094,-0.0218 l -0.0062,-0.003 h -0.0062 q -0.0062,0.006 -0.01247,0.0218 -0.0031,0.0156 -0.0031,0.0218 -0.0031,0.006 -0.0094,0.0156 -0.0062,0.009 -0.0094,0.009 -0.0062,0.006 -0.02807,0.0249 -0.01871,0.0218 -0.02495,0.0281 -0.0062,0 -0.02183,0.003 -0.01559,0.003 -0.02183,0.006 -0.0031,0 -0.01871,-0.003 -0.01247,0 -0.01871,0 h -0.02807 q -0.0062,-0.003 -0.02495,-0.0281 -0.01871,-0.0218 -0.02495,-0.0312 -0.0062,-0.006 -0.0094,-0.0343 -0.0031,-0.025 0,-0.0312 l -0.01559,-0.003 q 0.0031,0.006 -0.0031,0.0249 -0.0062,0.0218 -0.01247,0.0281 0,0.003 -0.01871,0.006 -0.01559,0.003 -0.02183,0.003 -0.0031,0 -0.02495,-0.003 -0.02183,0 -0.02495,0 -0.01247,0 -0.01247,0.0156 -0.0031,0 -0.0094,0.009 -0.0062,0.0125 -0.0094,0.0187 l -0.0062,0.006 -0.0062,0.006 q -0.0031,-0.003 -0.0062,-0.0156 -0.0031,-0.0125 -0.0062,-0.0156 -0.0031,-0.006 -0.0062,-0.0125 0,-0.006 -0.0062,-0.0125 -0.0062,-0.009 -0.01247,-0.0156 -0.0031,0 -0.01871,-0.009 -0.01559,-0.006 -0.01871,-0.006 -0.0062,-0.006 -0.01247,-0.009 -0.0062,-0.003 -0.01247,-0.003 -0.0031,-0.006 -0.01559,-0.0187 -0.0094,-0.009 -0.01247,-0.0125 z m 0.40852,0.1185 q -0.0094,0 -0.01247,0.0125 0,0.0156 0.0094,0.0156 0.0094,0 0.0094,-0.0156 0.0031,-0.0125 -0.0062,-0.0125 z m 0.05613,-0.009 0.0094,-0.0156 h -0.0094 z m -0.290018,-0.0873 q -0.0094,0 -0.0094,0.0125 0,0.0156 0.0094,0.0156 0.0062,0.003 0.0062,-0.0125 0,-0.0125 -0.0062,-0.0156 z m 0.02495,0.003 0.01559,-0.0281 h -0.01247 z m 0.130976,-0.006 0.01871,0.003 v -0.0156 q -0.0031,-0.003 -0.0094,-0.0156 -0.0031,-0.009 -0.0062,-0.009 z m 0.121621,-0.006 h 0.01871 v -0.009 q -0.0031,0 -0.0094,-0.006 -0.0031,-0.006 -0.0094,-0.006 z m -0.140331,-0.0998 q -0.0094,0 -0.0094,0.0125 0,0.0125 0.0094,0.0125 0.01247,0 0.01247,-0.0125 0,-0.0125 -0.01247,-0.0125 z m -0.314967,-0.0468 q -0.01247,0 -0.01559,0.0156 0,0.0125 0.01247,0.0125 0.0062,0 0.0062,-0.0125 0.0031,-0.0156 -0.0031,-0.0156 z m 0.146569,0.0281 q 0,-0.003 0.0062,-0.006 0.0062,-0.006 0.0062,-0.0125 0,-0.003 0,-0.009 0.0031,-0.009 0.0031,-0.0156 h -0.01559 z m 0.436587,-0.0187 h 0.01559 l 0.0031,-0.0249 h -0.01559 z m -0.919951,-0.15592 h 0.01559 q 0,-0.006 -0.0031,-0.0156 0,-0.0125 0,-0.0156 l -0.01247,-0.0125 z m 0.439705,-0.48337 h 0.04054 v -0.0125 q -0.0031,-0.003 -0.0062,-0.006 -0.0031,-0.006 -0.0062,-0.006 h -0.0062 q -0.0031,0 -0.0062,0 0,-0.003 -0.0031,-0.003 -0.0031,0 -0.0062,0.003 -0.0031,0 -0.0062,0 z m 0.8326338,0.0468 0.0062,-0.006 0.0062,-0.006 q 0.0031,-0.003 0.0062,-0.0125 0.0031,-0.009 0.0031,-0.0156 h -0.01871 z m -0.7858568,-0.16604 q -0.01559,0 -0.02807,0.0125 -0.0031,0.003 -0.0062,0.009 -0.0031,0.006 -0.0062,0.009 -0.0031,0.003 -0.0031,0.006 -0.0031,0.003 -0.0031,0.006 v 0.009 h 0.03119 z m -0.106028,-0.003 q -0.0062,0 -0.01559,0.009 -0.0031,0.003 -0.0094,0.0125 -0.0031,0.009 -0.0062,0.0125 l 0.02807,0.003 z m 0.486483,0.0405 q 0,0.003 0.0062,0.009 0.0062,0.003 0.0094,0.006 h 0.0094 v -0.0156 z m 0.3648608,-0.009 q -0.0062,-0.003 -0.0094,0.009 0,0.009 0.0062,0.006 0.01559,-0.009 0.0031,-0.0156 z m 0.02183,-0.0218 h 0.01559 l 0.0031,-0.0281 h -0.01559 z m -0.4459418,-0.0405 0.03118,0.003 q 0,-0.0125 -0.0031,-0.0156 -0.0031,-0.006 -0.01559,-0.0156 -0.0094,-0.009 -0.01247,-0.0125 z m -0.04678,-0.14969 q 0,0.003 0.0031,0.0156 0.0062,0.009 0.0094,0.0125 l 0.01559,0.0156 v -0.0187 -0.0218 q 0,-0.0125 -0.01247,-0.0125 -0.0031,0 -0.0062,-0.003 h -0.0062 q -0.0031,0 -0.0031,-0.003 z m -0.436587,-0.0374 q -0.0062,0 -0.0094,0.0125 0,0.0125 0.0062,0.0125 0.01559,0.003 0.01559,-0.009 0.0031,-0.0125 -0.01247,-0.0156 z m 0.333678,-0.0218 q 0,0.003 -0.0062,0.006 -0.0062,0.003 -0.0062,0.006 -0.0031,0.006 -0.0062,0.0218 -0.0031,0.0125 -0.0031,0.0187 h 0.01871 z m -0.171517,0.0156 q -0.01247,0 -0.01559,0.0156 0,0.0125 0.01247,0.0125 0.0094,0.003 0.0094,-0.009 0.0031,-0.0156 -0.0062,-0.0187 z m 0.162161,-0.0748 0.01559,-0.006 q 0.0031,-0.003 0.0062,-0.0125 0.0062,-0.009 0.0062,-0.0125 l -0.02495,-0.003 z m 0.255715,-0.0281 h 0.02495 v -0.0187 h -0.02495 z m -0.07484,-0.0873 q -0.0062,-0.006 -0.0094,0.003 0,0.009 0.0062,0.0125 0.0094,-0.006 0.0094,-0.009 0,-0.006 -0.0062,-0.006 z m 0.08108,-0.0374 q 0,0.003 -0.0031,0.009 0,0.006 0,0.0125 v 0.009 0.006 q 0,0.003 0.0031,0.003 0.0094,0 0.0094,-0.0125 0,-0.003 0,-0.009 0.0031,-0.006 0.0031,-0.0125 v -0.0187 z m 0.05613,-0.0187 q 0,0.006 0.0031,0.0125 0.0031,0.009 0.0062,0.009 0.0031,0 0.01247,-0.003 0.01247,-0.003 0.01871,-0.006 l 0.0094,-0.009 -0.03742,-0.0343 q -0.0031,0.003 -0.0094,0.0156 -0.0031,0.009 -0.0031,0.0156 z m 0.093549,-0.0374 q 0.0031,-0.006 -0.0062,-0.006 -0.0094,-0.003 -0.0062,0.003 0,0.009 0.0031,0.009 0.0062,0 0.0094,-0.006 z m 0.09667,-0.0904 q -0.0062,0 -0.0062,0.009 0,0.006 0.0062,0.006 0.0062,0 0.0062,-0.006 0,-0.006 -0.0062,-0.009 z m -0.2992873,-0.0935 q -0.0094,0 -0.01247,0.0125 0,0.0125 0.0094,0.0125 0.01247,0 0.01247,-0.0125 0.0031,-0.0125 -0.0094,-0.0125 z m 0,-0.0281 q -0.0094,0 -0.0094,0.0156 0,0.0125 0.0094,0.0125 0.01247,0 0.01247,-0.0125 0,-0.0156 -0.01247,-0.0156 z m -0.767145,-0.0436 h 0.01559 v -0.025 h -0.01559 z m 0.823278,-0.006 q -0.0062,0 -0.0062,0.0156 0,0.0125 0.0062,0.0125 0.01247,0 0.01247,-0.0125 0,-0.0156 -0.01247,-0.0156 z m -0.0094,-0.009 q -0.01559,-0.003 -0.01559,0.009 0,0.009 0.01559,0.0125 0.0062,0 0.0062,-0.009 0,-0.0125 -0.0062,-0.0125 z m -0.417876,-0.17151 0.0031,-0.0187 h -0.01247 z m 0.290019,0.0156 0.01871,-0.0156 -0.01559,-0.003 z m -0.289966,-0.1261 q 0,0.0156 0.0062,0.0281 l 0.0062,0.006 0.0062,0.006 q 0,0.006 0.0031,0.025 0.0062,0.0187 0.0062,0.0249 l 0.01559,0.003 0.0062,-0.10291 q -0.0062,0.003 -0.01871,0.006 -0.0094,0 -0.01247,0.003 z m -0.04054,0.0624 0.01871,0.003 -0.01871,-0.0156 z m 0.483364,-0.0249 h 0.01559 v -0.0125 h -0.01559 z"
         style="font-style:normal;font-variant:normal;font-weight:normal;font-stretch:normal;font-size:2.82222px;font-family:Chalkduster;-inkscape-font-specification:'Chalkduster, Normal';font-variant-ligatures:normal;font-variant-caps:normal;font-variant-numeric:normal;font-feature-settings:normal;text-align:start;writing-mode:lr-tb;text-anchor:start;fill:#ff0000;fill-opacity:1;stroke-width:0.264583"
         id="path2000"
         inkscape:connector-curvature="0"
         inkscape:label="path2000" /></g><g
       aria-label="AG"
       style="font-style:normal;font-variant:normal;font-weight:bold;font-stretch:normal;font-size:3.88056px;line-height:1.25;font-family:FreeMono;-inkscape-font-specification:'FreeMono, Bold';font-variant-ligatures:normal;font-variant-caps:normal;font-variant-numeric:normal;font-feature-settings:normal;text-align:start;letter-spacing:0px;word-spacing:0px;writing-mode:lr-tb;text-anchor:start;fill:#ffffff;fill-opacity:1;stroke:none;stroke-width:0.264583"
       id="text1704"
       transform="translate(2.521e-4,-5.12895)"><path
         d="m 4.227434,176.75165 q 0,-0.11254 0.06597,-0.15134 0.065969,-0.0427 0.1901472,-0.0427 h 0.089253 l -0.089253,-0.22507 H 3.5599785 l -0.089253,0.22507 h 0.089253 q 0.2561166,0 0.2561166,0.19403 0,0.19403 -0.2561166,0.19403 H 3.0438646 q -0.2561167,0 -0.2561167,-0.19403 0,-0.11642 0.06985,-0.15522 0.065969,-0.0388 0.1901472,-0.0388 l 0.6014862,-1.48625 H 3.4047562 q -0.2599972,0 -0.2599972,-0.19403 0,-0.11641 0.06597,-0.15522 0.06985,-0.0388 0.1940277,-0.0388 h 0.8382001 l 0.7722305,1.87431 q 0.2638778,0 0.2638778,0.19403 0,0.19403 -0.2561167,0.19403 H 4.4835507 q -0.2561167,0 -0.2561167,-0.19403 z m 0.097014,-0.80715 -0.3026833,-0.74507 -0.3065639,0.74507 z"
         style="font-style:normal;font-variant:normal;font-weight:bold;font-stretch:normal;font-size:3.88056px;font-family:FreeMono;-inkscape-font-specification:'FreeMono, Bold';font-variant-ligatures:normal;font-variant-caps:normal;font-variant-numeric:normal;font-feature-settings:normal;text-align:start;writing-mode:lr-tb;text-anchor:start;fill:#ffffff;fill-opacity:1;stroke-width:0.264583"
         id="path1730"
         inkscape:connector-curvature="0" /><path
         d="m 7.2333488,175.85912 q 0.2599972,0 0.2599972,0.19403 0,0.14746 -0.1629833,0.19403 v 0.51223 q -0.2599972,0.13582 -0.4423834,0.18627 -0.1823861,0.0543 -0.4074583,0.0543 -0.2638778,0 -0.4734278,-0.0621 -0.20955,-0.066 -0.3337278,-0.16687 -0.1241778,-0.10089 -0.2056694,-0.23671 -0.081492,-0.1397 -0.1125361,-0.27164 -0.031045,-0.13194 -0.031045,-0.27164 v -0.27552 q 0,-0.45402 0.3065639,-0.76835 0.3104445,-0.3182 0.7955139,-0.3182 0.314325,0 0.5626806,0.12417 0.062089,-0.12417 0.1591028,-0.12417 0.104775,0 0.1435805,0.066 0.038806,0.0621 0.038806,0.19014 v 0.30269 q 0,0.12417 -0.042686,0.19014 -0.038806,0.066 -0.1513417,0.066 -0.027164,0 -0.054328,-0.004 -0.023283,-0.008 -0.038806,-0.0155 -0.015522,-0.0116 -0.031045,-0.0272 -0.011642,-0.0155 -0.023283,-0.0272 -0.00776,-0.0155 -0.015522,-0.0349 -0.00776,-0.0233 -0.011642,-0.0349 -0.00388,-0.0116 -0.011642,-0.031 -0.00388,-0.0233 -0.00388,-0.0311 -0.031045,-0.10089 -0.1668639,-0.1591 -0.1358195,-0.0621 -0.34925,-0.0621 -0.3259667,0 -0.523875,0.19403 -0.1940278,0.19015 -0.1940278,0.50447 v 0.24836 q 0,0.64805 0.7450667,0.64805 0.2677583,0 0.4850694,-0.097 v -0.26776 H 6.5542516 q -0.2561167,0 -0.2561167,-0.19403 0,-0.11254 0.065969,-0.15134 0.065969,-0.0427 0.1901473,-0.0427 z"
         style="font-style:normal;font-variant:normal;font-weight:bold;font-stretch:normal;font-size:3.88056px;font-family:FreeMono;-inkscape-font-specification:'FreeMono, Bold';font-variant-ligatures:normal;font-variant-caps:normal;font-variant-numeric:normal;font-feature-settings:normal;text-align:start;writing-mode:lr-tb;text-anchor:start;fill:#ffffff;fill-opacity:1;stroke-width:0.264583"
         id="path1732"
         inkscape:connector-curvature="0" /></g><g
       aria-label="Pat"
       style="font-style:normal;font-variant:normal;font-weight:bold;font-stretch:normal;font-size:2.82222px;line-height:1.25;font-family:FreeMono;-inkscape-font-specification:'FreeMono, Bold';font-variant-ligatures:normal;font-variant-caps:normal;font-variant-numeric:normal;font-feature-settings:normal;text-align:start;letter-spacing:0px;word-spacing:0px;writing-mode:lr-tb;text-anchor:start;fill:#ffffff;fill-opacity:1;stroke:none;stroke-width:0.264583"
       id="text1708"
       transform="translate(0,-3)"><path
         d="m 4.3009313,179.84289 q 0,0.0762 -0.016933,0.14676 -0.016933,0.0705 -0.064911,0.14675 -0.047978,0.0734 -0.1213556,0.12983 -0.070556,0.0536 -0.1919111,0.0903 -0.1185333,0.0339 -0.2737555,0.0339 H 3.3554869 v 0.28223 h 0.2794 q 0.1862667,0 0.1862667,0.14111 0,0.14111 -0.1862667,0.14111 H 3.0309313 q -0.1862666,0 -0.1862666,-0.14111 0,-0.14111 0.1862666,-0.14111 h 0.042333 v -1.08091 h -0.042333 q -0.1862666,0 -0.1862666,-0.14112 0,-0.0818 0.047978,-0.11006 0.047978,-0.031 0.1382889,-0.031 h 0.6575778 q 0.2681111,0 0.4402667,0.14958 0.1721555,0.14958 0.1721555,0.38382 z m -0.9454444,-0.25117 v 0.51646 h 0.3330222 q 0.1467556,0 0.2286,-0.0677 0.084667,-0.0706 0.084667,-0.18909 0,-0.12136 -0.084667,-0.18909 -0.081844,-0.0705 -0.2286,-0.0705 z"
         style="font-style:normal;font-variant:normal;font-weight:bold;font-stretch:normal;font-size:2.82222px;font-family:FreeMono;-inkscape-font-specification:'FreeMono, Bold';font-variant-ligatures:normal;font-variant-caps:normal;font-variant-numeric:normal;font-feature-settings:normal;text-align:start;writing-mode:lr-tb;text-anchor:start;fill:#ffffff;fill-opacity:1;stroke-width:0.264583"
         id="path1735"
         inkscape:connector-curvature="0" /><path
         d="m 4.61874,180.619 q 0,-0.19191 0.1890889,-0.33302 0.1890889,-0.14393 0.4938889,-0.14393 0.127,0 0.2935111,0.0282 v -0.0649 q 0,-0.13829 -0.2624666,-0.13829 -0.1157111,0 -0.2624667,0.0339 -0.1467556,0.031 -0.1778,0.031 -0.059267,0 -0.098778,-0.0395 -0.039511,-0.0423 -0.039511,-0.10442 0,-0.0903 0.084667,-0.11853 0.2398889,-0.0847 0.4854222,-0.0847 0.2596444,0 0.4064,0.11007 0.1495778,0.11006 0.1495778,0.30762 v 0.57009 h 0.045155 q 0.1862667,0 0.1862667,0.14111 0,0.14111 -0.1862667,0.14111 h -0.3302 v -0.0649 Q 5.3835623,181 5.12674,181 4.9178956,181 4.7683178,180.88994 4.61874,180.77705 4.61874,180.619 Z m 0.9793112,-0.0452 v -0.14111 q -0.1778,-0.031 -0.3132667,-0.031 -0.1439333,0 -0.2568222,0.0621 -0.1100667,0.0621 -0.1100667,0.14394 0,0.048 0.062089,0.079 0.062089,0.031 0.1524,0.031 0.2314222,0 0.4656666,-0.14393 z"
         style="font-style:normal;font-variant:normal;font-weight:bold;font-stretch:normal;font-size:2.82222px;font-family:FreeMono;-inkscape-font-specification:'FreeMono, Bold';font-variant-ligatures:normal;font-variant-caps:normal;font-variant-numeric:normal;font-feature-settings:normal;text-align:start;writing-mode:lr-tb;text-anchor:start;fill:#ffffff;fill-opacity:1;stroke-width:0.264583"
         id="path1737"
         inkscape:connector-curvature="0" /><path
         d="m 6.7963932,180.55692 q 0,0.0875 0.047978,0.12417 0.047978,0.0367 0.1947333,0.0367 0.1100667,0 0.2003778,-0.0198 0.093133,-0.0198 0.1382889,-0.0423 0.047978,-0.0254 0.093133,-0.0452 0.047978,-0.0198 0.079022,-0.0198 0.056445,0 0.095956,0.0423 0.039511,0.0423 0.039511,0.1016 0,0.079 -0.1213555,0.14393 -0.1185334,0.0621 -0.2652889,0.0903 Q 7.1548154,181 7.0362821,181 q -0.2398889,0 -0.381,-0.10442 -0.1411111,-0.10442 -0.1411111,-0.28504 v -0.60678 H 6.415393 q -0.1862667,0 -0.1862667,-0.14111 0,-0.0819 0.047978,-0.11007 0.047978,-0.031 0.1382889,-0.031 h 0.098778 v -0.24836 q 0,-0.18626 0.1411111,-0.18626 0.081844,0 0.1100667,0.048 0.031044,0.048 0.031044,0.13829 v 0.24836 h 0.5108222 q 0.090311,0 0.1382889,0.031 0.047978,0.0282 0.047978,0.11007 0,0.14111 -0.1862667,0.14111 H 6.7963932 Z"
         style="font-style:normal;font-variant:normal;font-weight:bold;font-stretch:normal;font-size:2.82222px;font-family:FreeMono;-inkscape-font-specification:'FreeMono, Bold';font-variant-ligatures:normal;font-variant-caps:normal;font-variant-numeric:normal;font-feature-settings:normal;text-align:start;writing-mode:lr-tb;text-anchor:start;fill:#ffffff;fill-opacity:1;stroke-width:0.264583"
         id="path1739"
         inkscape:connector-curvature="0" /></g><g
       aria-label="Gate"
       style="font-style:normal;font-variant:normal;font-weight:bold;font-stretch:normal;font-size:2.82222px;line-height:1.25;font-family:FreeMono;-inkscape-font-specification:'FreeMono, Bold';font-variant-ligatures:normal;font-variant-caps:normal;font-variant-numeric:normal;font-feature-settings:normal;text-align:start;letter-spacing:0px;word-spacing:0px;writing-mode:lr-tb;text-anchor:start;fill:#ffffff;fill-opacity:1;stroke:none;stroke-width:0.264583"
       id="text1708-5"
       transform="translate(0,5.75)"><path
         d="m 3.3885333,276.16461 q 0.1890889,0 0.1890889,0.14111 0,0.10725 -0.1185333,0.14111 v 0.37254 q -0.1890889,0.0988 -0.3217333,0.13546 -0.1326445,0.0395 -0.2963334,0.0395 -0.1919111,0 -0.3443111,-0.0452 -0.1524,-0.048 -0.2427111,-0.12136 -0.090311,-0.0734 -0.1495778,-0.17215 -0.059267,-0.1016 -0.081844,-0.19756 Q 2,276.36217 2,276.26057 v -0.20038 q 0,-0.3302 0.2229556,-0.5588 0.2257777,-0.23142 0.5785555,-0.23142 0.2286,0 0.4092222,0.0903 0.045156,-0.0903 0.1157112,-0.0903 0.0762,0 0.1044222,0.048 0.028222,0.0451 0.028222,0.13828 v 0.22014 q 0,0.0903 -0.031044,0.13829 -0.028222,0.048 -0.1100667,0.048 -0.019756,0 -0.039511,-0.003 -0.016933,-0.006 -0.028222,-0.0113 -0.011289,-0.008 -0.022578,-0.0197 -0.00847,-0.0113 -0.016933,-0.0198 -0.00564,-0.0113 -0.011289,-0.0254 -0.00564,-0.0169 -0.00847,-0.0254 -0.00282,-0.008 -0.00847,-0.0226 -0.00282,-0.0169 -0.00282,-0.0226 -0.022578,-0.0734 -0.1213556,-0.11571 -0.098778,-0.0452 -0.254,-0.0452 -0.2370666,0 -0.381,0.14111 -0.1411111,0.13829 -0.1411111,0.36689 v 0.18062 q 0,0.47131 0.5418667,0.47131 0.1947333,0 0.3527778,-0.0706 v -0.19474 H 2.8946445 q -0.1862667,0 -0.1862667,-0.14111 0,-0.0818 0.047978,-0.11006 0.047978,-0.031 0.1382889,-0.031 z"
         id="path1742"
         inkscape:connector-curvature="0" /><path
         d="m 3.7176309,276.61899 q 0,-0.19191 0.1890889,-0.33302 0.1890889,-0.14394 0.4938889,-0.14394 0.127,0 0.2935111,0.0282 v -0.0649 q 0,-0.13829 -0.2624666,-0.13829 -0.1157111,0 -0.2624667,0.0339 -0.1467556,0.031 -0.1778,0.031 -0.059267,0 -0.098778,-0.0395 -0.039511,-0.0423 -0.039511,-0.10443 0,-0.0903 0.084667,-0.11853 0.2398889,-0.0847 0.4854222,-0.0847 0.2596444,0 0.4064,0.11007 0.1495778,0.11007 0.1495778,0.30762 v 0.57009 h 0.045155 q 0.1862667,0 0.1862667,0.14111 0,0.14111 -0.1862667,0.14111 h -0.3302 v -0.0649 q -0.2116666,0.11007 -0.4684889,0.11007 -0.2088444,0 -0.3584222,-0.11007 -0.1495778,-0.11289 -0.1495778,-0.27093 z m 0.9793112,-0.0452 v -0.14111 q -0.1778,-0.031 -0.3132667,-0.031 -0.1439333,0 -0.2568222,0.0621 -0.1100667,0.0621 -0.1100667,0.14393 0,0.048 0.062089,0.079 0.062089,0.031 0.1524,0.031 0.2314222,0 0.4656667,-0.14394 z"
         id="path1744"
         inkscape:connector-curvature="0" /><path
         d="m 5.8952841,276.5569 q 0,0.0875 0.047978,0.12418 0.047978,0.0367 0.1947333,0.0367 0.1100667,0 0.2003778,-0.0198 0.093133,-0.0197 0.1382889,-0.0423 0.047978,-0.0254 0.093133,-0.0452 0.047978,-0.0197 0.079022,-0.0197 0.056444,0 0.095956,0.0423 0.039511,0.0423 0.039511,0.1016 0,0.079 -0.1213555,0.14393 -0.1185334,0.0621 -0.2652889,0.0903 -0.1439334,0.031 -0.2624667,0.031 -0.2398889,0 -0.381,-0.10442 -0.1411111,-0.10442 -0.1411111,-0.28505 v -0.60677 h -0.098778 q -0.1862667,0 -0.1862667,-0.14112 0,-0.0818 0.047978,-0.11006 0.047978,-0.031 0.1382889,-0.031 h 0.098778 v -0.24835 q 0,-0.18627 0.1411111,-0.18627 0.081844,0 0.1100667,0.048 0.031044,0.048 0.031044,0.13829 v 0.24835 h 0.5108222 q 0.090311,0 0.1382889,0.031 0.047978,0.0282 0.047978,0.11006 0,0.14112 -0.1862667,0.14112 H 5.8952841 Z"
         id="path1746"
         inkscape:connector-curvature="0" /><path
         d="m 8.5357815,276.76575 q 0,0.0903 -0.1636889,0.14957 -0.1636889,0.0564 -0.3076222,0.0706 -0.1411111,0.0141 -0.2427111,0.0141 -0.3273778,0 -0.5362223,-0.18344 -0.2088444,-0.18345 -0.2088444,-0.47132 0,-0.2794 0.2088444,-0.46848 0.2116667,-0.19192 0.5192889,-0.19192 0.3160889,0 0.5221111,0.19192 0.2088445,0.19191 0.2088445,0.4826 v 0.11006 H 7.3843148 q 0.095956,0.24836 0.4628445,0.24836 0.1495777,0 0.3330222,-0.0452 0.1834444,-0.048 0.2201333,-0.048 0.056444,0 0.095956,0.0423 0.039511,0.0395 0.039511,0.0988 z m -1.143,-0.54469 h 0.8297333 q -0.033867,-0.11571 -0.1467555,-0.18345 -0.1128889,-0.0705 -0.2681112,-0.0705 -0.1552222,0 -0.2709333,0.0705 -0.1128889,0.0706 -0.1439333,0.18345 z"
         id="path1748"
         inkscape:connector-curvature="0" /></g><g
       inkscape:label="Layer 1"
       id="layer1-6"
       transform="translate(-86.729468,163.22784)"><path
         inkscape:connector-curvature="0"
         id="path7261"
         d="m 91.773153,127.33454 c -1.609548,0 -2.918685,-1.30916 -2.918685,-2.91871 0,-1.60954 1.309137,-2.91867 2.918685,-2.91867 1.609549,0 2.918682,1.30913 2.918682,2.91867 0,1.60955 -1.309133,2.91871 -2.918682,2.91871"
         style="fill:#c7c7db;fill-opacity:1;fill-rule:nonzero;stroke:#4b4b77;stroke-width:0.45;stroke-miterlimit:4;stroke-dasharray:none;stroke-opacity:1" /><path
         inkscape:connector-curvature="0"
         id="path7265"
         d="m 93.57287,124.41583 c 0,0.99357 -0.806153,1.79974 -1.799717,1.79974 -0.993567,0 -1.79972,-0.80617 -1.79972,-1.79974 0,-0.99356 0.806153,-1.79969 1.79972,-1.79969 0.993564,0 1.799717,0.80613 1.799717,1.79969"
         style="fill:#000000;fill-opacity:1;fill-rule:nonzero;stroke:none;stroke-width:0.352778" /></g></g><g
     inkscape:groupmode="layer"
     id="layer5"
     inkscape:label="components"
     style="display:none" /></svg>
