<?xml version="1.0" encoding="UTF-8" standalone="no"?>
<svg
   xmlns:dc="http://purl.org/dc/elements/1.1/"
   xmlns:cc="http://creativecommons.org/ns#"
   xmlns:rdf="http://www.w3.org/1999/02/22-rdf-syntax-ns#"
   xmlns:svg="http://www.w3.org/2000/svg"
   xmlns="http://www.w3.org/2000/svg"
   xmlns:sodipodi="http://sodipodi.sourceforge.net/DTD/sodipodi-0.dtd"
   xmlns:inkscape="http://www.inkscape.org/namespaces/inkscape"
   inkscape:version="0.92.3 (2405546, 2018-03-11)"
   sodipodi:docname="button_9px_off.svg"
   id="svg80"
   viewBox="0 0 9.0 9.0"
   version="1.1"
   height="9.0"
   width="9.0">
  <metadata
     id="metadata86">
    <rdf:RDF>
      <cc:Work
         rdf:about="">
        <dc:format>image/svg+xml</dc:format>
        <dc:type
           rdf:resource="http://purl.org/dc/dcmitype/StillImage" />
        <dc:title></dc:title>
      </cc:Work>
    </rdf:RDF>
  </metadata>
  <defs
     id="defs84" />
  <sodipodi:namedview
     inkscape:current-layer="svg80"
     inkscape:window-maximized="0"
     inkscape:window-y="31"
     inkscape:window-x="0"
     inkscape:cy="4.5"
     inkscape:cx="4.5"
     inkscape:zoom="74.333333"
     showgrid="false"
     id="namedview82"
     inkscape:window-height="872"
     inkscape:window-width="1619"
     inkscape:pageshadow="2"
     inkscape:pageopacity="0"
     guidetolerance="10"
     gridtolerance="10"
     objecttolerance="10"
     borderopacity="1"
     bordercolor="#666666"
     pagecolor="#ffffff" />
  <path
     d="M 8.9000001,4.5 A 4.4000001,4.4000001 0 0 1 4.5,8.9000001 4.4000001,4.4000001 0 0 1 0.0999999,4.5 4.4000001,4.4000001 0 0 1 4.5,0.0999999 4.4000001,4.4000001 0 0 1 8.9000001,4.5"
     style="fill:#888888"
     id="circle56" />
  <path
     d="M 8.9000001,4.5 A 4.4000001,4.4000001 0 0 1 4.5,8.9000001 4.4000001,4.4000001 0 0 1 0.0999999,4.5 4.4000001,4.4000001 0 0 1 4.5,0.0999999 4.4000001,4.4000001 0 0 1 8.9000001,4.5"
     style="fill:#c1c1c1;fill-opacity:1"
     id="circle58" />
  <path
     d="M 8.6999998,4.5 A 4.1999998,4.1999998 0 0 1 4.5,8.6999998 4.1999998,4.1999998 0 0 1 0.30000019,4.5 4.1999998,4.1999998 0 0 1 4.5,0.30000019 4.1999998,4.1999998 0 0 1 8.6999998,4.5"
     style="fill:#555555;fill-opacity:0.94117647"
     id="circle60" />
</svg>
