<?xml version="1.0" encoding="UTF-8" standalone="no"?>
<svg
   width="10.16mm"
   height="128.5mm"
   viewBox="0 0 10.16 128.5"
   version="1.1"
   id="svg4352"
   inkscape:version="1.1.1 (3bf5ae0d25, 2021-09-20)"
   sodipodi:docname="P16S.svg"
   xmlns:inkscape="http://www.inkscape.org/namespaces/inkscape"
   xmlns:sodipodi="http://sodipodi.sourceforge.net/DTD/sodipodi-0.dtd"
   xmlns="http://www.w3.org/2000/svg"
   xmlns:svg="http://www.w3.org/2000/svg"
   xmlns:rdf="http://www.w3.org/1999/02/22-rdf-syntax-ns#"
   xmlns:cc="http://creativecommons.org/ns#"
   xmlns:dc="http://purl.org/dc/elements/1.1/">
  <defs
     id="defs4346" />
  <sodipodi:namedview
     id="base"
     pagecolor="#ffffff"
     bordercolor="#666666"
     borderopacity="1.0"
     inkscape:pageopacity="0.0"
     inkscape:pageshadow="2"
     inkscape:zoom="1.4142136"
     inkscape:cx="47.376153"
     inkscape:cy="248.19447"
     inkscape:document-units="mm"
     inkscape:current-layer="layer1"
     showgrid="false"
     inkscape:snap-bbox="false"
     inkscape:snap-nodes="false"
     inkscape:snap-bbox-midpoints="true"
     inkscape:snap-others="false"
     inkscape:snap-page="true"
     inkscape:window-width="1920"
     inkscape:window-height="1025"
     inkscape:window-x="0"
     inkscape:window-y="31"
     inkscape:window-maximized="1"
     inkscape:bbox-nodes="false"
     inkscape:snap-grids="false"
     inkscape:snap-global="false"
     inkscape:document-rotation="0"
     inkscape:pagecheckerboard="0" />
  <metadata
     id="metadata4349">
    <rdf:RDF>
      <cc:Work
         rdf:about="">
        <dc:format>image/svg+xml</dc:format>
        <dc:type
           rdf:resource="http://purl.org/dc/dcmitype/StillImage" />
      </cc:Work>
    </rdf:RDF>
  </metadata>
  <g
     inkscape:label="Layer 1"
     inkscape:groupmode="layer"
     id="layer1"
     transform="translate(0,-168.5)">
    <path
       inkscape:connector-curvature="0"
       style="fill:#000000;fill-opacity:1;fill-rule:nonzero;stroke:none;stroke-width:0.289658"
       d="M 10.173126,168.59302 H 0.0253395 V 296.90629 H 10.173126 Z m 0,0"
       id="path30841"
       sodipodi:insensitive="true" />
    <path
       inkscape:connector-curvature="0"
       style="fill:#ababab;fill-opacity:1;fill-rule:nonzero;stroke:none;stroke-width:0.288589"
       d="M 10.198466,168.5 H 0 V 296.99931 H 10.198466 Z M 10.073954,296.81328 H 0.12451149 V 168.68741 H 10.073954 Z m 0,0"
       id="path30843"
       sodipodi:insensitive="true" />
    <g
       aria-label="docB"
       inkscape:transform-center-x="-0.18898811"
       inkscape:transform-center-y="1.3229168"
       style="font-style:normal;font-variant:normal;font-weight:normal;font-stretch:normal;font-size:2.82222px;line-height:1.25;font-family:Chalkduster;-inkscape-font-specification:'Chalkduster, Normal';font-variant-ligatures:normal;font-variant-caps:normal;font-variant-numeric:normal;font-feature-settings:normal;text-align:start;letter-spacing:0px;word-spacing:0px;writing-mode:lr-tb;text-anchor:start;fill:#000000;fill-opacity:1;stroke:none;stroke-width:0.264583"
       id="text1992"
       transform="translate(-2.1774356,5.0181835)">
      <path
         d="m 5.4781167,289.65322 q 0,0.003 0.00312,0.009 0.00624,0.003 0.00936,0.006 h 0.00624 q 0.018711,0 0.021829,-0.0218 0.00624,-0.0218 0.00624,-0.0374 0.00936,0.0312 0.00936,0.053 0,0.0218 0,0.0468 0,0.0218 0.00312,0.0561 0.00312,0.0312 0.018711,0.0873 -0.018711,-0.006 -0.021829,0.0156 0,0.0187 0.00624,0.0468 0.00624,0.0281 0.012474,0.0561 0.00936,0.0281 0.00936,0.0374 v 0.0125 q 0.00312,0.0125 0.00936,0.0374 0.00936,0.0218 0.018711,0.0468 0.00936,0.025 0.015592,0.0468 0.00936,0.0218 0.012474,0.0281 0.00936,0.0187 0.04054,0.0686 0.034303,0.0499 0.074844,0.10603 0.04054,0.053 0.08108,0.0967 0.04054,0.0405 0.065488,0.0405 h 0.00624 q 0.00624,-0.003 0.021829,-0.0156 0.015592,-0.0125 0.021829,-0.0125 h 0.00624 q 0.00312,0 0.00312,0 0.00312,-0.003 0.00936,-0.003 0,0 0.00624,0.003 h 0.00624 q 0.00312,0 0.00624,0.0125 0.00312,0.0125 0.00624,0.0156 0.012474,0.006 0.021829,0 0.012474,-0.009 0.018711,0.0125 v 0.0218 0.0187 q 0.00312,0.006 0.018711,0.009 0.018711,0.003 0.024948,0.006 v 0.0125 q -0.00312,0.003 -0.015592,0.0156 -0.012474,0.0125 -0.012474,0.0156 -0.00312,0.006 0,0.0437 0.00312,0.0343 0,0.0405 -0.00312,0.006 -0.021829,0.0218 -0.018711,0.0156 -0.018711,0.0218 -0.00312,0.006 -0.00936,0.0249 -0.00312,0.0156 -0.00312,0.0218 -0.018711,0 -0.034303,-0.0156 -0.015592,-0.0187 -0.034303,-0.0187 -0.00312,0 -0.00624,0.003 -0.00312,0.003 -0.00936,0.0187 -0.00312,0.0187 -0.00624,0.0218 h -0.012512 q -0.00312,-0.003 -0.021829,-0.0218 -0.015592,-0.0187 -0.018711,-0.0187 -0.024948,-0.009 -0.053014,-0.006 -0.024948,0 -0.049896,-0.003 -0.021829,-0.006 -0.037422,-0.0249 -0.012474,-0.0187 -0.015592,-0.0655 -0.00624,0 -0.018711,0.006 -0.00936,0.006 -0.012474,0.006 -0.00312,0 -0.00312,0.003 0,-0.0686 -0.018711,-0.0811 -0.018711,-0.0156 -0.04054,-0.0156 -0.021829,0 -0.04054,-0.003 -0.018711,-0.003 -0.018711,-0.0561 -0.024948,0 -0.024948,-0.003 0.00312,-0.003 -0.021829,0.0156 v -0.0748 q 0,-0.003 -0.00624,-0.006 -0.00624,-0.006 -0.00936,-0.006 l -0.028066,0.0593 q -0.00312,-0.006 -0.00936,-0.0281 -0.00312,-0.0249 -0.00312,-0.0312 v -0.0125 q -0.00312,0 -0.00936,0 -0.00312,-0.003 -0.00624,-0.003 l -0.043659,0.0156 v -0.0156 q 0,-0.0156 0.00624,-0.0218 0.00624,-0.009 0.00624,-0.0249 0,-0.0218 -0.028066,-0.053 -0.024948,-0.0312 -0.04054,-0.0405 -0.00624,0.0187 -0.024948,0.0437 -0.018711,0.0218 -0.034303,0.0281 -0.00312,0 -0.021829,0.006 -0.015592,0.003 -0.037422,0.009 -0.021829,0.003 -0.043659,0.009 -0.018711,0.003 -0.024948,0.003 -0.015592,0.003 -0.021829,0.0156 -0.00312,0.009 -0.00936,0.0218 -0.00624,0.0125 -0.015592,0.0218 -0.00936,0.009 -0.034303,0.009 -0.015592,0 -0.015592,-0.0125 -0.015592,0.0249 -0.012474,0.0312 0.00312,0.003 0.00312,0.0281 h 0.015592 q 0,0.0125 -0.028066,0.0312 -0.024948,0.0187 -0.059251,0.0374 -0.034303,0.0187 -0.068606,0.0312 -0.034303,0.0125 -0.049896,0.0125 -0.00624,0 -0.015592,-0.003 -0.00936,-0.006 -0.012474,-0.009 0,0.006 -0.00624,0.0218 -0.00312,0.0125 -0.00624,0.0187 l -0.00624,0.003 -0.00936,-0.003 q -0.00312,0 -0.015592,-0.003 -0.012474,-0.006 -0.018711,-0.009 v 0.0561 h -0.00624 q -0.012474,0 -0.015592,-0.003 -0.018711,-0.003 -0.04054,-0.009 -0.018711,-0.006 -0.018711,-0.0312 0,-0.0156 0.00936,-0.0218 0.00936,-0.006 0.00936,-0.0249 0,-0.0156 -0.00312,-0.0281 -0.00312,-0.0125 -0.018711,-0.0125 -0.018711,0 -0.028066,0.0218 -0.00624,0.0187 -0.00936,0.0437 -0.00312,0.0218 -0.00312,0.0468 0,0.0218 0,0.0249 -0.00936,0 -0.028066,0 -0.018711,0 -0.04054,0.003 -0.021829,0 -0.04054,0.003 -0.018711,0 -0.028066,0 -0.00624,0 -0.018711,0.006 -0.00936,0.003 -0.012474,0.006 0.012474,-0.0343 -0.012474,-0.078 -0.021829,-0.0437 -0.053014,-0.0437 0,0.0468 0.018711,0.0811 0.021829,0.0343 0.021829,0.078 0,0.003 -0.00312,0.0125 0,0.006 0,0.009 -0.034303,-0.0437 -0.053014,-0.0561 -0.018711,-0.0125 -0.043659,-0.0561 0,-0.003 -0.00624,-0.006 -0.00624,-0.006 -0.00936,-0.009 h -0.00936 q -0.00936,0 -0.015592,0.0125 -0.00312,0.009 -0.00624,0.0218 -0.00312,0.0125 -0.00312,0.0249 0,0.0125 0,0.0156 -0.031185,0 -0.04054,-0.0187 -0.00624,-0.0187 -0.012474,-0.0374 -0.00312,-0.0218 -0.015592,-0.0343 -0.00936,-0.0125 -0.04054,0.003 -0.00936,0.0218 -0.015592,0.0468 -0.00624,0.0249 -0.012474,0.0499 h -0.012474 q -0.00624,-0.006 -0.021829,-0.0312 -0.012474,-0.025 -0.028066,-0.025 h -0.00624 q -0.00312,0.006 -0.00936,0.0218 -0.00312,0.0125 -0.00312,0.0187 -0.034303,-0.003 -0.068606,-0.0437 -0.034303,-0.0437 -0.034303,-0.078 0.015592,0 0.028066,-0.006 0.015592,-0.006 0.015592,-0.0249 0,-0.0343 -0.021829,-0.0624 -0.018711,-0.0312 -0.018711,-0.0593 0,-0.0156 0.00624,-0.0249 0.00624,-0.009 0.00624,-0.0249 0,-0.0281 -0.028066,-0.0281 -0.018711,0 -0.024948,0.0156 -0.00624,0.0156 -0.024948,0.0156 -0.00312,0 -0.00624,0 0,-0.003 -0.00312,-0.003 -0.021829,-0.053 -0.031185,-0.0967 -0.00936,-0.0437 -0.00936,-0.0967 0,-0.0561 0.00312,-0.0904 0.00312,-0.0374 0.024948,-0.0998 0.00312,-0.0125 0.012474,-0.0125 0.00936,-0.003 0.018711,-0.003 0.00936,0 0.015592,-0.003 0.00936,-0.003 0.00936,-0.0218 h -0.031185 q 0,-0.0374 0.012474,-0.0468 0.015592,-0.0125 0.031185,-0.0187 0.015592,-0.006 0.028066,-0.0156 0.015592,-0.009 0.015592,-0.0405 v -0.006 q 0,-0.003 -0.00624,-0.006 -0.00312,-0.006 -0.00624,-0.009 0.012474,-0.0249 0.021829,-0.053 0.012474,-0.0281 0.024948,-0.053 0.012474,-0.0249 0.031185,-0.0468 0.018711,-0.0218 0.049896,-0.0312 0.00312,-0.003 0.018711,0 0.018711,0 0.021829,0 0.012474,-0.009 0.015592,-0.0218 0.00312,-0.0156 0.00624,-0.0281 0.00624,-0.0156 0.021829,-0.0249 0.015592,-0.0125 0.049896,-0.0125 0.00312,0 0.00624,0.003 0.00312,0 0.00624,0.006 0.00624,0.006 0.00936,0.006 l 0.00624,0.003 q 0.00312,0 0.00624,-0.003 0.00312,0 0.00624,-0.006 0.00624,-0.006 0.00936,-0.006 l 0.00624,-0.003 q 0.015592,0 0.021829,0.009 0.00624,0.009 0.031185,0.009 0.031185,0 0.043659,-0.0281 0.015592,-0.0312 0.031185,-0.0312 l 0.00624,0.003 q 0.00312,0 0.012474,0.006 0.012474,0.006 0.015592,0.006 0.00312,0 0.015592,-0.006 0.012474,-0.006 0.015592,-0.006 h 0.00312 q 0.00312,0 0.00312,0 0,-0.003 0.00312,-0.003 l 0.00312,0.003 0.028066,0.0686 q 0.031185,0 0.031185,-0.0281 0,-0.0249 -0.018711,-0.0374 -0.018711,-0.0125 -0.018711,-0.0468 0.024948,0 0.04054,-0.009 0.015592,-0.009 0.04054,-0.009 0.034303,0 0.071725,0.0218 0.04054,0.0218 0.074843,0.0218 h 0.00624 q -0.012474,-0.0249 0,-0.0374 0.015592,-0.0156 0.037422,-0.0218 0.024948,-0.006 0.049896,-0.006 0.028066,-0.003 0.04054,-0.003 0.00624,0 0.015592,0.006 0.00936,0.003 0.012474,0.006 -0.00936,-0.0312 0.00312,-0.0343 0.015592,-0.006 0.031185,-0.006 0.034303,0 0.049896,0.0187 0.018711,0.0187 0.049896,0.0187 0,-0.0374 -0.00624,-0.0624 -0.00312,-0.0281 0.015592,-0.0624 0,-0.003 0.012474,-0.0125 0.012474,-0.009 0.015592,-0.0156 v -0.0125 q 0,-0.0405 -0.00936,-0.0717 -0.00624,-0.0343 -0.00624,-0.078 v -0.0936 l 0.015592,-0.0249 v -0.0156 l -0.015592,-0.0312 v -0.006 q 0,-0.0218 0.00624,-0.0499 0.00936,-0.0312 0.018711,-0.0593 0.00936,-0.0312 0.018711,-0.0593 0.00936,-0.0312 0.012474,-0.0499 0,-0.003 -0.00624,-0.0125 -0.00624,-0.0125 -0.00624,-0.0156 -0.00312,-0.009 -0.00312,-0.0187 v -0.0249 q 0,-0.0811 0.028066,-0.14657 0.031185,-0.0655 0.059251,-0.13721 0.024948,0.0312 0.056133,0.0437 0.00624,-0.0249 0.018711,-0.0468 0.015592,-0.025 0.046777,-0.025 h 0.00624 q 0.046777,0.0437 0.087317,0.0998 0.043659,0.053 0.068607,0.11539 l 0.015592,0.0561 q 0.00624,0.006 0.012474,0.0405 0.00936,0.0343 0.015592,0.0405 0.00312,0.003 -0.00936,0.0218 -0.00936,0.0187 -0.018711,0.0218 -0.034303,0.006 -0.031185,0.0312 0.00624,0.0218 0.021829,0.0593 0.015592,0.0343 0.028066,0.078 0.015592,0.0405 0.00624,0.0873 -0.00624,-0.006 -0.024948,-0.0125 -0.00624,-0.006 -0.012474,-0.0156 -0.00312,-0.0125 -0.00312,-0.0156 0,-0.003 0.00624,-0.0187 0.00624,-0.0187 0.00936,-0.0218 v -0.0156 q 0,-0.0156 -0.00624,-0.0281 -0.00624,-0.0156 -0.021829,-0.0156 -0.00936,0 -0.018711,0.0156 -0.00936,0.0156 -0.018711,0.0343 -0.00936,0.0187 -0.015592,0.0374 -0.00624,0.0187 -0.00624,0.0218 0,0.0218 0.021829,0.025 0.024948,0 0.037422,-0.003 l 0.012474,0.0842 -0.028066,0.0125 q 0.00624,0.006 0.015592,0.0249 0.00936,0.0156 0.012474,0.0218 0,0.003 0.00312,0.006 0.00312,0.003 0.00624,0.009 0.00312,0.006 0.00624,0.009 0,0.003 -0.00624,0.009 -0.00624,0.003 -0.00936,0.006 0,0 -0.00312,0.003 0,0.0281 -0.00624,0.0499 -0.00624,0.0187 -0.015592,0.0374 -0.00936,0.0156 -0.015592,0.0343 -0.00624,0.0156 -0.00624,0.0405 -0.021829,0 -0.043659,-0.009 -0.021829,-0.009 -0.021829,0.0281 0,0.0281 0.012474,0.0437 0.012474,0.0125 0.028066,0.0218 0.018711,0.009 0.034303,0.0187 0.018711,0.009 0.024948,0.0281 0,0.006 0.00312,0.0218 0.00624,0.0156 0.00936,0.0374 0.00624,0.0187 0.00936,0.0374 0.00312,0.0156 0.00624,0.0187 0,0.0125 0.012474,0.0125 0.012474,-0.003 0.021829,-0.0125 l 0.00936,0.0312 q -0.043659,0.003 -0.043659,0.053 z m -1.3503008,0.54885 q 0,0.0281 0.034303,0.0499 0.037422,0.0218 0.053014,0.0374 l 0.056133,0.0748 q 0.018711,0.0187 0.059251,0.0312 0.043659,0.009 0.068606,0.0218 0.00936,0 0.04054,0.003 0.034303,0 0.043659,0 0.056133,0 0.096673,-0.006 0.04054,-0.006 0.077962,-0.0187 0.04054,-0.0125 0.08108,-0.0312 0.043659,-0.0187 0.099791,-0.0437 0.012474,-0.006 0.034303,-0.0218 0.024948,-0.0156 0.049896,-0.0281 0.024948,-0.0156 0.043659,-0.025 0.021829,-0.0125 0.028066,-0.009 l 0.099791,-0.0998 h 0.037422 v 0.0717 h 0.037422 q 0,-0.003 -0.00312,-0.006 0,-0.006 0,-0.009 l -0.015592,-0.0312 v -0.006 q 0,-0.0125 0.00936,-0.0312 0.00936,-0.0187 0.024948,-0.0187 0,0 0.00624,0.003 h 0.00312 l 0.012474,0.0125 0.04054,0.0281 q 0.034303,-0.0156 0.034303,-0.0499 0,-0.0156 -0.024948,-0.0281 -0.021829,-0.0125 -0.034303,-0.0187 0.00312,-0.006 0.012474,-0.0218 0.012474,-0.0156 0.012474,-0.0218 v -0.009 q 0,-0.006 -0.00312,-0.0249 0,-0.0187 -0.00624,-0.0374 -0.00312,-0.0187 -0.012474,-0.0312 -0.00624,-0.0156 -0.018711,-0.0125 -0.00312,0 -0.012474,0.0156 -0.00936,0.0125 -0.015592,0.0156 h -0.028066 q -0.00312,-0.0218 -0.012474,-0.0624 -0.00936,-0.0405 -0.043659,-0.0405 -0.028066,0 -0.043659,0.0312 l -0.04054,-0.0561 q 0,-0.003 0.00312,-0.006 0.00624,-0.006 0.00936,-0.009 0.015592,-0.009 0.024948,-0.0125 0.00936,-0.006 0.012474,-0.0125 0.00624,-0.006 0.00624,-0.0156 0.00312,-0.0125 0.00312,-0.0374 -0.034303,0 -0.046777,0.0281 -0.00936,0.0249 -0.028066,0.0499 -0.00312,-0.0405 -0.021829,-0.0592 -0.015592,-0.0218 -0.034303,-0.0312 -0.018711,-0.0125 -0.034303,-0.0187 -0.012474,-0.006 -0.00936,-0.0218 -0.012474,0.0249 -0.012474,0.0312 0,0.003 0.00624,0.0156 0.00624,0.009 0.00624,0.0125 v 0.006 q 0,0.003 -0.00312,0.006 -0.018711,0 -0.04054,-0.006 -0.018711,-0.006 -0.04054,-0.006 h -0.015592 q -0.00312,0.003 -0.015592,0.009 -0.00936,0.006 -0.012474,0.006 l -0.028066,-0.0281 q 0,0 -0.00624,-0.003 l -0.00624,0.003 -0.059251,0.0281 q -0.053014,0.009 -0.1216206,0.0125 -0.065488,0.003 -0.1340945,0.0156 -0.068607,0.009 -0.1247392,0.0405 -0.056132,0.0281 -0.084199,0.0873 -0.00312,0.003 -0.00312,0.0218 0.00312,0.0187 0.00312,0.0218 -0.015592,0.0343 -0.046777,0.0624 -0.028066,0.0281 -0.028066,0.0717 0,0.0218 0.00624,0.0405 0.00936,0.0156 0.00936,0.0374 0,0.0187 -0.00936,0.0343 -0.00624,0.0125 -0.00624,0.0312 z m 1.5779497,0.43971 q 0,0.0281 0.021829,0.0405 0.024948,0.009 0.046777,0.009 0.021829,0 0.031185,-0.006 0.012474,-0.006 0.012474,-0.0312 0,-0.0218 -0.012474,-0.0343 -0.012474,-0.0125 -0.028066,-0.0187 -0.015592,-0.006 -0.034303,-0.0125 -0.015592,-0.009 -0.024948,-0.0281 -0.00312,0.006 -0.00936,0.0374 -0.00312,0.0281 -0.00312,0.0343 z M 5.291008,288.95156 q 0,0.0156 0.015592,0.0405 0.018711,0.0249 0.034303,0.0249 h 0.00624 q 0.00312,0 0.00312,-0.003 l 0.00624,-0.0125 q 0.00624,-0.0125 0.00624,-0.0125 v -0.0156 q 0,-0.006 -0.00624,-0.0343 -0.00624,-0.0312 -0.00624,-0.0374 -0.00312,0 -0.00624,0 0,-0.003 -0.00312,-0.003 l -0.00624,0.003 -0.04054,0.0405 z m -0.1434499,0.31497 q 0,0.009 0,0.0249 0.00312,0.0156 0.018711,0.0218 l 0.028066,-0.0281 q -0.00624,-0.0156 -0.021829,-0.0156 -0.015592,-0.003 -0.024948,-0.003 z m -0.4833641,0.3555 q 0,0.0343 0.034303,0.0343 0,-0.0343 -0.034303,-0.0343 z m 0.090436,0.0187 q 0.012474,-0.006 0.015592,-0.0187 0.00312,-0.0156 0.00312,-0.0249 H 4.754631 Z m 0.6954205,-0.0998 q -0.015592,0.006 -0.018711,0.0187 0,0.0125 0,0.0218 h 0.018711 z m -0.015592,0.76403 q -0.00936,0 -0.00936,0.0156 0,0.0156 0.00936,0.0156 0.012474,0 0.012474,-0.0156 0,-0.0156 -0.012474,-0.0156 z m 0.015592,-0.69542 q -0.012474,0 -0.012474,0.0156 0,0.0156 0.012474,0.0156 0.00936,0 0.00936,-0.0156 0,-0.0156 -0.00936,-0.0156 z m -0.5394966,-0.1684 q -0.012474,0 -0.012474,0.0156 0,0.0125 0.012474,0.0125 0.00936,0 0.00936,-0.0125 0,-0.0156 -0.00936,-0.0156 z m 0.04054,1.05093 q -0.00936,0 -0.00936,0.0156 0,0.0125 0.00936,0.0125 0.012474,0 0.012474,-0.0125 0,-0.0156 -0.012474,-0.0156 z m 0.2276488,-0.17152 q -0.00936,0 -0.00936,0.0156 0,0.0125 0.00936,0.0125 0.012474,0 0.012474,-0.0125 0,-0.0156 -0.012474,-0.0156 z m -1.2068508,-0.33991 h 0.015592 v -0.0281 h -0.015592 z m 0.9511357,-0.38357 q 0.018711,-0.009 0.018711,-0.0281 h -0.018711 z m -0.2120565,-0.0437 h 0.015592 v -0.0125 h -0.015592 z m 0.4677716,-0.14033 v -0.0281 l -0.012474,0.0125 z m 0.3118478,0.48024 h 0.012474 v -0.0125 h -0.012474 z m -1.5717127,0.35551 h 0.012474 v -0.0125 h -0.012474 z m 0.1559239,-0.49584 q 0,-0.006 -0.00936,-0.006 -0.00624,0 -0.00624,0.006 0.00624,0.0156 0.015592,0 z m 1.247391,-1.31912 q -0.00624,-0.003 -0.00624,0.006 0,0.009 0.00624,0.009 0.015592,-0.006 0,-0.0156 z m -0.2432412,1.80248 h 0.015592 l -0.015592,-0.0156 z m -0.2681891,0.28379 q -0.00624,-0.003 -0.00624,0.006 0,0.006 0.00624,0.006 0.00624,-0.003 0.00624,-0.006 0,-0.006 -0.00624,-0.006 z m 0.8669368,0.0842 v -0.0125 h -0.018711 z m -0.3835728,-1.19125 0.012474,-0.0156 h -0.012474 z m -1.2785758,1.23491 h 0.012474 l -0.012474,-0.0156 z m 0.7234868,-0.0748 v -0.0125 h -0.012474 z m 0.7858564,-0.97296 v 0.009 q -0.00312,-0.003 -0.00312,-0.009 z"
         style="font-style:normal;font-variant:normal;font-weight:normal;font-stretch:normal;font-size:2.82222px;font-family:Chalkduster;-inkscape-font-specification:'Chalkduster, Normal';font-variant-ligatures:normal;font-variant-caps:normal;font-variant-numeric:normal;font-feature-settings:normal;text-align:start;writing-mode:lr-tb;text-anchor:start;fill:#13ba65;fill-opacity:1;stroke-width:0.264583"
         id="path1994"
         inkscape:connector-curvature="0" />
      <path
         d="m 6.3779424,290.73845 q -0.00624,0 -0.024948,0.003 -0.015592,0 -0.021829,0 0,0.003 -0.00624,0.009 -0.00624,0.006 -0.00936,0.006 h -0.068607 l -0.012474,0.0281 q 0,-0.0499 -0.049896,-0.0624 -0.046777,-0.0125 -0.084199,-0.0125 -0.012474,0 -0.024948,0.003 -0.00936,0 -0.021829,0.0125 v -0.0936 l -0.00624,-0.006 q -0.00624,-0.006 -0.00624,-0.009 -0.00624,0 -0.021829,-0.006 -0.015592,-0.009 -0.034303,-0.0187 -0.018711,-0.009 -0.034303,-0.0187 -0.015592,-0.009 -0.018711,-0.0125 -0.021829,-0.009 -0.021829,-0.0312 0,-0.0249 -0.021829,-0.0374 -0.015592,0.003 -0.015592,0.0156 0,0.0125 0.00312,0.0281 0.00312,0.0156 0,0.0281 0,0.0125 -0.015592,0.0125 -0.00936,0 -0.04054,-0.009 -0.031185,-0.009 -0.031185,-0.0249 v -0.006 q 0.00624,-0.0125 0.018711,-0.0156 -0.00624,-0.006 -0.021829,-0.0156 -0.012474,-0.0125 -0.021829,-0.0125 -0.018711,0 -0.024948,0.009 -0.00312,0.009 -0.00624,0.0187 0,0.009 -0.00312,0.0187 -0.00312,0.009 -0.012474,0.009 -0.012474,0 -0.028066,-0.006 -0.012474,-0.006 -0.018711,-0.0218 0.015592,-0.003 0.015592,-0.0187 0,-0.0156 0,-0.0218 0,-0.0405 -0.024948,-0.0686 -0.024948,-0.0281 -0.049896,-0.0561 -0.00312,0 -0.00312,-0.003 -0.00312,-0.003 -0.00312,-0.009 0.034303,0 0.046777,-0.0281 0.012474,-0.0312 0.018711,-0.0593 0,-0.003 0,-0.0249 0,-0.0249 0,-0.053 0,-0.0281 0,-0.053 0,-0.0249 0,-0.0312 0,-0.0312 0.012474,-0.0561 0.015592,-0.0249 0.015592,-0.053 0,-0.003 -0.00312,-0.003 0,-0.003 0,-0.006 v -0.006 q 0,-0.003 -0.012474,-0.0187 -0.012474,-0.0187 -0.012474,-0.0218 l -0.00312,-0.003 v -0.006 l 0.00312,-0.003 q 0.012474,-0.0249 0.024948,-0.0624 0.012474,-0.0405 0.031185,-0.0655 0,-0.003 0.00312,-0.006 0,-0.003 0,-0.003 0.00312,0 0.00312,-0.003 0.04054,-0.0249 0.056133,-0.0592 0.015592,-0.0343 0.031185,-0.078 0.00312,0.0125 0.012474,0.0156 0.00936,0 0.015592,0 h 0.012474 l -0.034303,-0.0655 0.1465684,-0.0374 q 0,-0.0468 0.018711,-0.0624 0.021829,-0.0187 0.049896,-0.0249 0.028066,-0.006 0.059251,-0.0125 0.031185,-0.006 0.053014,-0.0343 h 0.1216369 v -0.0436 l -0.015592,0.003 q -0.00312,0 -0.012474,-0.006 -0.00936,-0.006 -0.012474,-0.009 l 0.012474,-0.0125 h 0.137213 l 0.015592,-0.0281 q -0.00624,0.0468 0,0.078 0.00624,0.0312 0.015592,0.0593 0.00936,0.0281 0.015592,0.0561 0.00936,0.0249 0.00936,0.0624 v 0.0218 l -0.096673,0.0842 -0.00624,0.003 q -0.015592,0 -0.015592,-0.0156 0,-0.0156 -0.024948,-0.0156 -0.037422,0 -0.04054,0.0218 -0.00312,0.0187 -0.00312,0.0499 -0.021829,0 -0.034303,0.009 -0.00936,0.006 -0.015592,0.0187 -0.00624,0.0125 -0.015592,0.0281 -0.00624,0.0125 -0.024948,0.0249 l -0.037422,0.009 q -0.00312,0.003 -0.018711,0.0312 -0.015592,0.0249 -0.021829,0.0374 -0.00936,0.0187 -0.024948,0.0218 -0.015592,0.003 -0.031185,0.006 -0.012474,0.003 -0.021829,0.009 -0.00936,0.003 -0.00936,0.0218 0,0.0187 0.00624,0.0374 0.00936,0.0187 0.00936,0.0437 0,0.0499 -0.015592,0.0655 -0.012474,0.0156 -0.04054,0.0437 v 0.009 q 0,0.0499 0.00624,0.0717 0.00936,0.0218 0.021829,0.0343 0.012474,0.009 0.028066,0.0187 0.015592,0.009 0.028066,0.0312 0.00936,0.0249 0.018711,0.0655 0.00936,0.0405 0.037422,0.0468 0.049896,0.0156 0.099791,0.0343 0.053014,0.0187 0.1060283,0.0343 0.077962,0.0218 0.1715162,0.0249 0.093554,0.003 0.1746348,0.003 0.04054,0 0.065488,-0.006 0.024948,-0.006 0.04054,-0.0187 0.015592,-0.0156 0.028066,-0.0374 0.012474,-0.0218 0.028066,-0.0499 0.021829,0.0343 0.024948,0.0312 0.00312,-0.003 0.028066,-0.003 0,-0.0156 0.00312,-0.0405 0.00312,-0.0281 0.00936,-0.053 0.00936,-0.0281 0.024948,-0.0468 0.018711,-0.0187 0.046777,-0.0187 0,0.025 0.012474,0.0312 0.012474,0.003 0.028066,0.003 0,-0.0405 0.00312,-0.0499 0.00312,-0.0125 -0.00936,-0.0468 h 0.00624 q 0.034303,0 0.049896,0.0156 0.015592,0.0156 0.021829,0.0343 0.00936,0.0187 0.015592,0.0343 0.00624,0.0156 0.021829,0.0156 l 0.00624,-0.003 q 0.00624,-0.0343 0.00936,-0.0561 0.00624,-0.0218 0.00624,-0.053 0,-0.0187 -0.00936,-0.0281 -0.00936,-0.0125 -0.018711,-0.0218 -0.00936,-0.009 -0.018711,-0.0187 -0.00936,-0.0125 -0.00936,-0.0281 0,-0.0125 0.015592,-0.0405 0.015592,-0.0281 0.015592,-0.053 0,-0.0343 -0.015592,-0.053 -0.015592,-0.0187 -0.043659,-0.0624 -0.00936,0.006 -0.028066,-0.006 -0.015592,-0.0156 -0.037422,-0.0343 -0.018711,-0.0218 -0.04054,-0.0405 -0.021829,-0.0218 -0.043659,-0.0281 -0.015592,-0.003 -0.059251,-0.006 -0.04054,-0.006 -0.087317,-0.0156 -0.046777,-0.009 -0.084199,-0.0218 -0.034303,-0.0156 -0.034303,-0.0374 v -0.11227 q 0,-0.006 -0.012474,-0.0156 -0.012474,-0.009 -0.018711,-0.0156 l -0.00624,0.006 q -0.00312,0.003 -0.00624,0.003 -0.00312,0 -0.00312,0.003 0,0.003 -0.00624,0.0156 -0.00624,0.0125 -0.00312,0.0187 0,0.003 0.012474,0.0187 0.012474,0.0156 0.012474,0.0218 0,0.003 -0.00936,0.0187 -0.00936,0.0156 -0.015592,0.0249 l -0.012474,0.0125 q 0.00312,-0.009 0,-0.0218 -0.00312,-0.0156 -0.018711,-0.0187 0,0.009 -0.00624,0.0281 -0.00624,0.0156 -0.015592,0.0249 -0.018711,-0.009 -0.031185,-0.0468 -0.012474,-0.0405 -0.018711,-0.0842 -0.00312,-0.0437 -0.00624,-0.0811 0,-0.0405 0,-0.0468 0.049896,0 0.059251,-0.0125 0.012474,-0.0125 0.037422,-0.0593 0.012474,0.006 0.012474,0.0218 0,0.0218 -0.00936,0.0405 -0.00624,0.0156 -0.00624,0.0343 0,0.0125 0.00312,0.0218 0.00624,0.009 0.024948,0.0156 0.021829,-0.0125 0.028066,-0.0312 0.00936,-0.0218 0.024948,-0.0374 0.00936,0.0156 0.012474,0.0249 0.00624,0.006 0.00624,0.0156 0,0.006 -0.00312,0.0156 0,0.006 0,0.0218 0.024948,0 0.034303,0 0.00936,-0.003 0.053014,-0.003 0,-0.0218 -0.00624,-0.0468 -0.00312,-0.0249 -0.037422,-0.0249 v -0.003 q 0.00936,0 0.021829,-0.003 0.00936,0 0.015592,0 0.00936,-0.003 0.015592,-0.003 h 0.012474 0.00312 q 0.00312,0.003 0.015592,0.0343 0.012474,0.0312 0.034303,0.0312 0.015592,0 0.018711,-0.0187 0.00624,-0.0187 0.012474,-0.0281 l 0.00936,-0.003 q 0.024948,0 0.04054,0.0218 0.015592,0.0187 0.021829,0.0374 l 0.04054,-0.0405 q 0.024948,0.0156 0.034303,0.0468 0.00936,0.0281 0.034303,0.0343 0.021829,0.009 0.059251,0.0249 0.04054,0.0125 0.077962,0.0343 0.04054,0.0218 0.068607,0.0499 0.031185,0.0249 0.031185,0.0592 v 0.22453 h 0.00936 l 0.087317,-0.0811 q -0.015592,-0.0125 -0.037422,-0.0437 -0.018711,-0.0343 -0.018711,-0.0499 v -0.009 q 0.00312,-0.006 0.00624,-0.0125 0.00624,-0.009 0.00936,-0.0156 0,0 0.00624,-0.003 0.00936,0 0.015592,0.0156 0.00936,0.0125 0.015592,0.0312 0.00936,0.0187 0.012474,0.0374 0.00312,0.0156 0.00312,0.0187 0,0.003 0.00312,0.003 h 0.00624 q 0.015592,0 0.018711,-0.0156 0.00312,-0.0156 0.00312,-0.0312 h 0.04054 q 0.012474,0.0624 0.024948,0.10603 0.015592,0.0405 0.015592,0.0967 0,0.0343 -0.00312,0.0561 -0.00312,0.0187 -0.012474,0.0343 -0.00624,0.0156 -0.018711,0.0343 -0.012474,0.0187 -0.034303,0.0468 0.00936,0.0156 0.024948,0.0187 0.018711,0.003 0.018711,0.0218 0,0.0187 -0.018711,0.0218 -0.018711,0.003 -0.043659,0.009 -0.021829,0.003 -0.04054,0.0187 -0.018711,0.0156 -0.018711,0.0561 0,0.0125 0.00624,0.0156 0.00936,0.003 0.018711,0.006 0.012474,0 0.018711,0.003 0.00936,0.003 0.00936,0.0156 0,0.003 -0.00312,0.006 -0.031185,0.009 -0.046777,0.0125 -0.012474,0.003 -0.024948,0.003 -0.00936,0 -0.021829,0 -0.012474,-0.003 -0.04054,-0.003 0,0.009 0.00312,0.0468 0.00624,0.0374 0.00624,0.0499 0,0.003 -0.00936,0.0156 -0.00624,0.009 -0.00624,0.0125 -0.00312,0.003 -0.00624,0.0218 -0.00312,0.0156 -0.00624,0.0218 0,-0.0156 -0.012474,-0.0405 -0.012474,-0.0249 -0.028066,-0.0312 -0.018711,-0.006 -0.024948,0.006 -0.00312,0.009 -0.00312,0.0218 0,0.0218 0.015592,0.0374 0.015592,0.0125 0.015592,0.0312 0,0.0218 -0.012474,0.0343 -0.012474,0.0125 -0.028066,0.0218 -0.015592,0.006 -0.031185,0.0156 -0.012474,0.009 -0.015592,0.0281 l -0.028066,-0.0561 v 0.0873 q -0.00624,0 -0.012474,0.003 -0.012474,0.006 -0.015592,0.006 H 7.026587 v -0.0842 H 7.004758 q 0,0.009 -0.00936,0.0312 -0.00936,0.0218 -0.024948,0.0468 -0.012474,0.0249 -0.028066,0.0437 -0.015592,0.0187 -0.031185,0.0187 -0.021829,0 -0.031185,-0.0156 -0.00624,-0.0156 -0.012474,-0.0405 H 6.86442 q -0.028066,0 -0.04054,0.009 -0.012474,0.009 -0.021829,0.0218 -0.00936,0.0125 -0.018711,0.0281 -0.00936,0.0125 -0.024948,0.0249 h -0.00312 q -0.015592,0 -0.018711,-0.0218 -0.00312,-0.0218 -0.00936,-0.0468 -0.00312,-0.0249 -0.015592,-0.0468 -0.00936,-0.0218 -0.04054,-0.0218 0,0.0125 0.00312,0.0343 0.00312,0.0218 0.00312,0.0499 0.00312,0.0249 0,0.0499 -0.00312,0.0249 -0.015592,0.0437 -0.012474,0 -0.012474,-0.0125 0,-0.006 0.00312,-0.0249 0.00624,-0.0156 0.00936,-0.0218 v -0.003 -0.006 q -0.00624,-0.0187 -0.015592,-0.0499 -0.00936,-0.0343 -0.015592,-0.0343 h -0.00936 q -0.00312,0 -0.037422,0.0343 -0.031185,0.0312 -0.049896,0.0499 -0.00936,0.0218 -0.018711,0.0343 -0.018711,0.0343 -0.024948,0.0343 -0.018711,0 -0.024948,-0.0156 -0.00312,-0.0125 -0.00936,-0.0281 -0.00312,-0.0156 -0.018711,-0.0281 -0.015592,-0.0156 -0.059251,-0.0156 z m 0.3929282,-0.0125 q -0.00936,0 -0.00936,0.0156 0,0.0156 0.00936,0.0156 0.012474,0 0.012474,-0.0156 0,-0.0156 -0.012474,-0.0156 z m -0.3586249,-0.106 q -0.031185,0 -0.037422,0.0249 -0.00312,0.0249 -0.00312,0.0499 v 0.0156 q 0.031185,0 0.034303,-0.0343 0.00624,-0.0343 0.00624,-0.0561 z m 0.1091467,0.053 q 0,0.006 0.00624,0.009 0.00624,0.003 0.00624,0.009 h 0.012474 q 0.04054,0 0.065488,-0.0312 0.024948,-0.0343 0.024948,-0.0717 -0.034303,0 -0.074843,0.0187 -0.04054,0.0156 -0.04054,0.0624 z m -0.2463597,0 0.012474,-0.0125 -0.012474,-0.0125 q 0,0 -0.00624,-0.003 -0.00312,0 -0.00312,0.003 0,0 -0.00312,0 h -0.00312 z m -0.2214119,-0.0967 h 0.012474 l -0.012474,-0.0156 z m 1.1600736,-0.14969 q -0.00624,0 -0.00624,0.0125 0,0.009 0.00624,0.009 0.012474,0 0.012474,-0.009 0,-0.0125 -0.012474,-0.0125 z m -0.053014,0 h 0.043659 q -0.00624,-0.0156 -0.015592,-0.0156 -0.00936,-0.003 -0.015592,-0.003 -0.00312,0 -0.00312,0.003 0,0 -0.00312,0 h -0.00624 z m 0.077962,-0.29937 q 0,0.003 0.00312,0.006 0.00312,0.006 0.00624,0.009 0.00624,0.006 0.00936,0.006 v -0.006 -0.009 q -0.00312,0 -0.00624,-0.006 -0.00312,-0.006 -0.00936,-0.006 0,0 -0.00312,0.006 z m -0.1060283,-0.0343 0.012474,-0.0125 h -0.012474 z m 0.012474,-0.10914 q -0.00312,0.003 -0.00624,0.0187 -0.00312,0.0156 -0.00624,0.0218 l -0.00312,0.0218 q 0.015592,0 0.021829,-0.0187 0.00936,-0.0218 0.00936,-0.0312 0,-0.0125 -0.015592,-0.0125 z m -0.012474,-0.0281 q -0.012474,0 -0.012474,0.0156 0,0.0125 0.012474,0.0125 0.00936,0 0.00936,-0.0125 0,-0.0156 -0.00936,-0.0156 z m 0.096673,0 q -0.012474,0 -0.012474,0.0156 0,0.0125 0.012474,0.0125 0.00936,0 0.00936,-0.0125 0,-0.0156 -0.00936,-0.0156 z m 0.137213,0.0125 h 0.015592 v -0.0125 h -0.015592 z m -0.2494782,-0.0405 q -0.00936,0 -0.00936,0.0156 0,0.0125 0.00936,0.0125 0.012474,0 0.012474,-0.0125 0,-0.0156 -0.012474,-0.0156 z m 0.087317,-0.0125 h 0.00936 v -0.0125 h -0.00936 z m -1.4937508,-0.0437 q -0.00624,0 -0.00624,0.009 0,0.006 0.00624,0.003 0.00624,0 0.00624,-0.003 0,-0.006 -0.00624,-0.009 z m 1.4344997,-0.009 h 0.015592 v -0.0156 h -0.015592 z m -1.3658932,-0.053 q 0,0.0374 0.028066,0.0374 h 0.012474 q 0.021829,-0.0312 0.04054,-0.0655 0.018711,-0.0343 0.018711,-0.0717 -0.00624,0 -0.021829,0.0156 -0.015592,0.0156 -0.034303,0.0343 -0.015592,0.0187 -0.031185,0.0343 -0.012474,0.0156 -0.012474,0.0156 z m 1.4095519,-0.0624 q -0.012474,0 -0.012474,0.0156 0,0.0125 0.012474,0.0125 0.012474,0 0.012474,-0.0125 0,-0.0156 -0.012474,-0.0156 z m 0,-0.0405 q -0.012474,0 -0.012474,0.0125 0,0.0125 0.012474,0.0125 0.012474,0 0.012474,-0.0125 0,-0.0125 -0.012474,-0.0125 z m -0.6673542,-0.0811 h 0.021829 q 0,-0.0125 -0.00624,-0.0249 -0.00312,-0.0125 -0.015592,-0.0187 z m -0.028066,-0.0842 q 0,0.003 0.00624,0.0125 0.00624,0.009 0.012474,0.0156 v -0.0405 h -0.018711 z m -0.00936,-0.0312 0.00936,-0.0125 h -0.00936 z m -0.3305586,-0.0125 h 0.00936 v -0.0561 h -0.00936 z m 0.056133,0 h 0.024948 q 0,-0.009 -0.00624,-0.0187 -0.00312,-0.009 -0.012474,-0.009 h -0.00624 z"
         style="font-style:normal;font-variant:normal;font-weight:normal;font-stretch:normal;font-size:2.82222px;font-family:Chalkduster;-inkscape-font-specification:'Chalkduster, Normal';font-variant-ligatures:normal;font-variant-caps:normal;font-variant-numeric:normal;font-feature-settings:normal;text-align:start;writing-mode:lr-tb;text-anchor:start;fill:#fcde3f;fill-opacity:1;stroke-width:0.264583"
         id="path1996"
         inkscape:connector-curvature="0" />
      <path
         d="m 8.3102203,290.81641 q -0.00312,-0.006 -0.00624,-0.0312 -0.00312,-0.0218 -0.00624,-0.0281 -0.00312,-0.0125 -0.015592,-0.0125 -0.012474,-0.003 -0.024948,-0.006 -0.012474,-0.003 -0.021829,-0.006 -0.00936,-0.006 -0.00624,-0.0218 -0.015592,0.0156 -0.034303,0.0312 -0.018711,0.0125 -0.034303,0.0249 v -0.0405 q -0.015592,0 -0.028066,0.0125 -0.00936,0.0125 -0.015592,0.0281 -0.00624,0.0156 -0.012474,0.0281 -0.00312,0.0125 -0.00624,0.0125 -0.018711,0 -0.018711,-0.0281 0,-0.0218 0.00936,-0.0374 0.012474,-0.0156 0.012474,-0.0405 0,-0.0499 -0.04054,-0.0499 -0.00312,0 -0.00624,0.003 -0.00312,0 -0.012474,0.009 -0.00624,0.009 -0.00936,0.0125 -0.00624,0 -0.037422,0 -0.028066,-0.003 -0.034303,0 -0.00312,0 -0.012474,0.0125 -0.00624,0.009 -0.00936,0.0125 l -0.043659,0.0218 -0.015592,-0.0218 h -0.00936 q -0.00624,0 -0.012474,0 -0.00312,-0.003 -0.00624,-0.003 -0.021829,0 -0.037422,0.009 -0.015592,0.006 -0.037422,0.006 -0.015592,0 -0.021829,-0.006 -0.00312,-0.006 -0.021829,-0.006 h -0.012474 q -0.00624,0.003 -0.021829,0.0218 -0.012474,0.0156 -0.015592,0.0218 -0.00312,-0.003 -0.00936,-0.0156 -0.00312,-0.0125 -0.00312,-0.0187 0.00312,-0.003 0.012474,-0.0218 0.00936,-0.0187 0.00936,-0.0249 l 0.00312,-0.009 q 0,-0.0249 -0.018711,-0.0249 -0.015592,0 -0.018711,0.0156 0,0.0125 0,0.0249 -0.021829,0 -0.018711,-0.0281 0.00624,-0.0281 0,-0.0343 -0.00312,-0.003 -0.012474,-0.003 -0.00936,-0.003 -0.021829,-0.003 -0.00936,-0.003 -0.018711,-0.006 -0.00624,-0.006 -0.00624,-0.0187 0,-0.0156 0.00312,-0.0249 0.00624,-0.0125 0.00624,-0.0249 v -0.0156 q 0,-0.003 -0.00936,-0.006 -0.00936,-0.003 -0.012474,-0.003 -0.021829,0 -0.028066,0.009 -0.00624,0.006 -0.00936,0.0156 -0.00312,0.009 -0.00936,0.0187 -0.00312,0.006 -0.021829,0.006 v -0.0249 q 0,-0.003 -0.00624,-0.0125 -0.00624,-0.009 -0.00624,-0.0125 0,-0.0125 0.012474,-0.0249 l 0.00936,-0.009 q 0.00312,-0.006 0,-0.0187 -0.00312,-0.0156 -0.00312,-0.0218 -0.00624,0 -0.015592,0.006 -0.00936,0.003 -0.015592,0.003 0,-0.003 -0.00936,-0.0156 -0.00936,-0.0125 -0.012474,-0.0125 h -0.012474 -0.012474 q -0.00312,0.003 -0.00936,0.0125 -0.00312,0.009 0,0.0156 0.00312,0.0156 0.012474,0.0187 0.00936,0.003 0.018711,0.003 0.012474,0 0.018711,0.003 0.00624,0 0.00624,0.0156 h -0.077917 q 0,-0.0343 -0.00936,-0.0499 -0.00936,-0.0187 -0.021829,-0.0281 -0.012474,-0.009 -0.021829,-0.0156 -0.00936,-0.009 -0.00936,-0.0249 v -0.006 q 0.00312,0 0.00624,-0.003 0.00624,-0.006 0.00936,-0.006 v -0.009 q 0,-0.0156 -0.015592,-0.0218 -0.012474,-0.006 -0.012474,-0.0218 0,-0.006 0,-0.009 0.00312,-0.006 0.00312,-0.009 0,-0.003 0.00312,-0.009 0.00624,-0.009 0.00624,-0.0125 0,-0.006 -0.015592,-0.0125 -0.015592,-0.009 -0.015592,-0.0156 -0.00312,0 -0.00312,-0.003 v -0.006 q 0,-0.0218 0.015592,-0.0281 0.015592,-0.009 0.034303,-0.0125 0.021829,-0.003 0.04054,-0.006 0.021829,-0.006 0.028066,-0.0218 -0.00624,-0.0156 -0.021829,-0.0156 -0.00312,0 -0.00624,0.003 0,0 -0.00312,0 h -0.00312 q -0.00312,0 -0.018711,0.0125 -0.012474,0.009 -0.015592,0.009 h -0.00936 -0.00624 l -0.00936,-0.009 q -0.00312,0 -0.012474,0.003 -0.00936,0.003 -0.00936,0.006 -0.00312,-0.003 -0.00312,-0.0125 0,-0.0125 0,-0.0156 0,-0.0187 0.012474,-0.0374 0.012474,-0.0218 0.028066,-0.0405 0.018711,-0.0187 0.031185,-0.0343 0.012474,-0.0156 0.012474,-0.0249 0,-0.0249 -0.012474,-0.0405 -0.012474,-0.0187 -0.012474,-0.0405 0,-0.0249 0.018711,-0.0437 0.021829,-0.0218 0.028066,-0.0561 v -0.0468 q 0.00312,-0.009 0.00936,-0.009 0.00624,0 0.012474,-0.003 0.00936,-0.003 0.012474,-0.0125 0.00624,-0.009 0.00624,-0.0343 h 0.021829 v 0.0593 q 0.00624,-0.006 0.018711,-0.0187 0.015592,-0.0125 0.021829,-0.0125 0,0 0.012474,0.003 0.012474,0.003 0.024948,0.009 0.015592,0.006 0.028066,0.0125 0.012474,0.006 0.015592,0.006 0.00312,0 0.00624,-0.003 l 0.00312,-0.003 q 0.00312,-0.003 0.00312,-0.006 -0.012474,-0.009 -0.037422,-0.0281 -0.021829,-0.0218 -0.043659,-0.0218 v -0.0405 q 0.00624,0.003 0.012474,0.006 0.00936,0.003 0.012474,0.006 h 0.00624 0.00624 q 0,-0.003 0.00312,-0.0125 0.00624,-0.009 0.00624,-0.0125 h 0.00624 0.00624 q 0,0.0187 0.00624,0.0405 0.00936,0.0187 0.031185,0.0312 0.00312,0 0.00936,-0.003 0.00936,-0.003 0.012474,-0.003 v -0.10291 q -0.00936,-0.003 -0.04054,-0.0218 -0.031185,-0.0218 -0.031185,-0.0281 v -0.006 q 0.015592,-0.0312 0.028066,-0.0499 0.015592,-0.0187 0.056133,-0.0187 h 0.018711 q 0.00624,0.003 0.00936,0.0125 0.00312,0.006 0.00312,0.009 0.00624,-0.003 0.015592,-0.0218 0.012474,-0.0218 0.024948,-0.0437 0.012474,-0.0249 0.024948,-0.0405 0.012474,-0.0187 0.021829,-0.0187 0,0.003 -0.00312,0.0312 0,0.0249 -0.00312,0.0561 0,0.0281 -0.00312,0.0561 0,0.0249 0,0.0281 0,0.006 -0.015592,0 -0.012474,-0.009 -0.015592,-0.009 -0.00624,0.006 -0.012474,0.0187 -0.00624,0.0125 -0.00936,0.0156 -0.00624,0.006 0,0.009 0,0.003 0.00312,0.006 h 0.065488 q 0,0.003 -0.00624,0.009 -0.00312,0.006 -0.00624,0.006 -0.00624,0.006 0.00312,0.0125 0.00936,0.003 -0.00312,0.003 l 0.04054,0.009 v -0.0187 -0.0748 h 0.04054 l 0.031185,0.0187 q 0.012474,0.006 0.021829,0.0156 0.00936,0.006 0.00936,0.003 -0.00312,-0.003 -0.012474,-0.0125 -0.00936,-0.0125 -0.021829,-0.0249 -0.00936,-0.0156 -0.018711,-0.0249 -0.00936,-0.0125 -0.012474,-0.0125 0.00312,-0.0125 0.012474,-0.006 0.00936,0.006 0.015592,0.0125 0.00936,0.003 0.015592,-0.003 0.00624,-0.006 0.00624,-0.0405 0,-0.0218 -0.00936,-0.0374 -0.00624,-0.0156 -0.00624,-0.0468 0,-0.003 0.018711,0.006 0.021829,0.006 0.021829,0.003 0.00312,0.003 0.00936,0.006 0.00936,0.003 0.012474,0.006 h 0.00624 0.00312 q 0.00624,-0.003 0.00624,-0.0125 0.00312,-0.009 0.00624,-0.009 0.00312,-0.003 0.024948,-0.0218 0.024948,-0.0218 0.037422,-0.0249 0.015592,-0.003 0.028066,-0.009 0.012474,-0.003 0.018711,-0.006 0.00936,-0.003 0.012474,-0.003 0.00312,0 0.012474,0.003 0.018711,0.006 0.031185,0.006 0.018711,0.006 0.043659,0.009 0.00312,0 -0.00312,0.009 -0.00624,0.006 -0.015592,0.0156 -0.00624,0.009 -0.012474,0.0156 -0.00624,0.006 -0.00312,0.006 0.021829,0 0.037422,-0.0125 0.018711,-0.0125 0.028066,-0.0281 0.012474,-0.0156 0.021829,-0.0281 0.012474,-0.0125 0.028066,-0.0125 0.00936,0 0.018711,0.0125 0.012474,0.009 0.024948,0.0249 0.012474,0.0125 0.024948,0.0249 0.012474,0.009 0.021829,0.009 0.00312,0 0.00624,-0.003 0.00312,-0.006 0.00624,-0.0187 0.00624,-0.0125 0.00624,-0.0187 0,-0.006 -0.00624,-0.006 -0.00624,-0.003 -0.015592,-0.003 -0.00624,-0.003 -0.012474,-0.006 -0.00624,-0.006 -0.00624,-0.0218 0,-0.009 0.012474,-0.009 0.015592,0 0.028066,0.003 0.015592,0.003 0.021829,0.006 0.00624,0.003 -0.00936,-0.003 l 0.065488,0.0655 q 0.00312,0.006 0.00936,0 0.00936,-0.006 0.012474,-0.0125 0.00312,-0.006 0.00624,-0.0187 0.00312,-0.0125 0.00312,-0.0156 h 0.015592 q 0.00624,0.003 0.028066,0.006 0.024948,0.003 0.031185,0.006 0,0.006 0.00312,0.0343 0.00312,0.0281 0.00624,0.0343 0,0.003 0.00312,0.006 0.00624,0.003 0.00936,0.006 0.00312,-0.003 0.00624,-0.009 0.00624,-0.009 0.00624,-0.0125 v -0.1185 l 0.00936,0.0125 0.037422,0.16217 0.068606,-0.0561 0.00312,-0.006 q 0,-0.0156 -0.021829,-0.0156 -0.021829,0 -0.028066,-0.0156 0.00312,-0.0156 0.024948,-0.0125 0.024948,0 0.028066,0 h 0.028066 q 0.00312,0.003 0.00936,0.0218 0.00936,0.0156 0.012474,0.0281 v 0.003 q 0,0.0156 -0.012474,0.0312 -0.00936,0.0125 -0.021829,0.0218 0.012474,-0.009 0.018711,-0.003 0.00624,0.003 0.00936,0.0125 0.00624,0.009 0.00936,0.0187 0.00312,0.009 0.00936,0.009 0.00312,0 0.012474,-0.003 0.012474,-0.006 0.012474,-0.009 -0.00624,0.006 -0.00312,0.0125 0.00624,0.003 0.015592,0.009 0.012474,0.006 0.021829,0.0125 0.00936,0.003 0.012474,0.009 0,0.006 0.00312,0.0312 0.00624,0.0218 0.00624,0.0281 v 0.0936 q 0,0.0156 0.00624,0.0187 0.00936,0.003 0.018711,0.006 0.00936,0.003 0.018711,0.006 0.00936,0.003 0.015592,0.0125 0,0.003 -0.00624,0.009 -0.00312,0.003 -0.00624,0.006 h -0.00312 -0.00624 q -0.015592,-0.006 -0.049896,-0.0218 -0.034303,-0.0187 -0.043659,-0.0249 -0.015592,0.003 -0.018711,0.0187 0,0.0125 0,0.0218 -0.021829,0 -0.046777,-0.0125 -0.024948,-0.0125 -0.04054,-0.0281 0.015592,-0.006 0.015592,-0.0187 0,-0.0125 0,-0.0187 0,-0.006 -0.00312,-0.0125 0,-0.009 0,-0.0125 0,-0.003 -0.015592,-0.0125 -0.015592,-0.0125 -0.021829,-0.0187 h -0.00312 q -0.024948,0 -0.04054,0.0156 -0.015592,0.0156 -0.034303,0.0312 l -0.00624,0.003 q -0.00312,0 -0.00624,-0.003 -0.00312,-0.003 -0.012474,-0.0125 -0.00624,-0.0125 -0.00936,-0.0125 -0.00624,-0.003 -0.031185,0 -0.021829,0 -0.028066,0 -0.00312,-0.003 -0.012474,-0.0125 -0.00936,-0.009 -0.012474,-0.009 h -0.00312 q -0.00936,0 -0.018711,0.0125 -0.00936,0.009 -0.021829,0.0249 -0.00936,0.0125 -0.021829,0.0281 -0.00936,0.0125 -0.024948,0.0156 -0.00624,0 -0.028066,0.006 -0.021829,0.003 -0.049896,0.006 -0.024948,0.003 -0.046777,0.006 -0.021829,0.003 -0.028066,0.003 -0.00312,0 -0.021829,0.006 -0.018711,0.006 -0.021829,0.006 h -0.08108 q -0.00624,0.0156 -0.015592,0.0218 -0.00624,0.003 -0.021829,0.003 -0.024948,0 -0.024948,-0.0187 0,-0.0187 -0.024948,-0.0187 -0.015592,0 -0.021829,0.006 -0.00624,0.006 -0.021829,0.006 -0.015592,0 -0.021829,-0.009 -0.00624,-0.009 -0.021829,-0.009 0,0.0312 0.00624,0.0468 0.00936,0.0156 0.024948,0.0405 0.00312,0.003 0.00312,0.006 0.00312,0.003 0.00624,0.006 0.00312,0.006 0.00312,0.009 0,0.0156 -0.012474,0.0249 -0.00936,0.009 -0.024948,0.0156 -0.015592,0.003 -0.031185,0.006 -0.012474,0.003 -0.021829,0.003 l -0.00312,0.009 q 0,0.009 0.00312,0.0187 0.00624,0.006 0.024948,0.003 -0.015592,0.0343 -0.031185,0.053 -0.012474,0.0187 -0.018711,0.053 v 0.0686 q 0,0.009 -0.00624,0.0343 -0.00624,0.0218 -0.012474,0.0468 -0.00312,0.0249 -0.00936,0.0437 -0.00624,0.0156 -0.00624,0.0156 l -0.08108,-0.0593 q -0.00312,-0.003 -0.00624,0.003 -0.00312,0.006 -0.00312,0.009 0,0.003 0.00312,0.0187 0.00624,0.0156 0.00624,0.0187 v 0.006 0.006 q 0,0.003 -0.00624,0.0218 -0.00312,0.0156 -0.00312,0.0187 0,0.006 0.00936,0.0218 0.00936,0.0156 0.012474,0.0156 v 0.006 q 0,0.003 -0.00312,0.003 0.021829,0 0.037422,-0.009 0.015592,-0.009 0.04054,-0.009 h 0.018711 l -0.021829,0.0561 h 0.021829 v 0.0624 q 0.034303,0 0.031185,0.003 -0.00312,0.003 -0.00312,0.0374 h 0.015592 q 0.00624,0 0.028066,0.0249 0.021829,0.0218 0.031185,0.0343 0.00312,0.003 0.00936,0.0187 0.00936,0.0156 0.012474,0.0156 0.00624,0.003 0.028066,0.003 0.024948,-0.003 0.031185,-0.003 0.00312,0 0.015592,0.0125 0.015592,0.0125 0.018711,0.0125 0.00312,0.003 0.021829,0.003 0.021829,-0.003 0.024948,-0.003 0.00624,0.003 0.031185,0.009 0.024948,0.003 0.028066,0.003 0.012474,0 0.046777,0 0.034303,0 0.071725,0.003 0.037422,0 0.071725,0 0.034303,0 0.046777,0 v 0.0405 q 0.024948,-0.006 0.024948,-0.0312 0.00312,-0.0249 0.028066,-0.0405 0.053014,-0.0249 0.1029098,-0.0312 0.049896,-0.006 0.1029097,-0.0218 0.00624,-0.003 0.024948,-0.0125 0.021829,-0.009 0.024948,-0.009 h 0.00624 q 0.00312,0 0.00312,0 0.00312,-0.003 0.00624,-0.003 0,0.003 0.00312,0.003 h 0.00624 0.00936 q 0.00312,0.003 0.00936,0.006 0.00624,0.003 0.012474,0.003 h 0.046777 q 0.012474,0.003 0.037422,0.0156 0.028066,0.0125 0.034303,0.0156 0.00624,0.006 0.012474,0.0312 0.00936,0.0249 0.00936,0.0312 h 0.015592 q -0.00312,0.003 -0.00312,0.006 0,0.003 -0.00312,0.003 0,0.003 -0.00936,0.0125 -0.00936,0.006 -0.012474,0.009 0,0.003 0,0.0125 0.00312,0.009 0,0.0125 -0.00624,0.0156 -0.024948,0.0249 -0.015592,0.009 -0.031185,0.009 l -0.00312,-0.003 q 0,-0.003 0.00312,-0.006 0.00312,-0.003 0.015592,-0.0187 0.012474,-0.0156 0.018711,-0.0187 v -0.0125 q 0,-0.0187 -0.024948,-0.0312 -0.012474,0.006 -0.015592,0.0218 -0.00312,0.0125 -0.00624,0.0218 -0.00936,0.003 -0.046777,0.006 -0.037422,0.003 -0.046777,0.006 -0.00624,0 -0.018711,0.006 -0.012474,0.006 -0.015592,0.006 v 0.0218 q 0,0.0156 0.00312,0.0281 0.00312,0.0125 0.018711,0.0187 -0.00624,-0.003 -0.024948,0.003 -0.015592,0.003 -0.021829,0.009 -0.00312,0 0,0.0218 0.00312,0.0187 0,0.0218 -0.00624,0.0156 -0.028066,0.0218 -0.021829,0.006 -0.021829,0.0405 h -0.00312 q 0,-0.009 -0.00624,-0.0312 -0.00312,-0.0249 -0.00624,-0.0312 -0.015592,0 -0.024948,-0.009 -0.00312,0 -0.00936,0.003 -0.00312,0 -0.00624,0 l 0.00312,0.006 q -0.00312,0.006 -0.00624,0.0249 -0.00312,0.0156 -0.00624,0.0218 h -0.00936 q -0.00312,0.003 -0.024948,0.0125 -0.018711,0.0125 -0.024948,0.0125 -0.00312,0.003 -0.015592,0 -0.012474,0 -0.018711,0 -0.00312,0.003 -0.028066,0.0125 -0.024948,0.009 -0.031185,0.009 -0.00312,0.003 -0.00624,0.003 h -0.00624 q -0.021829,0 -0.04054,-0.009 -0.015592,-0.006 -0.037422,-0.003 z m 0.024948,-0.0218 q 0.024948,0 0.046777,-0.009 0.021829,-0.009 0.046777,-0.009 0,-0.003 -0.00312,-0.0156 -0.00312,-0.0156 -0.00936,-0.0312 -0.00312,-0.0156 -0.00936,-0.0281 -0.00624,-0.0156 -0.00936,-0.0156 l -0.00624,0.003 q 0,0 -0.00624,0.0125 -0.00312,0.006 -0.00312,0.009 -0.00312,0.003 -0.00624,0.009 -0.00312,0.003 -0.00624,0.003 -0.00624,0.003 -0.018711,0.006 -0.00936,0.003 -0.015592,0.003 z m 0.1590423,-0.0499 q -0.00312,-0.003 -0.00312,0.0125 0,0.0156 0.00312,0.009 0.00624,-0.003 0.00624,-0.009 0,-0.009 -0.00624,-0.0125 z m 0.1746348,-0.2183 q -0.00312,0 -0.00936,0.0187 -0.00624,0.0156 -0.012474,0.0249 0,0.006 -0.00312,0.0156 0,0.006 0,0.009 0.024948,0 0.021829,-0.0125 -0.00312,-0.0156 0.00312,-0.0343 l 0.012474,-0.009 q 0,-0.003 0,-0.006 0.00312,-0.003 0.00312,-0.006 z m -0.985439,0.0343 q -0.00312,0 -0.00624,0.006 -0.00312,0.003 -0.00624,0.003 v 0.006 0.006 q 0.00312,-0.003 0.00624,-0.006 0.00624,-0.003 0.00624,-0.006 v -0.003 z m 1.116415,-0.0842 q -0.00936,0 -0.00936,0.0125 0,0.0125 0.00936,0.0125 0.00624,0 0.00624,-0.0125 0,-0.0125 -0.00624,-0.0125 z m -1.2193247,-0.0187 q -0.00936,0 -0.00936,0.009 0,0.009 0.00936,0.009 0.00624,0 0.00624,-0.009 0,-0.009 -0.00624,-0.009 z m -0.046777,-0.14345 q 0.00312,-0.003 -0.00624,-0.003 -0.00624,0 -0.00624,0.003 0,0.006 0.00624,0.006 0.00624,0 0.00624,-0.006 z m -0.046777,-0.0936 q -0.018711,0 -0.021829,0.0125 h 0.00312 0.00624 q 0.012474,0 0.024948,-0.0125 z m -0.137213,-0.0312 q -0.012474,0 -0.012474,0.0125 0,0.009 0.012474,0.009 0.00936,0 0.00936,-0.009 0,-0.0125 -0.00936,-0.0125 z m 0.068606,0.003 q 0.015592,0 0.021829,-0.0125 h -0.021829 z m 0.1621609,-0.0842 q -0.015592,0 -0.034303,0.0187 -0.015592,0.0156 -0.015592,0.0312 0.015592,0 0.043659,-0.006 0.028066,-0.006 0.028066,-0.0281 v -0.006 q -0.00936,-0.009 -0.021829,-0.009 z m -0.2307674,-0.0218 q -0.00624,-0.003 -0.00624,0.006 0,0.006 0.00624,0.003 0.00624,0 0.00624,-0.003 0,-0.006 -0.00624,-0.006 z m 0.3087293,-0.13722 q 0,0.003 0,0.009 0.00312,0.006 0.00312,0.009 0,0.003 0.00936,0.0125 0.00936,0.009 0.012474,0.0125 0.00312,0.003 0.00936,0.0218 0.00936,0.0187 0.015592,0.0218 0.00312,0.003 0.012474,0.006 0.00936,0.003 0.00936,0.006 0.00312,0 0.00624,0.0125 0.00624,0.009 0.00624,0.0125 0.018711,-0.003 0.024948,-0.0156 0.00936,-0.0156 0.00936,-0.0312 0,-0.0281 -0.012474,-0.0655 -0.00936,-0.0405 -0.046777,-0.0405 -0.021829,0 -0.04054,0.003 -0.018711,0.003 -0.018711,0.0249 z m -0.056133,0.078 h 0.015592 v -0.0125 h -0.015592 z m -0.056133,-0.0249 q 0.00312,0 0.00624,-0.006 0.00624,-0.009 0.00624,-0.0156 0,-0.0125 -0.012474,-0.0125 z m 0.056133,-0.0343 q -0.00936,0 -0.00936,0.0125 0,0.0125 0.00936,0.0125 0.012474,0 0.012474,-0.0125 0,-0.0125 -0.012474,-0.0125 z m 0.1590424,-0.10603 q 0,0.006 0.00312,0.0187 0.00312,0.0125 0.012474,0.0187 0.00936,-0.006 0.012474,-0.0187 0.00624,-0.0125 0.00624,-0.0187 z m -0.2619521,0.0125 h 0.00936 v -0.0218 h -0.00936 z m 0.1528054,-0.0343 q 0,0.006 -0.00624,0.0187 -0.00312,0.0125 -0.00624,0.0156 h 0.00624 0.00624 q 0,-0.003 0.00312,-0.006 0.00624,-0.003 0.00624,-0.006 0,-0.006 0,-0.0281 0.00312,-0.0218 0.00312,-0.0281 -0.00936,0 -0.018711,0.003 -0.00936,0.003 -0.00936,0.0156 l 0.00312,0.006 z m -0.1590424,-0.078 q 0,0.0156 0.00312,0.0312 0.00624,0.0156 0.024948,0.0156 0.00624,0 0.015592,0 0.00936,-0.003 0.00936,-0.0156 0,-0.0218 -0.018711,-0.0249 -0.018711,-0.006 -0.034303,-0.006 z m 0.1683978,-0.003 q -0.00312,-0.006 -0.00936,0.003 -0.00624,0.006 0,0.006 0.00312,0.006 0.00624,0.003 0.00624,-0.006 0.00312,-0.0125 z m 0.068606,-0.0904 -0.00936,0.009 h 0.034303 q -0.00312,0 -0.00624,-0.003 l -0.00624,-0.006 q 0,0 -0.00624,-0.003 z m 0.4740086,0 v -0.0125 h -0.00936 z m 0.5363781,-0.0249 q 0,-0.006 -0.00624,-0.006 -0.00624,0 -0.00624,0.006 0.00312,0.006 0.00624,0.006 0.00624,0 0.00624,-0.006 z m -0.4864825,-0.009 q 0.012474,-0.009 0.012474,-0.0281 h -0.012474 z m -0.093554,-0.0125 0.012474,-0.0156 h -0.012473 z m -0.059251,-0.17463 q 0,0.003 -0.00624,0.0125 -0.00312,0.006 -0.00312,0.0125 -0.00312,0.0156 -0.00936,0.0686 -0.00312,0.0499 -0.00312,0.0655 h 0.012474 q 0.012474,-0.0281 0.021829,-0.053 0.012474,-0.0249 0.012474,-0.0593 0,-0.0156 -0.00312,-0.0281 0,-0.0125 -0.021829,-0.0187 z m 0.2681891,0.10291 q 0,0.0187 0.00624,0.0312 0.00624,0.009 0.015592,0.025 0.00936,0 0.00936,-0.009 0.00312,-0.006 0.00312,-0.0343 0.00312,-0.0281 0.00312,-0.0374 -0.012474,0 -0.024948,0.006 -0.012474,0.003 -0.012474,0.0187 z m -0.021829,0.0343 q -0.00936,0 -0.00936,0.0125 0,0.009 0.00936,0.009 0.00936,0 0.00936,-0.009 0,-0.0125 -0.00936,-0.0125 z m -0.2120565,-0.0218 q 0,0.003 0.00312,0.006 0.00624,0.003 0.00936,0.006 h 0.00936 0.00312 q 0.00312,-0.006 0.00624,-0.0187 0.00312,-0.0156 0.00624,-0.0156 0.00624,-0.006 0.028066,-0.0156 0.021829,-0.009 0.028066,-0.0125 v -0.003 -0.006 q -0.00624,-0.006 -0.018711,-0.0156 -0.00936,-0.0125 -0.015592,-0.0156 -0.00936,0.0218 -0.034303,0.0437 -0.024948,0.0218 -0.024948,0.0468 z m 0.5956292,-0.0249 q -0.024948,0 -0.024948,0.0312 v 0.006 q 0.024948,-0.0156 0.024948,-0.0374 z m -0.5363781,0.0125 q -0.00936,0 -0.00936,0.0125 0,0.0125 0.00936,0.0125 0.00624,0 0.00624,-0.0125 0,-0.0125 -0.00624,-0.0125 z m -0.567563,-0.009 h 0.012474 v -0.0156 z m 0.3492695,-0.009 q 0.024948,0 0.024948,-0.0281 H 7.976543 Z m 0.4365869,-0.14345 q -0.00312,0.003 -0.00624,0.0125 -0.00312,0.009 -0.00624,0.0125 -0.00624,0.003 -0.00936,0.009 -0.00624,0.006 -0.00624,0.009 l -0.00312,0.003 q -0.00312,0.009 -0.00936,0.0374 -0.00312,0.0249 -0.00312,0.0312 h 0.00624 0.00624 l 0.00312,-0.003 q 0,-0.003 0.00624,-0.009 0.00312,-0.006 0.00936,-0.009 0.00624,-0.003 0.024948,-0.006 0.021829,-0.003 0.024948,-0.003 0.00624,-0.003 0.018711,-0.006 0.012474,-0.003 0.015592,-0.006 -0.015592,-0.0156 -0.031185,-0.0343 -0.015592,-0.0218 -0.024948,-0.0374 h -0.00936 z m -0.2775445,0.0281 q 0,0.0343 0.024948,0.0561 0.015592,-0.0125 0.021829,-0.0374 l 0.046777,0.0249 q 0.00936,0 0.00936,-0.0125 0,-0.0187 -0.00936,-0.0374 -0.00936,-0.0218 -0.024948,-0.0218 -0.021829,0 -0.046777,0.003 -0.021829,0 -0.021829,0.0249 z m 0.1340945,0.0125 q -0.00312,0.003 -0.00312,0.006 -0.00312,0 -0.00312,0.003 v 0.006 l 0.00312,0.003 0.00936,-0.0125 0.00312,-0.006 q 0,-0.003 -0.00312,-0.006 z m -0.2370043,-0.006 q 0,0.0125 0.00936,0.0125 0.00624,0 0.015592,-0.003 0.00936,-0.006 0.012474,-0.009 z m 0.3149663,-0.009 q -0.012474,0.003 -0.012474,0.0218 h 0.012474 z m 0.1465684,0.0218 h 0.012474 l -0.012474,-0.0125 z m 0.2120565,-0.0218 q -0.00936,0 -0.00936,0.0125 0,0.009 0.00936,0.009 0.00624,0 0.00624,-0.009 0,-0.0125 -0.00624,-0.0125 z m -0.4303499,-0.0343 q 0.00312,-0.006 -0.00624,-0.006 -0.00624,0 -0.00312,0.006 0,0.006 0.00312,0.006 0.00624,0 0.00624,-0.006 z m 0.2307673,-0.0249 h 0.015592 v -0.025 z"
         style="font-style:normal;font-variant:normal;font-weight:normal;font-stretch:normal;font-size:2.82222px;font-family:Chalkduster;-inkscape-font-specification:'Chalkduster, Normal';font-variant-ligatures:normal;font-variant-caps:normal;font-variant-numeric:normal;font-feature-settings:normal;text-align:start;writing-mode:lr-tb;text-anchor:start;fill:#3f5afc;fill-opacity:1;stroke-width:0.264583"
         id="path1998"
         inkscape:connector-curvature="0" />
      <path
         d="m 9.2525352,290.77275 q -0.0031,0.006 -0.01247,0.0156 -0.0094,0.009 -0.01559,0.0125 -0.0031,0 -0.0062,0.003 -0.0031,0.003 -0.0062,0.003 0,-0.006 -0.0031,-0.0312 -0.0031,-0.0249 -0.0062,-0.0312 -0.0031,0 -0.01559,-0.006 -0.0094,-0.006 -0.01247,-0.006 0,-0.006 0.0031,-0.0156 0.0031,-0.009 0,-0.0125 0,-0.003 -0.01247,-0.009 -0.01247,-0.006 -0.01247,-0.009 -0.0031,-0.003 0,-0.0249 0.0031,-0.0218 0.0031,-0.0281 0,-0.003 -0.0062,-0.009 -0.0062,-0.009 -0.0062,-0.0156 0,-0.003 -0.01247,-0.0125 -0.01247,-0.009 -0.01247,-0.0125 v -0.0218 -0.009 q 0,-0.006 0,-0.006 0.0031,-0.003 0.0031,-0.006 0.0062,0.006 0.01871,0.0156 0.01247,0.009 0.01871,0.0125 l 0.0062,0.003 h 0.0094 l 0.01247,-0.006 q 0.0062,-0.003 0.0094,-0.003 0.0031,0 0.0062,-0.003 h 0.0094 q 0.0031,-0.003 0.01247,-0.006 0.01247,-0.003 0.01559,-0.006 0.0031,0.006 0.0062,0.0156 0.0031,0.009 0.0062,0.0125 h 0.0062 0.0031 q 0.0062,0 0.01559,0 0.01247,-0.003 0.01559,-0.009 0,0.006 0.0031,0.0156 0.0062,0.006 0.0094,0.0125 0.0031,0.006 0.0031,0.0468 0,0.0374 0.0031,0.0436 0.0031,0.003 0.0062,0.0156 0.0031,0.009 0.0062,0.0156 0.0094,0.009 0.01559,0.009 0,-0.006 0,-0.0343 0.0031,-0.0312 0.0031,-0.0437 0,-0.003 0.0031,-0.0125 0.0062,-0.009 0.0094,-0.0125 0,-0.003 0.0062,-0.0187 0.0094,-0.0187 0.0094,-0.0218 h 0.0062 q 0.0031,0.003 0.0062,0.003 0.0062,0 0.03118,0.009 0.02807,0.006 0.0343,0.009 h 0.01247 0.0031 q 0,-0.003 0.0031,-0.009 0.0062,-0.006 0.0094,-0.006 h 0.0062 q 0.0031,0 0.0062,0.003 0.0062,0 0.01559,0.0156 0,0.003 0.0031,0.0125 0.0062,0.009 0.0062,0.0125 0.0031,-0.003 0.01247,-0.0125 0.01247,-0.0125 0.01559,-0.0125 h 0.0094 l 0.0062,0.003 q 0.0031,0 0.01247,0.006 0.0094,0.003 0.01559,0.003 h 0.0031 0.0062 l 0.03119,-0.0499 q -0.0031,0.003 0,0.009 0.0062,0.003 0.0094,0.006 l 0.0062,0.003 h 0.0062 q 0.0031,0 0.0031,-0.003 0.01247,-0.003 0.05301,-0.0187 0.04366,-0.0187 0.05613,-0.0249 0.0062,0.003 0.01871,0.009 0.01559,0.003 0.02183,0.003 l 0.0062,0.006 q 0.0062,0.006 0.0062,0.006 0.0031,0 0.0062,-0.003 0.0062,-0.006 0.0062,-0.006 l 0.0062,-0.0125 q 0.0031,-0.006 0.0031,-0.009 0,-0.003 0.0031,-0.006 0.0031,0 0.0094,-0.003 0.0062,-0.006 0.0094,-0.009 0.0062,0 0.02495,-0.003 0.01871,-0.006 0.02495,-0.006 0.0031,-0.003 0.01247,-0.006 0.012469,-0.003 0.015589,-0.006 0.0031,0 0.01871,-0.003 0.01871,-0.006 0.02183,-0.006 0.0094,0 0.01559,-0.003 0.0062,-0.003 0.0094,-0.006 0.0062,-0.006 0.01559,-0.0218 0.01247,-0.0156 0.01559,-0.0187 0.0094,-0.009 0.04054,-0.0374 0.0343,-0.0312 0.04678,-0.0405 l 0.02183,-0.009 q 0.0031,0 0.0062,-0.003 0.0062,-0.006 0.0094,-0.006 0.0062,-0.009 0.02183,-0.0281 0.01871,-0.0218 0.02495,-0.0281 0,-0.006 0.0031,-0.009 0.0062,-0.006 0.0062,-0.009 0.0062,-0.006 0.0094,-0.0187 0.0031,-0.0125 0.0094,-0.025 0.0062,-0.0125 0.01247,-0.0249 0.0031,-0.006 0,-0.0187 -0.0031,-0.0156 -0.0031,-0.0218 -0.0031,0 -0.0031,0 0.0031,-0.003 0,-0.003 -0.0062,0.003 -0.01871,0.0125 -0.0094,0.006 -0.0094,0.003 -0.0094,-0.006 -0.02183,-0.0218 -0.01247,-0.0156 -0.01871,-0.0218 l -0.02495,0.0218 q -0.0062,0 -0.02183,-0.0156 -0.01247,-0.0156 -0.01871,-0.0187 -0.0031,-0.006 -0.0062,-0.0156 -0.0031,-0.0125 -0.0031,-0.0156 0.0031,0 0.01247,-0.003 0.0094,-0.003 0.01247,-0.009 l 0.0031,-0.009 q -0.0031,0 -0.0031,-0.003 v -0.006 -0.006 q 0,-0.006 -0.0062,-0.0312 -0.0031,-0.0125 -0.0031,-0.0218 l -0.02495,-0.003 q 0.0031,-0.006 0,-0.0249 0,-0.0218 0,-0.0281 0.0031,-0.009 -0.0031,-0.0405 -0.0031,-0.0312 -0.0031,-0.0405 0,0 -0.0062,-0.003 l -0.0062,0.003 q -0.0094,0.009 -0.01559,0.009 -0.0062,0.009 -0.0094,0.0343 -0.0031,0.025 -0.0094,0.0343 0,0.009 -0.0031,0.0468 0,0.0343 0,0.0468 l -0.01247,0.0125 q -0.0062,-0.006 -0.01559,-0.0281 -0.0094,-0.0218 -0.0094,-0.0281 0,-0.003 -0.0062,-0.009 -0.0031,-0.006 -0.0062,-0.006 0,0.003 -0.0062,0.0156 -0.0062,0.009 -0.0094,0.0125 -0.0031,0.006 -0.0094,0.0281 -0.0062,0.0187 -0.0062,0.0249 -0.0062,-0.003 -0.02183,-0.0187 -0.01247,-0.0187 -0.01247,-0.0249 -0.0062,-0.009 0.0031,-0.0374 0.0094,-0.0281 0.0094,-0.0374 -0.0031,0 -0.01247,-0.003 -0.0062,-0.003 -0.01247,0 -0.0062,0.003 -0.02183,0.0187 -0.01559,0.0125 -0.01871,0.0156 l -0.01247,0.006 q -0.0031,0.003 -0.0062,0.003 0,0 -0.0031,0.003 l -0.0031,0.003 q -0.0062,0.003 -0.01871,0.0218 -0.0094,0.0187 -0.01559,0.0281 v 0.006 l -0.0031,0.006 q 0.0031,0.003 0.0094,0.0281 0.0062,0.0218 0.0031,0.0281 0.0031,0 0.0031,0.009 0.0031,0.009 0.0031,0.0125 h -0.03742 q 0,-0.003 -0.0031,-0.0125 -0.0031,-0.0125 -0.0062,-0.0125 0,-0.006 -0.0062,-0.0125 -0.0062,-0.006 -0.0094,-0.006 l -0.0031,0.0405 q -0.0062,0 -0.01871,-0.003 -0.0094,-0.006 -0.01559,-0.0125 -0.0031,0 -0.0062,-0.003 -0.0031,-0.006 -0.0062,-0.006 0.0031,-0.006 -0.0031,-0.0218 -0.0031,-0.0156 -0.0062,-0.0218 -0.0031,-0.003 -0.01871,-0.0249 -0.01247,-0.0218 -0.01871,-0.0312 l -0.01247,-0.0125 h -0.0062 -0.0094 q -0.0062,0 -0.02183,0.006 -0.01247,0.003 -0.01559,0.003 -0.0062,0.006 -0.01559,0.0156 -0.0094,0.006 -0.01247,0.0125 0,0.003 -0.0094,0.0187 -0.0062,0.0125 -0.0062,0.0187 0,0.003 -0.0062,0.0125 -0.0062,0.009 -0.0062,0.0156 -0.0031,0 -0.0094,0.006 -0.0031,0.003 -0.0094,0.003 v -0.009 q 0,-0.003 0,-0.003 0.0031,-0.003 0.0031,-0.006 v -0.0187 q 0,-0.003 0.0062,-0.0125 0.0094,-0.0125 0.01247,-0.0156 -0.0031,-0.006 -0.01247,-0.0187 -0.0094,-0.0156 -0.01559,-0.0218 -0.0062,0.003 -0.02183,0.0187 -0.01247,0.0125 -0.01559,0.0187 -0.0031,0.003 -0.0094,0.0156 -0.0062,0.009 -0.0062,0.0125 -0.0062,0 -0.02183,0.009 -0.01559,0.009 -0.02183,0.0156 -0.0031,0 -0.0062,0.003 -0.0031,0.003 -0.0094,0.006 -0.0062,0.006 -0.01247,0.009 0,0 -0.0062,0 h -0.0062 q -0.0062,0.003 -0.02807,0.006 -0.02183,0.003 -0.02495,0.003 h -0.0062 -0.0062 q -0.0062,0 -0.02807,-0.0125 -0.02183,-0.0125 -0.02807,-0.0156 -0.0031,0 -0.01871,-0.006 -0.01247,-0.006 -0.01871,-0.006 -0.0031,-0.006 -0.0062,-0.0218 -0.0031,-0.0156 -0.0031,-0.0218 0,-0.003 -0.01871,-0.025 -0.01559,-0.0249 -0.01871,-0.0312 -0.0031,-0.003 -0.0094,-0.009 -0.0031,-0.009 -0.0031,-0.0156 -0.0031,-0.006 -0.0062,-0.0249 0,-0.0218 -0.0031,-0.0281 v -0.0281 q -0.0031,0 -0.0062,-0.0125 -0.0031,-0.0125 -0.0062,-0.0125 -0.0031,-0.006 -0.0062,-0.0343 0,-0.0281 0,-0.0343 v -0.0249 -0.009 q 0,-0.003 0.0031,-0.006 0.0031,-0.003 0.01871,-0.0125 0.01559,-0.009 0.01871,-0.0125 0.0062,-0.006 0.01559,-0.0125 0.01247,-0.006 0.01247,-0.009 0.0031,-0.006 0.01559,-0.0343 0.01559,-0.0281 0.01871,-0.0312 0,-0.009 0.0094,-0.0187 l 0.0062,0.003 h 0.01247 q 0,0.003 0.0094,0.009 0.01247,0.006 0.01247,0.009 h 0.01247 q 0.0031,0 0.0031,0.003 0.0031,0 0.0062,0 h 0.0062 q 0.0062,-0.003 0.02495,-0.0125 0.02183,-0.009 0.02807,-0.0125 0.0031,-0.003 0.01247,0 0.0094,0.003 0.01247,0 0.0062,-0.003 0.02183,-0.0125 0.01559,-0.009 0.02183,-0.0125 0.0031,0 0.01247,0.006 0.01247,0.003 0.01559,0.006 h 0.0062 q 0.0031,0.003 0.0062,0.003 0.0031,-0.003 0.0062,-0.0187 0.0031,-0.0156 0.0094,-0.0156 0,-0.006 0.02183,0 0.02183,0.003 0.02807,0.003 0,-0.003 0.0031,-0.006 0.0031,-0.003 0.0031,-0.003 0,-0.003 0.0031,-0.006 l 0.0062,-0.0125 0.02807,-0.0281 q 0.0031,0 0.01871,-0.003 0.01559,-0.006 0.02183,-0.006 h 0.0062 l 0.0062,0.003 q 0.0031,0 0.0062,0.0125 0.0031,0.009 0.0094,0.0125 0,0.009 0.0094,0 0.0031,-0.003 0.0094,-0.006 l 0.0031,-0.0405 q 0.0031,0 0.01247,0.003 0.01247,0 0.01871,-0.006 0.0062,-0.003 0.01559,-0.0125 0.0094,-0.0125 0.01247,-0.0156 0.0031,0 0.01871,-0.003 0.01871,-0.003 0.02495,-0.006 0.0031,0 0.02495,-0.0156 0.02183,-0.0187 0.02807,-0.0218 0.0062,-0.003 0.02807,-0.0125 0.02183,-0.009 0.02807,-0.0125 0.0031,0 0.01871,0.003 0.01871,0.003 0.02183,0 0.0031,0 0.012469,-0.0218 0.01247,-0.0218 0.01871,-0.0281 0,-0.006 0.0031,-0.009 0.0031,-0.003 0.0062,0 h 0.01247 q 0,0 0.0094,-0.009 l 0.0062,-0.006 0.0062,-0.10603 -0.0062,-0.006 q -0.0031,-0.003 -0.0062,-0.003 0,0 -0.0031,-0.003 0,-0.003 -0.01247,0 -0.0094,0 -0.0094,-0.003 -0.0062,-0.003 -0.01559,-0.0125 -0.0094,-0.009 -0.0094,-0.0156 -0.0062,0.006 -0.024949,0.0187 -0.01559,0.0125 -0.01871,0.0187 -0.0062,0.003 -0.01559,0.0187 -0.0062,0.0156 -0.01247,0.0187 -0.0062,0.006 -0.01559,0.009 -0.0094,0.003 -0.01247,0.003 0,-0.003 -0.0062,-0.0125 -0.0031,-0.009 -0.0062,-0.0125 h -0.0031 -0.0062 q -0.0062,0.003 -0.01247,0.0125 -0.0031,0.009 -0.0094,0.009 -0.0031,0.003 -0.0062,0.003 h -0.0094 q -0.0062,0 -0.01247,0 -0.0062,-0.003 -0.0094,-0.003 -0.0062,-0.003 -0.01871,-0.0125 -0.01247,-0.009 -0.01871,-0.0156 -0.0031,0 -0.0094,-0.0125 -0.0031,-0.0125 -0.0031,-0.0156 h -0.0031 -0.0062 q -0.0031,0 -0.0031,-0.003 -0.0062,0.006 -0.01247,0.009 l -0.01247,0.006 h -0.02807 q -0.0031,0 -0.0062,0 -0.0031,-0.003 -0.0094,-0.003 h -0.01247 q -0.0031,0 -0.01871,-0.009 -0.01559,-0.009 -0.02183,-0.009 -0.01247,0 -0.05302,0 -0.04054,-0.003 -0.05301,-0.006 0,-0.003 -0.0031,-0.0125 -0.0031,-0.009 -0.0062,-0.0125 -0.0031,0 -0.0031,-0.003 0,-0.003 -0.0031,-0.003 0,0 0,-0.003 l -0.0062,-0.006 h -0.01247 -0.0094 q -0.0031,0 -0.0062,-0.003 -0.0062,0.006 -0.02183,0.0218 -0.01559,0.0125 -0.01871,0.0187 0.0031,-0.006 -0.0094,-0.0156 -0.01247,-0.0125 -0.01871,-0.0125 0,0 -0.0031,-0.003 l -0.0062,0.003 q -0.0062,0 -0.01559,0.009 -0.0094,0.006 -0.01247,0.0125 l -0.09043,-0.003 q 0,0.003 -0.0094,0.009 -0.0062,0.006 -0.0094,0.003 h -0.0343 -0.01559 q -0.0062,0 -0.01247,-0.003 -0.0031,0 -0.0094,-0.006 -0.0031,-0.006 -0.0062,-0.009 -0.0031,0 -0.01247,-0.003 -0.0062,-0.006 -0.01247,-0.009 -0.0031,-0.003 -0.01247,-0.003 -0.0062,0 -0.0094,0.003 0,0.003 0.0031,0.0187 0.0062,0.0125 0,0.0187 0,0.003 -0.01559,0.0125 -0.01559,0.009 -0.02183,0.0125 -0.0062,0.006 -0.01871,0.0218 -0.0094,0.0125 -0.0094,0.0156 -0.0031,0.003 -0.0031,0.009 v 0.0156 q 0,0 0,0.0156 v 0.0125 q 0,0.006 0,0.0249 0.0031,0.0187 0.0094,0.0281 0,0.006 0.0031,0.0218 0.0062,0.0156 0.0062,0.0218 l 0.0031,0.009 q 0,0.003 -0.0031,0.003 0,0 0,0.003 v 0.006 q -0.0031,0.006 -0.01559,0.0218 -0.0094,0.0156 -0.01247,0.0187 l 0.02807,0.21517 q 0,0.006 0.0031,0.0156 0.0062,0.006 0.0094,0.0125 v 0.14657 q 0,0.006 -0.0031,0.0249 -0.0031,0.0187 -0.0062,0.0405 0,0.0218 -0.0031,0.0437 -0.0031,0.0187 -0.0031,0.0218 -0.0031,0 -0.0031,0.003 v 0.006 0.006 q 0,0.009 0.0031,0.0187 l 0.0062,0.0187 q 0,0.006 -0.0031,0.0281 0,0.0218 0,0.0249 0,0.006 0,0.0343 0,0.0281 0,0.0624 0,0.0312 0,0.0592 0.0031,0.0249 0.0031,0.0312 0,0.003 -0.0031,0.0187 0,0.0125 0,0.0281 0,0.0156 -0.0031,0.0312 0,0.0125 0,0.0156 0,0.003 0.0031,0.0187 0.0062,0.0125 0.0094,0.0218 0.0031,0.003 0.0062,0.0125 0.0031,0.009 0.0031,0.0125 0.0062,0.009 0.0094,0.0312 0.0062,0.0218 0.0062,0.0249 0,0.003 -0.0094,0.0125 -0.0062,0.009 -0.0094,0.009 0,0.006 -0.01247,0.0343 -0.0094,0.0281 -0.01559,0.0343 -0.0062,0.006 -0.02807,0.0249 -0.02183,0.0187 -0.02807,0.0249 -0.0062,0.006 -0.01247,0.0281 -0.0031,0.0187 -0.0031,0.0249 l -0.02807,-0.003 q 0,-0.0125 -0.0031,-0.053 -0.0031,-0.0405 -0.0031,-0.053 0,-0.003 -0.01871,-0.0187 -0.01559,-0.0156 -0.03742,-0.0312 -0.02183,-0.0187 -0.04054,-0.0312 -0.01559,-0.0156 -0.01559,-0.0187 -0.0031,-0.006 -0.0062,-0.0249 -0.0031,-0.0218 -0.0031,-0.0281 0,-0.006 0,-0.0281 0.0031,-0.0218 0.0031,-0.0249 0,-0.006 -0.0062,-0.0343 -0.0031,-0.0281 0,-0.0343 0,-0.003 0,-0.0218 0,-0.0187 0,-0.0374 0.0031,-0.0218 0.0031,-0.0374 0.0031,-0.0187 0.0031,-0.0218 0,-0.003 -0.0031,-0.0156 0,-0.0156 -0.0031,-0.0312 0,-0.0156 -0.0031,-0.0281 -0.0031,-0.0156 -0.0031,-0.0218 l 0.0031,-0.0125 v -0.009 q 0.0031,-0.006 0.01559,-0.0125 0.01247,-0.009 0.01247,-0.0125 v -0.0156 l -0.02183,-0.003 q 0,-0.006 0,-0.0374 0.0031,-0.0343 0,-0.0405 0,-0.003 -0.0062,-0.006 -0.0031,-0.006 -0.0062,-0.009 -0.0031,0 -0.01247,-0.003 -0.0094,-0.006 -0.01247,-0.006 v -0.009 -0.006 q 0.0031,-0.003 0.0094,-0.0156 0.0062,-0.0125 0.01247,-0.0249 0.0094,-0.0125 0.01559,-0.025 0.0062,-0.0125 0.0062,-0.0156 0,-0.003 0.0031,-0.006 0,-0.003 0,-0.003 0.0031,0 0.0031,-0.003 0,0 -0.0031,-0.006 v -0.006 q -0.0031,0.003 -0.01247,0.006 -0.0094,0.003 -0.01247,0.006 -0.0031,0.003 -0.0062,0.003 h -0.0094 l -0.01247,-0.006 q 0.0062,-0.006 0.01559,-0.0343 0.01247,-0.0312 0.01559,-0.0405 0,-0.006 -0.0031,-0.0156 0,-0.009 0.0031,-0.0125 l -0.02807,-0.003 v -0.006 q 0,-0.006 0.0031,-0.006 0.0031,-0.006 0.01871,-0.0374 0.01871,-0.0312 0.02495,-0.0374 0.0031,-0.006 0,-0.009 -0.0031,-0.006 0,-0.009 h -0.03119 q 0,-0.006 0,-0.025 0.0031,-0.0218 0.0062,-0.0436 0.0031,-0.0249 0.0031,-0.0437 0.0031,-0.0218 0.0031,-0.0312 0,-0.003 0.0094,-0.0187 0.0094,-0.0156 0.0094,-0.0218 v -0.025 q 0.0031,-0.006 0.0031,-0.0156 0,-0.009 0,-0.0125 -0.0031,-0.003 -0.01559,-0.0312 -0.0094,-0.0281 -0.0094,-0.0343 -0.0031,-0.003 -0.0031,-0.009 0,-0.009 0.0031,-0.0125 0.0031,0 0.01559,0 0.01247,-0.003 0.01559,-0.003 0,-0.003 0.0031,-0.006 0.0062,-0.006 0.0094,-0.009 v -0.006 q 0,-0.003 0,-0.003 0.0031,0 0.0031,-0.003 0,0 -0.0031,-0.006 v -0.006 q 0,-0.003 -0.0031,-0.0156 -0.0031,-0.0125 -0.0094,-0.0249 -0.0031,-0.0156 -0.0062,-0.0249 -0.0031,-0.0125 -0.0031,-0.0156 0,-0.006 0.0031,-0.0249 0.0062,-0.0218 0.0062,-0.0281 h -0.02807 q -0.0031,-0.006 -0.0062,-0.0281 -0.0031,-0.0218 -0.0094,-0.0281 l -0.0062,-0.0187 q -0.0031,-0.009 -0.0031,-0.0187 v -0.0312 -0.0156 q 0,-0.006 0.0031,-0.009 0.0031,-0.003 0.03742,-0.003 0.0343,-0.003 0.03742,-0.003 0.0031,0 0.01559,0.003 0.01247,0 0.02495,0 0.01559,0 0.02495,0.003 0.01247,0 0.01559,0 0.0031,-0.006 0.01559,-0.0281 0.01247,-0.0249 0.01559,-0.0249 0.0031,-0.003 0.0094,-0.006 0.01247,-0.006 0.01559,-0.006 l 0.0094,-0.003 0.0031,0.003 q 0.0062,0.006 0.01871,0.0218 0.01247,0.0156 0.01871,0.0218 l 0.09979,-0.0873 q 0.0062,0.003 0.01247,0.006 0.0094,0.003 0.0094,0.006 0.0062,0 0.02183,0 0.01871,0 0.02183,0.003 0,0.003 0.0031,0.006 0.0062,0.006 0.0062,0.006 0.0031,0.006 0.0062,0.0156 0.0062,0.009 0.0094,0.0125 0.0031,0.003 0.0062,0.003 h 0.01247 0.01871 q 0.0031,-0.003 0.0062,-0.006 0.0062,-0.006 0.0094,-0.006 0,-0.006 0,-0.0187 0,-0.0156 0.0031,-0.0218 0.0031,-0.009 0.0094,-0.0218 0.0094,-0.0125 0.01559,-0.0156 0.0062,-0.006 0.02807,-0.006 0.02183,0 0.02807,0 l -0.0062,0.0624 q 0.0062,-0.006 0.02807,-0.0187 0.02183,-0.0125 0.03119,-0.0156 0.0062,-0.006 0.03119,-0.0125 0.02495,-0.009 0.03742,-0.0125 0,-0.003 0.0094,-0.003 -0.0031,0.006 -0.0031,0.0218 0.0031,0.0125 0.0031,0.0187 0,0.006 0.0031,0.0156 0.0031,0.009 0.0062,0.0125 l 0.0062,0.003 h 0.0094 q 0.0031,-0.003 0.01871,-0.0125 0.01871,-0.009 0.02495,-0.0125 l 0.0094,-0.009 q 0.0031,-0.006 0.0031,-0.0218 0.0031,-0.0156 0,-0.0218 0.0062,0.003 0.01247,0.009 0.0062,0.003 0.01247,0.006 0,0.003 0.0031,0.003 h 0.0062 l 0.0031,-0.003 q 0.0062,-0.003 0.01247,-0.0125 0.0062,-0.009 0.0062,-0.0125 0.0031,0.003 0.01247,0.0187 0.0094,0.0156 0.0094,0.0218 0.0031,0.006 -0.0031,0.0249 -0.0062,0.0187 -0.0062,0.025 0,0.003 0.0031,0.003 h 0.0062 0.0094 q 0.0031,-0.003 0.0062,-0.003 0.0062,-0.003 0.0094,-0.006 0.0062,-0.006 0.01559,-0.0249 0.0094,-0.0218 0.01559,-0.0281 h 0.0094 q 0,0.006 0,0.0281 0,0.0187 -0.0031,0.0249 0,0.006 0.0062,0.0281 0.0062,0.0218 0.0062,0.0281 0.0062,-0.006 0.02183,-0.0125 0.01559,-0.009 0.02183,-0.0156 0.0062,0.003 0.01247,0.003 0.01247,0 0.01247,0 0.0031,0 0.0062,-0.003 0.0031,-0.006 0.0062,-0.009 0.0031,-0.003 0.0094,-0.0125 0.0062,-0.0125 0.0094,-0.0156 0.0031,-0.003 0.01559,-0.009 0.01559,-0.009 0.02183,-0.0125 h 0.0094 0.0062 q 0.0031,0.003 0.0094,0.0156 0.0094,0.0125 0.01559,0.0125 h 0.02807 q 0.0031,0 0.0094,0.0156 0.0094,0.0125 0.012469,0.0156 0.0062,0 0.02495,0.006 0.02183,0.003 0.02807,0.003 l -0.0031,0.0281 q 0.0062,0 0.02183,-0.003 0.01559,-0.006 0.01871,-0.003 0.0031,0.003 0.01247,0.0156 0.0094,0.0125 0.01559,0.0125 0,0.003 0.0094,0.006 0.01247,0.003 0.01559,0.006 0,0.006 0.0031,0.009 0,0.003 0,0.003 0.0031,0 0.0031,0.003 0,0.003 0.0031,0.003 0.0031,0.006 0.0094,0.0125 0.0094,0.006 0.01559,0.0156 0.0094,0.0125 0.01559,0.0218 l -0.0031,0.0125 v 0.0156 q 0,0.006 -0.0094,0.0218 -0.0062,0.0156 -0.0062,0.0187 v 0.0125 0.0156 l 0.0062,0.006 q 0.0031,0.003 0.0062,0.003 l 0.01247,0.003 q 0.0062,0.006 0.02495,0.0281 0.02183,0.0218 0.02807,0.0312 0.0031,-0.003 0.01559,-0.006 0.01559,-0.006 0.02183,-0.009 h 0.0094 0.0031 q 0.0062,0.006 0.01559,0.0125 0.01247,0.003 0.01247,0.006 0,0.003 0.0094,0.0187 0.01247,0.0156 0.01559,0.0218 l 0.0062,0.0156 q 0.0031,0.006 0,0.0281 0,0.0187 0,0.0249 -0.0031,0.003 0.0031,0.0218 0.0062,0.0156 0.0094,0.0187 v 0.003 q 0,0.003 0,0.006 0.0031,0 0.0031,0.003 -0.0031,0.003 -0.0031,0.006 0,0.003 -0.0031,0.006 -0.0031,0.006 -0.0094,0.0156 -0.0031,0.006 -0.0062,0.0125 l -0.0094,0.006 q -0.0031,0.006 -0.01247,0.0156 -0.0062,0.009 -0.0062,0.0125 0,0.006 -0.0062,0.0281 -0.0062,0.0218 -0.0062,0.0249 -0.0062,0.009 -0.0343,0.0343 -0.02495,0.0218 -0.03118,0.0281 l 0.0031,-0.0437 q -0.0062,-0.003 -0.0094,-0.006 -0.0031,0 -0.0031,0 0,-0.003 -0.0031,-0.003 -0.0031,0 -0.0031,-0.003 -0.0062,0.003 -0.0094,0.0156 -0.0031,0.0125 -0.0094,0.0125 -0.0031,0.003 -0.02183,0.006 -0.01559,0.003 -0.01871,0.006 -0.0031,0 -0.0094,0.006 l -0.0031,0.003 0.02495,0.0437 q -0.0031,0 -0.01871,0 -0.01559,-0.003 -0.02183,-0.003 -0.0062,0.003 -0.02183,0.006 -0.01559,0.003 -0.01871,0.009 -0.0062,0 -0.01559,0.009 -0.0094,0.006 -0.0094,0.0125 -0.0031,0 -0.0031,0.003 -0.0031,0.003 -0.0031,0.006 l 0.0031,0.003 0.0062,0.006 q 0,0.003 0,0.003 0.0031,0 0.0031,0.003 0,0.003 0.0031,0.003 v 0.006 0.003 q 0,0.003 -0.0031,0.009 -0.0031,0.003 -0.0062,0.009 l -0.0062,0.0125 q -0.0031,0 -0.0031,0.0125 0.0031,0.0125 0.0031,0.0156 0.0062,0 0.01247,0 0.0062,-0.003 0.01247,-0.003 0.0062,0.003 0.0343,0.0156 0.03119,0.009 0.04366,0.0187 0.0031,0 0.01247,0.003 0.0094,0.003 0.01247,0.009 0.0062,0 0.02183,0.0125 0.01559,0.0125 0.01559,0.0156 0.0062,0.003 0.02807,0.0156 0.02183,0.0125 0.02807,0.0156 0,0.003 0.01247,0.0281 0.01559,0.0218 0.01871,0.025 0.0062,0.006 0.03118,0.0343 0.02495,0.0281 0.0343,0.0374 h 0.01559 q 0,0.003 0.0094,0.0156 0.0094,0.009 0.01559,0.0125 0,0.003 0.01559,0.009 0.01559,0.003 0.01871,0.006 0.0031,0.003 0.0062,0.009 0.0062,0.0125 0.0094,0.0156 0.0062,0.0156 0.01247,0.0437 0.0094,0.0249 0.0094,0.0281 v 0.025 q 0,0.006 -0.0031,0.009 0,0 0,0.006 v 0.009 q -0.0031,0.006 -0.01559,0.0156 -0.0094,0.009 -0.01247,0.009 -0.0031,0.003 -0.0062,0.006 -0.0031,0 -0.0062,0.006 l -0.0062,0.0125 q 0,0.003 -0.0031,0.0156 0,0.009 0,0.0156 v 0.0249 q 0,0.003 0.0062,0.009 0.0062,0.003 0.0094,0.003 0.0031,0 0.01247,-0.003 0.0094,-0.006 0.01559,-0.006 h 0.0343 q 0,0.006 -0.01247,0.0437 -0.0094,0.0374 -0.01247,0.0499 0,0.003 -0.01247,0.0125 -0.01247,0.006 -0.02807,0.0156 -0.01559,0.009 -0.02807,0.0187 -0.01247,0.009 -0.01559,0.009 l -0.0094,0.009 q -0.0031,0.003 -0.0031,0.006 -0.0031,0.006 -0.0094,0.0343 -0.0031,0.0281 -0.0031,0.0374 -0.0031,0 -0.0031,0 0,-0.003 -0.0062,-0.003 -0.0031,-0.003 -0.01247,-0.009 -0.0094,-0.009 -0.01247,-0.009 h -0.0094 -0.0062 q -0.0031,0.003 -0.0062,0.009 -0.0031,0.006 -0.0031,0.0187 -0.0031,0.006 -0.0094,0.0281 -0.0062,0.0218 -0.0094,0.0187 -0.0031,0.006 -0.01871,0.0156 -0.01559,0.009 -0.02183,0.0125 -0.0062,0.003 -0.01559,0.003 -0.0094,-0.003 -0.0094,-0.006 -0.0031,0.006 -0.0094,0.0281 -0.0062,0.0187 -0.01247,0.025 0,0.0125 -0.01247,0.0125 l -0.0062,-0.006 q -0.0062,-0.006 -0.0062,-0.009 -0.0031,0 -0.0062,-0.009 -0.0031,-0.0125 -0.0062,-0.0125 0,-0.006 -0.01247,-0.0156 -0.0094,-0.0125 -0.0094,-0.0156 -0.0062,0.003 -0.0094,0.009 -0.0031,0.003 -0.0062,0.003 0,0 -0.0062,0.0125 l -0.0062,0.0125 q 0,0.003 0.0031,0.0218 0.0031,0.0156 0.0062,0.0218 0.0062,0.0125 0.01559,0.0125 0.0031,0.003 0.0062,0.003 h 0.0062 l -0.0031,0.0218 q -0.0062,0 -0.02183,0 -0.01247,-0.003 -0.01871,-0.003 -0.0031,0 -0.01559,0.009 -0.0094,0.006 -0.01247,0.006 -0.0062,-0.003 -0.01247,-0.009 -0.0031,0 -0.0094,-0.006 l -0.0031,-0.003 q -0.0062,0 -0.01247,0.006 -0.0031,0.006 -0.0031,0.009 l -0.0062,0.0935 q -0.0031,-0.003 -0.0062,-0.009 0,-0.006 -0.0031,-0.006 -0.0031,-0.003 -0.0062,-0.003 -0.0062,0 -0.0062,-0.003 -0.0031,0 -0.0062,0 0,0.003 -0.0031,0.003 h -0.0031 q -0.0031,0 -0.0094,0.006 -0.0062,0.006 -0.0062,0.009 0,0.003 0.0062,0.0125 0.0062,0.009 0.0062,0.0156 v 0.0281 q -0.0031,0 -0.01559,-0.003 -0.01247,0 -0.01559,-0.003 0,-0.003 -0.0031,-0.006 -0.0062,-0.006 -0.0062,-0.006 -0.0031,0 -0.0094,-0.0156 -0.0031,-0.0125 -0.0031,-0.0156 h -0.01247 -0.01559 q -0.0094,0.009 -0.0094,0.0187 0,0.003 0.0031,0.006 0.0062,0.006 0.0062,0.006 v 0.006 l -0.0031,0.003 q -0.0031,0.006 -0.01871,0.0187 -0.01247,0.0156 -0.01871,0.0218 -0.0031,-0.006 -0.01559,-0.0218 -0.0094,-0.0156 -0.0094,-0.0218 l -0.0062,-0.003 h -0.0062 q -0.0062,0.006 -0.01247,0.0218 -0.0031,0.0156 -0.0031,0.0218 -0.0031,0.006 -0.0094,0.0156 -0.0062,0.009 -0.0094,0.009 -0.0062,0.006 -0.02807,0.0249 -0.01871,0.0218 -0.02495,0.0281 -0.0062,0 -0.02183,0.003 -0.01559,0.003 -0.02183,0.006 -0.0031,0 -0.01871,-0.003 -0.01247,0 -0.01871,0 h -0.02807 q -0.0062,-0.003 -0.02495,-0.0281 -0.01871,-0.0218 -0.02495,-0.0312 -0.0062,-0.006 -0.0094,-0.0343 -0.0031,-0.025 0,-0.0312 l -0.01559,-0.003 q 0.0031,0.006 -0.0031,0.0249 -0.0062,0.0218 -0.01247,0.0281 0,0.003 -0.01871,0.006 -0.01559,0.003 -0.02183,0.003 -0.0031,0 -0.02495,-0.003 -0.02183,0 -0.02495,0 -0.01247,0 -0.01247,0.0156 -0.0031,0 -0.0094,0.009 -0.0062,0.0125 -0.0094,0.0187 l -0.0062,0.006 -0.0062,0.006 q -0.0031,-0.003 -0.0062,-0.0156 -0.0031,-0.0125 -0.0062,-0.0156 -0.0031,-0.006 -0.0062,-0.0125 0,-0.006 -0.0062,-0.0125 -0.0062,-0.009 -0.01247,-0.0156 -0.0031,0 -0.01871,-0.009 -0.01559,-0.006 -0.01871,-0.006 -0.0062,-0.006 -0.01247,-0.009 -0.0062,-0.003 -0.01247,-0.003 -0.0031,-0.006 -0.01559,-0.0187 -0.0094,-0.009 -0.01247,-0.0125 z m 0.40852,0.1185 q -0.0094,0 -0.01247,0.0125 0,0.0156 0.0094,0.0156 0.0094,0 0.0094,-0.0156 0.0031,-0.0125 -0.0062,-0.0125 z m 0.05613,-0.009 0.0094,-0.0156 h -0.0094 z m -0.290018,-0.0873 q -0.0094,0 -0.0094,0.0125 0,0.0156 0.0094,0.0156 0.0062,0.003 0.0062,-0.0125 0,-0.0125 -0.0062,-0.0156 z m 0.02495,0.003 0.01559,-0.0281 h -0.01247 z m 0.130976,-0.006 0.01871,0.003 v -0.0156 q -0.0031,-0.003 -0.0094,-0.0156 -0.0031,-0.009 -0.0062,-0.009 z m 0.121621,-0.006 h 0.01871 v -0.009 q -0.0031,0 -0.0094,-0.006 -0.0031,-0.006 -0.0094,-0.006 z m -0.140331,-0.0998 q -0.0094,0 -0.0094,0.0125 0,0.0125 0.0094,0.0125 0.01247,0 0.01247,-0.0125 0,-0.0125 -0.01247,-0.0125 z m -0.314967,-0.0468 q -0.01247,0 -0.01559,0.0156 0,0.0125 0.01247,0.0125 0.0062,0 0.0062,-0.0125 0.0031,-0.0156 -0.0031,-0.0156 z m 0.146569,0.0281 q 0,-0.003 0.0062,-0.006 0.0062,-0.006 0.0062,-0.0125 0,-0.003 0,-0.009 0.0031,-0.009 0.0031,-0.0156 h -0.01559 z m 0.436587,-0.0187 h 0.01559 l 0.0031,-0.0249 h -0.01559 z m -0.919951,-0.15592 h 0.01559 q 0,-0.006 -0.0031,-0.0156 0,-0.0125 0,-0.0156 l -0.01247,-0.0125 z m 0.439705,-0.48337 h 0.04054 v -0.0125 q -0.0031,-0.003 -0.0062,-0.006 -0.0031,-0.006 -0.0062,-0.006 h -0.0062 q -0.0031,0 -0.0062,0 0,-0.003 -0.0031,-0.003 -0.0031,0 -0.0062,0.003 -0.0031,0 -0.0062,0 z m 0.8326338,0.0468 0.0062,-0.006 0.0062,-0.006 q 0.0031,-0.003 0.0062,-0.0125 0.0031,-0.009 0.0031,-0.0156 h -0.01871 z m -0.7858568,-0.16604 q -0.01559,0 -0.02807,0.0125 -0.0031,0.003 -0.0062,0.009 -0.0031,0.006 -0.0062,0.009 -0.0031,0.003 -0.0031,0.006 -0.0031,0.003 -0.0031,0.006 v 0.009 h 0.03119 z m -0.106028,-0.003 q -0.0062,0 -0.01559,0.009 -0.0031,0.003 -0.0094,0.0125 -0.0031,0.009 -0.0062,0.0125 l 0.02807,0.003 z m 0.486483,0.0405 q 0,0.003 0.0062,0.009 0.0062,0.003 0.0094,0.006 h 0.0094 v -0.0156 z m 0.3648608,-0.009 q -0.0062,-0.003 -0.0094,0.009 0,0.009 0.0062,0.006 0.01559,-0.009 0.0031,-0.0156 z m 0.02183,-0.0218 h 0.01559 l 0.0031,-0.0281 h -0.01559 z m -0.4459418,-0.0405 0.03118,0.003 q 0,-0.0125 -0.0031,-0.0156 -0.0031,-0.006 -0.01559,-0.0156 -0.0094,-0.009 -0.01247,-0.0125 z m -0.04678,-0.14969 q 0,0.003 0.0031,0.0156 0.0062,0.009 0.0094,0.0125 l 0.01559,0.0156 v -0.0187 -0.0218 q 0,-0.0125 -0.01247,-0.0125 -0.0031,0 -0.0062,-0.003 h -0.0062 q -0.0031,0 -0.0031,-0.003 z m -0.436587,-0.0374 q -0.0062,0 -0.0094,0.0125 0,0.0125 0.0062,0.0125 0.01559,0.003 0.01559,-0.009 0.0031,-0.0125 -0.01247,-0.0156 z m 0.333678,-0.0218 q 0,0.003 -0.0062,0.006 -0.0062,0.003 -0.0062,0.006 -0.0031,0.006 -0.0062,0.0218 -0.0031,0.0125 -0.0031,0.0187 h 0.01871 z m -0.171517,0.0156 q -0.01247,0 -0.01559,0.0156 0,0.0125 0.01247,0.0125 0.0094,0.003 0.0094,-0.009 0.0031,-0.0156 -0.0062,-0.0187 z m 0.162161,-0.0748 0.01559,-0.006 q 0.0031,-0.003 0.0062,-0.0125 0.0062,-0.009 0.0062,-0.0125 l -0.02495,-0.003 z m 0.255715,-0.0281 h 0.02495 v -0.0187 h -0.02495 z m -0.07484,-0.0873 q -0.0062,-0.006 -0.0094,0.003 0,0.009 0.0062,0.0125 0.0094,-0.006 0.0094,-0.009 0,-0.006 -0.0062,-0.006 z m 0.08108,-0.0374 q 0,0.003 -0.0031,0.009 0,0.006 0,0.0125 v 0.009 0.006 q 0,0.003 0.0031,0.003 0.0094,0 0.0094,-0.0125 0,-0.003 0,-0.009 0.0031,-0.006 0.0031,-0.0125 v -0.0187 z m 0.05613,-0.0187 q 0,0.006 0.0031,0.0125 0.0031,0.009 0.0062,0.009 0.0031,0 0.01247,-0.003 0.01247,-0.003 0.01871,-0.006 l 0.0094,-0.009 -0.03742,-0.0343 q -0.0031,0.003 -0.0094,0.0156 -0.0031,0.009 -0.0031,0.0156 z m 0.093549,-0.0374 q 0.0031,-0.006 -0.0062,-0.006 -0.0094,-0.003 -0.0062,0.003 0,0.009 0.0031,0.009 0.0062,0 0.0094,-0.006 z m 0.09667,-0.0904 q -0.0062,0 -0.0062,0.009 0,0.006 0.0062,0.006 0.0062,0 0.0062,-0.006 0,-0.006 -0.0062,-0.009 z m -0.2992819,-0.0935 q -0.0094,0 -0.01247,0.0125 0,0.0125 0.0094,0.0125 0.01247,0 0.01247,-0.0125 0.0031,-0.0125 -0.0094,-0.0125 z m 0,-0.0281 q -0.0094,0 -0.0094,0.0156 0,0.0125 0.0094,0.0125 0.01247,0 0.01247,-0.0125 0,-0.0156 -0.01247,-0.0156 z m -0.767145,-0.0436 h 0.01559 v -0.025 h -0.01559 z m 0.823278,-0.006 q -0.0062,0 -0.0062,0.0156 0,0.0125 0.0062,0.0125 0.01247,0 0.01247,-0.0125 0,-0.0156 -0.01247,-0.0156 z m -0.0094,-0.009 q -0.01559,-0.003 -0.01559,0.009 0,0.009 0.01559,0.0125 0.0062,0 0.0062,-0.009 0,-0.0125 -0.0062,-0.0125 z m -0.417876,-0.17151 0.0031,-0.0187 h -0.01247 z m 0.290019,0.0156 0.01871,-0.0156 -0.01559,-0.003 z m -0.289966,-0.1261 q 0,0.0156 0.0062,0.0281 l 0.0062,0.006 0.0062,0.006 q 0,0.006 0.0031,0.025 0.0062,0.0187 0.0062,0.0249 l 0.01559,0.003 0.0062,-0.10291 q -0.0062,0.003 -0.01871,0.006 -0.0094,0 -0.01247,0.003 z m -0.04054,0.0624 0.01871,0.003 -0.01871,-0.0156 z m 0.483364,-0.0249 h 0.01559 v -0.0125 h -0.01559 z"
         style="font-style:normal;font-variant:normal;font-weight:normal;font-stretch:normal;font-size:2.82222px;font-family:Chalkduster;-inkscape-font-specification:'Chalkduster, Normal';font-variant-ligatures:normal;font-variant-caps:normal;font-variant-numeric:normal;font-feature-settings:normal;text-align:start;writing-mode:lr-tb;text-anchor:start;fill:#ff0000;fill-opacity:1;stroke-width:0.264583"
         id="path2000"
         inkscape:connector-curvature="0"
         inkscape:label="path2000" />
    </g>
    <g
       transform="translate(0.24999949,-3.75029)"
       aria-label="Clk"
       style="font-style:normal;font-variant:normal;font-weight:bold;font-stretch:normal;font-size:2.82222px;line-height:1.25;font-family:FreeMono;-inkscape-font-specification:'FreeMono, Bold';font-variant-ligatures:normal;font-variant-caps:normal;font-variant-numeric:normal;font-feature-settings:normal;text-align:start;letter-spacing:0px;word-spacing:0px;writing-mode:lr-tb;text-anchor:start;fill:#ffffff;fill-opacity:1;stroke:none;stroke-width:0.264583"
       id="text1542">
      <path
         d="m 3.2382,180.71778 q 0.1326444,0 0.2257778,-0.031 0.095956,-0.0339 0.1354666,-0.0706 0.039511,-0.0395 0.079022,-0.0706 0.042333,-0.0339 0.079022,-0.0339 0.056444,0 0.098778,0.0423 0.042333,0.0423 0.042333,0.0988 0,0.12136 -0.1947333,0.23425 -0.1919112,0.11289 -0.4741334,0.11289 -0.3584222,0 -0.5954889,-0.20885 Q 2.4,180.57949 2.4,180.25776 v -0.18627 q 0,-0.33866 0.2201333,-0.56726 0.2201333,-0.2286 0.5475111,-0.2286 0.1975556,0 0.4007556,0.0959 l 0.028222,0.0113 q 0.047978,-0.0677 0.1185333,-0.0677 0.081845,0 0.1100667,0.048 0.031045,0.048 0.031045,0.13829 v 0.23706 q 0,0.18627 -0.1411112,0.18627 -0.0508,0 -0.084667,-0.0282 -0.031045,-0.0282 -0.039511,-0.0508 -0.00564,-0.0254 -0.014111,-0.0706 -0.016933,-0.0847 -0.1044223,-0.13547 -0.084667,-0.0536 -0.1580444,-0.0677 -0.073378,-0.0141 -0.1354667,-0.0141 -0.2144889,0 -0.3556,0.14676 -0.1411111,0.14393 -0.1411111,0.36688 v 0.18063 q 0,0.21166 0.1495778,0.33866 0.1524,0.127 0.4064,0.127 z"
         style="font-style:normal;font-variant:normal;font-weight:bold;font-stretch:normal;font-size:2.82222px;font-family:FreeMono;-inkscape-font-specification:'FreeMono, Bold';font-variant-ligatures:normal;font-variant-caps:normal;font-variant-numeric:normal;font-feature-settings:normal;text-align:start;writing-mode:lr-tb;text-anchor:start;fill:#ffffff;fill-opacity:1;stroke-width:0.264583"
         id="path2265"
         inkscape:connector-curvature="0" />
      <path
         d="m 4.2954309,179.34336 q 0,-0.0818 0.047978,-0.11007 0.047978,-0.031 0.1411111,-0.031 h 0.5023556 v 1.47602 h 0.3443111 q 0.1862666,0 0.1862666,0.14111 0,0.14111 -0.1862666,0.14111 H 4.360342 q -0.1862666,0 -0.1862666,-0.14111 0,-0.0818 0.047978,-0.11006 0.047978,-0.031 0.1382889,-0.031 h 0.3443111 v -1.1938 H 4.4845198 q -0.1890889,0 -0.1890889,-0.14111 z"
         style="font-style:normal;font-variant:normal;font-weight:bold;font-stretch:normal;font-size:2.82222px;font-family:FreeMono;-inkscape-font-specification:'FreeMono, Bold';font-variant-ligatures:normal;font-variant-caps:normal;font-variant-numeric:normal;font-feature-settings:normal;text-align:start;writing-mode:lr-tb;text-anchor:start;fill:#ffffff;fill-opacity:1;stroke-width:0.264583"
         id="path2267"
         inkscape:connector-curvature="0" />
      <path
         d="m 7.1137285,180.67827 q 0.1890889,0 0.1890889,0.14111 0,0.14111 -0.1890889,0.14111 H 6.7807063 q -0.1862667,0 -0.1862667,-0.14111 0,-0.0564 0.045156,-0.10442 l -0.2906889,-0.25682 -0.0508,0.0395 v 0.46284 H 5.9707285 q -0.1862666,0 -0.1862666,-0.14111 0,-0.0818 0.047978,-0.11006 0.047978,-0.031 0.1382889,-0.031 h 0.045156 v -1.1938 h -0.045156 q -0.090311,0 -0.1382889,-0.0282 -0.047978,-0.031 -0.047978,-0.11289 0,-0.14111 0.1862666,-0.14111 h 0.3273778 v 0.94827 l 0.2229556,-0.1778 q -0.045156,-0.0536 -0.045156,-0.10443 0,-0.14111 0.1890889,-0.14111 h 0.3160889 q 0.093133,0 0.1382889,0.031 0.047978,0.031 0.047978,0.11006 0,0.14112 -0.1862667,0.14112 h -0.079022 l -0.3330223,0.27093 0.4515556,0.39793 z"
         style="font-style:normal;font-variant:normal;font-weight:bold;font-stretch:normal;font-size:2.82222px;font-family:FreeMono;-inkscape-font-specification:'FreeMono, Bold';font-variant-ligatures:normal;font-variant-caps:normal;font-variant-numeric:normal;font-feature-settings:normal;text-align:start;writing-mode:lr-tb;text-anchor:start;fill:#ffffff;fill-opacity:1;stroke-width:0.264583"
         id="path2269"
         inkscape:connector-curvature="0" />
    </g>
    <g
       transform="translate(0.09799949,-4.50037)"
       aria-label="Rst"
       style="font-style:normal;font-variant:normal;font-weight:bold;font-stretch:normal;font-size:2.82222px;line-height:1.25;font-family:FreeMono;-inkscape-font-specification:'FreeMono, Bold';font-variant-ligatures:normal;font-variant-caps:normal;font-variant-numeric:normal;font-feature-settings:normal;text-align:start;letter-spacing:0px;word-spacing:0px;writing-mode:lr-tb;text-anchor:start;fill:#ffffff;fill-opacity:1;stroke:none;stroke-width:0.264583"
       id="text1542-4">
      <path
         d="m 4.076,192.67263 q 0.1862667,0 0.1862667,0.14111 0,0.14111 -0.1862667,0.14111 H 3.8530444 q -0.1044222,-0.2032 -0.2681111,-0.39793 -0.1608666,-0.19756 -0.2511777,-0.2286 H 3.0628222 v 0.34431 H 3.1616 q 0.1862667,0 0.1862667,0.14111 0,0.14111 -0.1862667,0.14111 H 2.7382667 q -0.1862667,0 -0.1862667,-0.14111 0,-0.14111 0.1862667,-0.14111 H 2.7806 v -1.08091 H 2.738267 q -0.1862667,0 -0.1862667,-0.14112 0,-0.0818 0.047978,-0.11006 0.047978,-0.031 0.1382889,-0.031 h 0.6293555 q 0.2737556,0 0.4459111,0.14111 0.1749778,0.13829 0.1749778,0.36125 0,0.25964 -0.3048,0.42615 0.1834445,0.16087 0.3556,0.43463 z m -1.0131778,-0.62654 h 0.2144889 q 0.1778,0 0.2935111,-0.0677 0.1185334,-0.0706 0.1185334,-0.17498 0,-0.0903 -0.087489,-0.14958 -0.087489,-0.0621 -0.2229556,-0.0621 H 3.0628222 Z"
         id="path2272"
         inkscape:connector-curvature="0" />
      <path
         d="m 5.6638087,191.97554 q 0,0.0903 -0.031044,0.13829 -0.028222,0.048 -0.1100667,0.048 -0.0508,0 -0.084667,-0.031 -0.033867,-0.031 -0.056444,-0.0649 -0.019756,-0.0367 -0.095956,-0.0677 -0.073378,-0.031 -0.2003777,-0.031 -0.1072445,0 -0.1947334,0.031 -0.084667,0.0282 -0.084667,0.0677 0,0.0564 0.1241777,0.0818 0.1241778,0.0226 0.3104445,0.0508 0.1862666,0.0282 0.2850444,0.0847 0.093133,0.0508 0.1439334,0.13547 0.053622,0.0847 0.053622,0.18344 0,0.17216 -0.1778,0.28505 Q 5.3674754,193 5.0937198,193 q -0.2455333,0 -0.4176889,-0.0818 -0.042333,0.0339 -0.090311,0.0339 -0.1439333,0 -0.1439333,-0.18627 v -0.0931 q 0,-0.18909 0.1439333,-0.18909 0.1072445,0 0.1439334,0.12418 0.1213555,0.11006 0.3527777,0.11006 0.1354667,0 0.2314223,-0.0367 0.098778,-0.0367 0.098778,-0.0847 0,-0.11007 -0.3556,-0.14676 -0.2963333,-0.031 -0.4289777,-0.12135 -0.1326445,-0.0903 -0.1326445,-0.25683 0,-0.16933 0.1636889,-0.27657 0.1636889,-0.11007 0.4176889,-0.11007 0.2060222,0 0.3640667,0.0734 0.031044,-0.0734 0.090311,-0.0734 0.1326444,0 0.1326444,0.18627 z"
         id="path2274"
         inkscape:connector-curvature="0" />
      <path
         d="m 6.5319508,192.55692 q 0,0.0875 0.047978,0.12417 0.047978,0.0367 0.1947334,0.0367 0.1100666,0 0.2003778,-0.0198 0.093133,-0.0198 0.1382888,-0.0423 0.047978,-0.0254 0.093133,-0.0452 0.047978,-0.0198 0.079022,-0.0198 0.056444,0 0.095956,0.0423 0.039511,0.0423 0.039511,0.1016 0,0.079 -0.1213556,0.14393 -0.1185333,0.0621 -0.2652889,0.0903 Q 6.890373,193 6.7718397,193 q -0.2398889,0 -0.381,-0.10442 -0.1411112,-0.10442 -0.1411112,-0.28504 v -0.60678 h -0.098778 q -0.1862667,0 -0.1862667,-0.14111 0,-0.0819 0.047978,-0.11007 0.047978,-0.031 0.1382889,-0.031 h 0.098778 v -0.24836 q 0,-0.18626 0.1411112,-0.18626 0.081844,0 0.1100666,0.048 0.031045,0.048 0.031045,0.13829 v 0.24836 H 7.042773 q 0.090311,0 0.1382889,0.031 0.047978,0.0282 0.047978,0.11007 0,0.14111 -0.1862667,0.14111 H 6.5319508 Z"
         id="path2276"
         inkscape:connector-curvature="0" />
    </g>
    <g
       inkscape:label="Layer 1"
       id="layer1-3"
       transform="translate(-86.729468,57.22747)">
      <path
         inkscape:connector-curvature="0"
         id="path7261"
         d="m 91.773153,127.33454 c -1.609548,0 -2.918685,-1.30916 -2.918685,-2.91871 0,-1.60954 1.309137,-2.91867 2.918685,-2.91867 1.609549,0 2.918682,1.30913 2.918682,2.91867 0,1.60955 -1.309133,2.91871 -2.918682,2.91871"
         style="fill:#c7c7db;fill-opacity:1;fill-rule:nonzero;stroke:#4b4b77;stroke-width:0.45;stroke-miterlimit:4;stroke-dasharray:none;stroke-opacity:1" />
      <path
         inkscape:connector-curvature="0"
         id="path7265"
         d="m 93.57287,124.41583 c 0,0.99357 -0.806153,1.79974 -1.799717,1.79974 -0.993567,0 -1.79972,-0.80617 -1.79972,-1.79974 0,-0.99356 0.806153,-1.79969 1.79972,-1.79969 0.993564,0 1.799717,0.80613 1.799717,1.79969"
         style="fill:#000000;fill-opacity:1;fill-rule:nonzero;stroke:none;stroke-width:0.352778" />
    </g>
    <g
       inkscape:label="Layer 1"
       id="g1698"
       transform="translate(-86.729468,69.22747)">
      <path
         inkscape:connector-curvature="0"
         id="path1694"
         d="m 91.773153,127.33454 c -1.609548,0 -2.918685,-1.30916 -2.918685,-2.91871 0,-1.60954 1.309137,-2.91867 2.918685,-2.91867 1.609549,0 2.918682,1.30913 2.918682,2.91867 0,1.60955 -1.309133,2.91871 -2.918682,2.91871"
         style="fill:#c7c7db;fill-opacity:1;fill-rule:nonzero;stroke:#4b4b77;stroke-width:0.45;stroke-miterlimit:4;stroke-dasharray:none;stroke-opacity:1" />
      <path
         inkscape:connector-curvature="0"
         id="path1696"
         d="m 93.57287,124.41583 c 0,0.99357 -0.806153,1.79974 -1.799717,1.79974 -0.993567,0 -1.79972,-0.80617 -1.79972,-1.79974 0,-0.99356 0.806153,-1.79969 1.79972,-1.79969 0.993564,0 1.799717,0.80613 1.799717,1.79969"
         style="fill:#000000;fill-opacity:1;fill-rule:nonzero;stroke:none;stroke-width:0.352778" />
    </g>
    <g
       aria-label="Dir"
       id="text11381"
       style="font-weight:bold;font-size:2.82223px;line-height:1.25;font-family:FreeMono;-inkscape-font-specification:'FreeMono, Bold';letter-spacing:0px;word-spacing:0px;fill:#ffffff;stroke-width:0.264583"
       transform="translate(0.5,1)">
      <path
         d="m 2.376663,260.58112 q -0.1890894,0 -0.1890894,-0.14112 0,-0.0677 0.045156,-0.10442 0.045156,-0.0367 0.1270004,-0.0367 v -1.08091 q -0.1721561,0 -0.1721561,-0.14111 0,-0.0847 0.047978,-0.11289 0.0508,-0.0282 0.1411115,-0.0282 h 0.5983128 q 0.3076231,0 0.5164681,0.22577 0.2116673,0.22578 0.2116673,0.55881 v 0.13264 q 0,0.3302 -0.2060228,0.53058 -0.2032006,0.19756 -0.5446904,0.19756 z m 1.0442252,-0.86643 q 0,-0.21167 -0.1298226,-0.35278 -0.1270004,-0.14393 -0.3386676,-0.14393 H 2.6419527 v 1.08091 h 0.3132675 q 0.1411115,0 0.2370673,-0.0423 0.098778,-0.0423 0.1439338,-0.11571 0.047978,-0.0734 0.064911,-0.14394 0.019756,-0.0706 0.019756,-0.1524 z"
         id="path15071" />
      <path
         d="m 5.176311,260.29889 q 0.1862672,0 0.1862672,0.14111 0,0.14112 -0.1862672,0.14112 H 4.2054638 q -0.1862672,0 -0.1862672,-0.14112 0,-0.0818 0.047978,-0.11006 0.047978,-0.0311 0.1382892,-0.0311 h 0.3443121 v -0.66887 H 4.329642 q -0.1890895,0 -0.1890895,-0.14111 0,-0.0847 0.047978,-0.11289 0.0508,-0.0282 0.1411116,-0.0282 H 4.831999 v 0.95109 z m -0.3838233,-1.47602 v 0.29633 H 4.4594645 v -0.29633 z"
         id="path15073" />
      <path
         d="m 6.7934445,259.31393 q 0.1185337,0 0.2370673,0.0734 0.1185337,0.0734 0.1185337,0.16651 0,0.0593 -0.042333,0.1016 -0.042333,0.0423 -0.098778,0.0423 -0.047978,0 -0.110067,-0.0508 -0.062089,-0.0508 -0.1100669,-0.0508 -0.067734,0 -0.1665116,0.0621 -0.095956,0.0593 -0.2991564,0.22577 v 0.41487 h 0.39229 q 0.1890894,0 0.1890894,0.14111 0,0.14112 -0.1890894,0.14112 H 5.8762197 q -0.1862672,0 -0.1862672,-0.14112 0,-0.0818 0.047978,-0.11006 0.047978,-0.0311 0.1382892,-0.0311 h 0.1636894 v -0.66887 H 5.941131 q -0.1862672,0 -0.1862672,-0.14111 0,-0.14111 0.1862672,-0.14111 h 0.3810011 v 0.18345 q 0.1693338,-0.127 0.2681118,-0.17216 0.098778,-0.0452 0.2032006,-0.0452 z"
         id="path15075" />
    </g>
    <g
       inkscape:label="Layer 1"
       id="g14965"
       transform="translate(-86.729468,163.22747)">
      <path
         inkscape:connector-curvature="0"
         id="path14961"
         d="m 91.773153,127.33454 c -1.609548,0 -2.918685,-1.30916 -2.918685,-2.91871 0,-1.60954 1.309137,-2.91867 2.918685,-2.91867 1.609549,0 2.918682,1.30913 2.918682,2.91867 0,1.60955 -1.309133,2.91871 -2.918682,2.91871"
         style="fill:#c7c7db;fill-opacity:1;fill-rule:nonzero;stroke:#4b4b77;stroke-width:0.45;stroke-miterlimit:4;stroke-dasharray:none;stroke-opacity:1" />
      <path
         inkscape:connector-curvature="0"
         id="path14963"
         d="m 93.57287,124.41583 c 0,0.99357 -0.806153,1.79974 -1.799717,1.79974 -0.993567,0 -1.79972,-0.80617 -1.79972,-1.79974 0,-0.99356 0.806153,-1.79969 1.79972,-1.79969 0.993564,0 1.799717,0.80613 1.799717,1.79969"
         style="fill:#000000;fill-opacity:1;fill-rule:nonzero;stroke:none;stroke-width:0.352778" />
    </g>
    <g
       aria-label="Out"
       id="text14969"
       style="font-weight:bold;font-size:2.82223px;line-height:1.25;font-family:FreeMono;-inkscape-font-specification:'FreeMono, Bold';letter-spacing:0px;word-spacing:0px;fill:#ffffff;stroke-width:0.264583">
      <path
         d="m 3.4975537,281.14624 q 0.062089,0 0.1467559,0.0198 0.084667,0.0169 0.2003784,0.0762 0.1185336,0.0593 0.2116672,0.14958 0.095956,0.0903 0.1608671,0.25682 0.067734,0.16369 0.067734,0.37254 0,0.34713 -0.2342451,0.59831 -0.2314229,0.25118 -0.5531571,0.25118 -0.3273787,0 -0.5588016,-0.25118 -0.2286006,-0.254 -0.2286006,-0.61243 0,-0.3556 0.2314228,-0.60677 0.2314229,-0.25401 0.5559794,-0.25401 z m 0,0.28223 q -0.2060228,0 -0.355601,0.17215 -0.1495782,0.16934 -0.1495782,0.4064 0,0.23989 0.1467559,0.41205 0.1495782,0.16933 0.3584233,0.16933 0.2060228,0 0.355601,-0.16933 0.1495781,-0.16933 0.1495781,-0.40358 0,-0.24271 -0.1495781,-0.41487 -0.146756,-0.17215 -0.355601,-0.17215 z"
         id="path15096" />
      <path
         d="m 5.3743324,281.88002 q -0.084667,0 -0.1213559,-0.0423 -0.036689,-0.0452 -0.036689,-0.0988 0,-0.14111 0.1862672,-0.14111 h 0.381001 v 0.95109 q 0.1721561,0 0.1721561,0.14111 0,0.14112 -0.1862672,0.14112 H 5.5013327 v -0.13547 q -0.1044225,0.0988 -0.1890894,0.13547 -0.081845,0.0367 -0.1975561,0.0367 -0.2229562,0 -0.3640677,-0.12417 -0.1382893,-0.127 -0.1382893,-0.35278 v -0.51083 h -0.0762 q -0.070556,0 -0.1128892,-0.0395 -0.042333,-0.0395 -0.042333,-0.1016 0,-0.0818 0.047978,-0.11006 0.047978,-0.031 0.1382893,-0.031 h 0.3273786 v 0.78458 q 0,0.2032 0.2483563,0.2032 0.1072447,0 0.1778005,-0.0367 0.070556,-0.0395 0.1806227,-0.15522 v -0.51365 h -0.098778 z"
         id="path15098" />
      <path
         d="m 6.6415094,282.43318 q 0,0.0875 0.047978,0.12418 0.047978,0.0367 0.1947338,0.0367 0.110067,0 0.2003784,-0.0198 0.093134,-0.0198 0.1382893,-0.0423 0.047978,-0.0254 0.093134,-0.0452 0.047978,-0.0198 0.079022,-0.0198 0.056445,0 0.095956,0.0423 0.039511,0.0423 0.039511,0.1016 0,0.079 -0.1213559,0.14394 -0.1185336,0.0621 -0.2652896,0.0903 -0.1439337,0.031 -0.2624674,0.031 -0.2398895,0 -0.381001,-0.10442 -0.1411116,-0.10442 -0.1411116,-0.28505 v -0.60678 h -0.098778 q -0.1862672,0 -0.1862672,-0.14111 0,-0.0818 0.047978,-0.11006 0.047978,-0.031 0.1382893,-0.031 h 0.098778 v -0.24836 q 0,-0.18626 0.1411116,-0.18626 0.081845,0 0.1100669,0.048 0.031045,0.048 0.031045,0.13828 v 0.24836 H 7.152333 q 0.090311,0 0.1382893,0.031 0.047978,0.0282 0.047978,0.11006 0,0.14111 -0.1862672,0.14111 H 6.6415094 Z"
         id="path15100" />
    </g>
    <g
       inkscape:label="Layer 1"
       id="g14995"
       transform="translate(-86.729468,81.22747)">
      <path
         inkscape:connector-curvature="0"
         id="path14991"
         d="m 91.773153,127.33454 c -1.609548,0 -2.918685,-1.30916 -2.918685,-2.91871 0,-1.60954 1.309137,-2.91867 2.918685,-2.91867 1.609549,0 2.918682,1.30913 2.918682,2.91867 0,1.60955 -1.309133,2.91871 -2.918682,2.91871"
         style="fill:#c7c7db;fill-opacity:1;fill-rule:nonzero;stroke:#4b4b77;stroke-width:0.45;stroke-miterlimit:4;stroke-dasharray:none;stroke-opacity:1" />
      <path
         inkscape:connector-curvature="0"
         id="path14993"
         d="m 93.57287,124.41583 c 0,0.99357 -0.806153,1.79974 -1.799717,1.79974 -0.993567,0 -1.79972,-0.80617 -1.79972,-1.79974 0,-0.99356 0.806153,-1.79969 1.79972,-1.79969 0.993564,0 1.799717,0.80613 1.799717,1.79969"
         style="fill:#000000;fill-opacity:1;fill-rule:nonzero;stroke:none;stroke-width:0.352778" />
    </g>
    <g
       aria-label="P16S"
       id="text2491"
       style="font-weight:bold;font-size:3.88056px;line-height:1.25;font-family:FreeMono;-inkscape-font-specification:'FreeMono, Bold';letter-spacing:0px;word-spacing:0px;fill:#ffffff;stroke-width:0.264583">
      <path
         d="m 2.7109375,171.88534 q 0,0.10477 -0.023283,0.20178 -0.023283,0.097 -0.089253,0.20179 -0.06597,0.1009 -0.166864,0.17851 -0.097014,0.0737 -0.2638781,0.12418 -0.1629835,0.0466 -0.3764143,0.0466 H 1.4109499 v 0.38806 h 0.3841754 q 0.256117,0 0.256117,0.19403 0,0.19403 -0.256117,0.19403 H 0.96468552 q -0.25611695,0 -0.25611695,-0.19403 0,-0.19403 0.25611695,-0.19403 h 0.0582084 v -1.48625 h -0.0582084 q -0.25611695,0 -0.25611695,-0.19403 0,-0.11254 0.0659695,-0.15134 0.0659695,-0.0427 0.19014743,-0.0427 H 1.868856 q 0.3686532,0 0.6053673,0.20567 0.2367142,0.20567 0.2367142,0.52776 z m -1.2999876,-0.34537 v 0.71014 H 1.868856 q 0.2017891,0 0.3143253,-0.0931 0.1164168,-0.097 0.1164168,-0.25999 0,-0.16687 -0.1164168,-0.26 -0.1125362,-0.097 -0.3143253,-0.097 z"
         id="path15021" />
      <path
         d="m 3.3085378,173.22025 q 0,-0.11254 0.06597,-0.15134 0.06597,-0.0427 0.1901475,-0.0427 h 0.3919365 v -1.66088 l -0.3182059,0.22507 q -0.058208,0.0505 -0.159103,0.0505 -0.06597,0 -0.1164168,-0.0427 -0.046567,-0.0427 -0.046567,-0.11253 0,-0.0621 0.027164,-0.1009 0.027164,-0.0427 0.093133,-0.0892 l 0.5238756,-0.35701 h 0.3841754 v 2.08774 h 0.3919366 q 0.2561169,0 0.2561169,0.19403 0,0.19403 -0.2561169,0.19403 H 3.5646548 q -0.256117,0 -0.256117,-0.19403 z"
         id="path15023" />
      <path
         d="m 6.5992467,173.47248 q -0.2017891,0 -0.3608921,-0.0737 -0.1552224,-0.0776 -0.2522364,-0.19402 -0.093133,-0.11642 -0.1552224,-0.27552 -0.062089,-0.15911 -0.085372,-0.31045 -0.023283,-0.15134 -0.023283,-0.31044 0,-0.51224 0.2988031,-0.88865 0.3919365,-0.48119 0.9352149,-0.48119 0.2056697,0 0.3298476,0.0699 0.1241779,0.0699 0.1241779,0.18239 0,0.0815 -0.058208,0.1397 -0.058208,0.0582 -0.1397001,0.0582 -0.023283,0 -0.1125363,-0.0233 -0.085372,-0.0272 -0.1202973,-0.0272 -0.3065643,0 -0.5510395,0.23283 -0.2405947,0.22895 -0.3065643,0.58596 0.1397002,-0.14746 0.2599975,-0.20955 0.124178,-0.0621 0.2716392,-0.0621 0.3065643,0 0.5199951,0.23283 0.2173113,0.23283 0.2173113,0.56268 0,0.35313 -0.2095502,0.57432 -0.2095502,0.21731 -0.582084,0.21731 z m -0.4385033,-0.86924 q 0.042686,0.25224 0.1513419,0.36865 0.1086556,0.11254 0.2988031,0.11254 0.1823863,0 0.2871614,-0.10866 0.1047751,-0.10865 0.1047751,-0.2988 0,-0.16686 -0.1086556,-0.28328 -0.1086557,-0.1203 -0.2677587,-0.1203 -0.1241779,0 -0.2561169,0.0931 -0.1319391,0.0931 -0.2095503,0.23672 z"
         id="path15025" />
      <path
         d="m 9.4592135,171.09758 q 0.1164167,0 0.1513418,0.066 0.038806,0.066 0.038806,0.19015 v 0.34149 q 0,0.26 -0.1901474,0.26 -0.031045,0 -0.058208,-0.004 -0.023283,-0.008 -0.042686,-0.0155 -0.015522,-0.0116 -0.031045,-0.0272 -0.015522,-0.0194 -0.023283,-0.0311 -0.00776,-0.0116 -0.015522,-0.0349 -0.00776,-0.0233 -0.011642,-0.031 0,-0.0116 -0.00776,-0.0349 -0.00388,-0.0272 -0.00388,-0.031 -0.027164,-0.11642 -0.1552224,-0.18627 -0.124178,-0.0737 -0.3065643,-0.0737 -0.1823863,0 -0.3104448,0.0854 -0.1280584,0.0854 -0.1280584,0.20955 0,0.13194 0.1280584,0.20567 0.1280585,0.0699 0.2988031,0.0931 0.1707447,0.0194 0.3802949,0.0776 0.2095503,0.0543 0.3298476,0.15135 0.228953,0.18238 0.228953,0.48507 0,0.30268 -0.2444752,0.48895 -0.2444753,0.18626 -0.644173,0.18626 -0.3220865,0 -0.6053673,-0.15134 -0.077611,0.0931 -0.1552224,0.0931 -0.1979086,0 -0.1979086,-0.25612 v -0.25612 q 0,-0.12806 0.042686,-0.19015 0.042686,-0.066 0.1513418,-0.066 0.034925,0 0.062089,0.008 0.031045,0.008 0.050447,0.0233 0.019403,0.0155 0.031044,0.031 0.015522,0.0117 0.023283,0.0349 0.011642,0.0233 0.015522,0.0349 0.00388,0.0117 0.00776,0.031 0.00776,0.0194 0.00776,0.0233 0.027164,0.10478 0.1862669,0.17851 0.1591029,0.0737 0.3531309,0.0737 0.2173114,0 0.3647726,-0.0854 0.1474613,-0.0854 0.1474613,-0.20955 0,-0.11642 -0.1164168,-0.18627 -0.1125362,-0.0699 -0.2638781,-0.0931 -0.1474612,-0.0233 -0.3492504,-0.0698 -0.1979085,-0.0466 -0.3182059,-0.11254 -0.1474612,-0.0854 -0.2328336,-0.22895 -0.085372,-0.14358 -0.085372,-0.31045 0,-0.29492 0.2405947,-0.48895 0.2405948,-0.19791 0.6014868,-0.19791 0.2988031,0 0.5044728,0.12806 0.031045,-0.0737 0.062089,-0.10089 0.031045,-0.0272 0.089253,-0.0272 z"
         id="path15027" />
    </g>
    <g
       aria-label="In"
       id="text14999"
       style="font-weight:bold;font-size:2.82223px;line-height:1.25;font-family:FreeMono;-inkscape-font-specification:'FreeMono, Bold';letter-spacing:0px;word-spacing:0px;fill:#ffffff;stroke-width:0.264583">
      <path
         d="m 4.4237104,201.04889 q 0.090311,0 0.1382893,0.031 0.047978,0.0282 0.047978,0.11006 0,0.14112 -0.1862672,0.14112 H 3.5713969 q -0.1862672,0 -0.1862672,-0.14112 0,-0.0818 0.047978,-0.11006 0.047978,-0.031 0.1382893,-0.031 h 0.2850453 v -1.08091 H 3.5713969 q -0.1862672,0 -0.1862672,-0.14111 0,-0.0819 0.047978,-0.11007 0.047978,-0.031 0.1382893,-0.031 h 0.8523135 q 0.090311,0 0.1382893,0.031 0.047978,0.0282 0.047978,0.11007 0,0.14111 -0.1862672,0.14111 H 4.1386652 v 1.08091 z"
         id="path15048" />
      <path
         d="m 5.0953969,201.33112 q -0.1862672,0 -0.1862672,-0.14112 0,-0.14111 0.1862672,-0.14111 h 0.016933 v -0.66887 q -0.172156,-0.006 -0.172156,-0.14111 0,-0.14111 0.1890894,-0.14111 h 0.2652896 v 0.13547 q 0.1016003,-0.096 0.1862672,-0.13265 0.084667,-0.0395 0.2003784,-0.0395 0.2201339,0 0.3612454,0.12418 0.1411115,0.12418 0.1411115,0.34996 v 0.51364 q 0.1721561,0 0.1721561,0.14111 0,0.14112 -0.1862672,0.14112 H 6.0182661 q -0.1890894,0 -0.1890894,-0.14112 0,-0.14111 0.172156,-0.14111 v -0.50235 q 0,-0.2032 -0.2540007,-0.2032 -0.098778,0 -0.1778005,0.0423 -0.0762,0.0423 -0.1749783,0.14958 v 0.51364 h 0.016933 q 0.1862672,0 0.1862672,0.14111 0,0.14112 -0.1862672,0.14112 z"
         id="path15050" />
    </g>
  </g>
  <g
     inkscape:groupmode="layer"
     id="layer5"
     inkscape:label="components"
     style="display:none" />
</svg>
